M48
;DRILL file {Pcbnew (2013-09-28 BZR 4356)-product} date 10/22/2013 9:10:15 PM
;FORMAT={-:-/ absolute / inch / decimal}
FMAT,2
INCH,TZ
T1C0.013
T2C0.050
%
G90
G05
M72
T1
X6.131Y-5.3655
X6.1325Y-5.685
X6.1325Y-5.73
X6.1335Y-5.5205
X6.145Y-5.165
X6.181Y-5.3555
X6.181Y-5.5255
X6.1825Y-5.685
X6.195Y-5.19
X6.196Y-5.7405
X6.22Y-5.14
X6.23Y-5.3525
X6.23Y-5.5275
X6.2325Y-5.685
X6.2325Y-5.73
X6.245Y-5.19
X6.2535Y-5.7655
X6.28Y-5.3525
X6.28Y-5.5275
X6.2825Y-5.685
X6.295Y-5.19
X6.2975Y-5.7975
X6.32Y-5.09
X6.33Y-5.3525
X6.33Y-5.5275
X6.3325Y-5.585
X6.3325Y-5.635
X6.3325Y-5.685
X6.3325Y-5.73
X6.345Y-5.19
X6.345Y-5.24
X6.345Y-5.29
X6.3475Y-5.8475
X6.37Y-4.99
X6.376Y-5.893
X6.38Y-5.3525
X6.38Y-5.5275
X6.3985Y-5.9455
X6.4035Y-5.993
X6.42Y-4.89
X6.42Y-4.99
X6.42Y-5.09
X6.42Y-5.19
X6.42Y-5.29
X6.43Y-5.36
X6.43Y-5.52
X6.4325Y-5.63
X6.4325Y-5.73
X6.4325Y-5.83
X6.4325Y-5.93
X6.47Y-4.89
X6.48Y-5.3725
X6.48Y-5.5075
X6.4975Y-5.9975
X6.52Y-4.99
X6.52Y-5.09
X6.52Y-5.19
X6.52Y-5.29
X6.53Y-5.36
X6.53Y-5.52
X6.5325Y-5.63
X6.5325Y-5.73
X6.5325Y-5.83
X6.5325Y-5.93
X6.57Y-4.89
X6.58Y-5.385
X6.58Y-5.495
X6.5975Y-5.9975
X6.63Y-5.0475
X6.63Y-5.0975
X6.63Y-5.1475
X6.63Y-5.385
X6.63Y-5.495
X6.6325Y-5.63
X6.6325Y-5.73
X6.6325Y-5.83
X6.6325Y-5.93
X6.67Y-4.89
X6.68Y-5.0225
X6.68Y-5.385
X6.68Y-5.495
X6.6975Y-5.9975
X6.72Y-4.965
X6.725Y-5.14
X6.73Y-5.0225
X6.73Y-5.0975
X6.73Y-5.495
X6.7325Y-5.63
X6.7325Y-5.73
X6.7325Y-5.83
X6.7325Y-5.93
X6.7425Y-5.2875
X6.755Y-5.14
X6.755Y-5.2075
X6.77Y-4.89
X6.78Y-5.0225
X6.78Y-5.095
X6.78Y-5.495
X6.7975Y-5.9975
X6.805Y-5.14
X6.805Y-5.2075
X6.82Y-4.965
X6.83Y-5.0225
X6.83Y-5.095
X6.83Y-5.48
X6.8325Y-5.63
X6.8325Y-5.73
X6.8325Y-5.83
X6.8325Y-5.93
X6.841Y-5.3155
X6.8435Y-5.358
X6.8435Y-5.4155
X6.855Y-5.14
X6.855Y-5.2075
X6.87Y-4.89
X6.8735Y-5.288
X6.88Y-5.0225
X6.88Y-5.095
X6.895Y-5.315
X6.8975Y-5.9975
X6.905Y-5.14
X6.905Y-5.185
X6.905Y-5.3575
X6.905Y-5.4075
X6.905Y-5.4575
X6.9075Y-5.5605
X6.92Y-4.965
X6.921Y-5.288
X6.93Y-5.0225
X6.93Y-5.095
X6.9485Y-5.6805
X6.9485Y-5.7305
X6.9485Y-5.7805
X6.9485Y-5.8305
X6.9485Y-5.8805
X6.9485Y-5.9305
X6.955Y-5.14
X6.955Y-5.3325
X6.955Y-5.3825
X6.955Y-5.4325
X6.955Y-5.4825
X6.9675Y-5.29
X6.97Y-4.89
X6.98Y-5.0225
X6.98Y-5.095
X6.98Y-5.185
X6.98Y-5.245
X6.9975Y-5.9975
X7.005Y-5.14
X7.01Y-5.44
X7.01Y-5.56
X7.0175Y-5.28
X7.02Y-4.965
X7.03Y-5.0225
X7.03Y-5.095
X7.0545Y-5.5625
X7.055Y-5.14
X7.055Y-5.94
X7.0575Y-5.635
X7.0605Y-5.681
X7.0605Y-5.731
X7.0605Y-5.781
X7.0605Y-5.831
X7.07Y-4.89
X7.07Y-5.3325
X7.08Y-5.0225
X7.08Y-5.095
X7.09Y-5.29
X7.0975Y-5.9975
X7.098Y-5.881
X7.105Y-5.14
X7.105Y-5.3525
X7.12Y-4.965
X7.13Y-5.0225
X7.13Y-5.095
X7.13Y-5.2825
X7.155Y-5.14
X7.155Y-5.3525
X7.16Y-5.4275
X7.17Y-4.89
X7.1775Y-5.465
X7.18Y-5.2825
X7.1975Y-5.9975
X7.198Y-5.681
X7.198Y-5.781
X7.198Y-5.881
X7.205Y-5.185
X7.205Y-5.3525
X7.23Y-5.285
X7.23Y-5.5825
X7.23Y-5.6325
X7.2475Y-5.465
X7.255Y-5.0975
X7.255Y-5.3525
X7.27Y-4.89
X7.2725Y-5.0225
X7.28Y-5.245
X7.28Y-5.29
X7.28Y-5.5075
X7.28Y-5.5575
X7.295Y-4.99
X7.295Y-5.1475
X7.2975Y-5.9975
X7.298Y-5.681
X7.298Y-5.781
X7.298Y-5.881
X7.305Y-5.3425
X7.305Y-5.44
X7.32Y-5.0975
X7.3225Y-5.0225
X7.33Y-5.2825
X7.345Y-4.99
X7.345Y-5.1475
X7.355Y-5.3425
X7.355Y-5.44
X7.37Y-4.89
X7.37Y-5.0975
X7.3725Y-5.0225
X7.38Y-5.2825
X7.395Y-4.99
X7.395Y-5.1475
X7.3975Y-5.9975
X7.398Y-5.581
X7.398Y-5.681
X7.398Y-5.781
X7.398Y-5.881
X7.405Y-5.44
X7.4075Y-5.345
X7.42Y-5.0975
X7.4225Y-5.0225
X7.43Y-5.2075
X7.43Y-5.2825
X7.445Y-4.99
X7.455Y-5.345
X7.47Y-4.89
X7.47Y-5.0975
X7.47Y-5.1475
X7.47Y-5.285
X7.4725Y-5.0225
X7.48Y-5.44
X7.495Y-4.99
X7.4975Y-5.9975
X7.498Y-5.581
X7.498Y-5.681
X7.498Y-5.781
X7.498Y-5.881
X7.505Y-5.2075
X7.505Y-5.3025
X7.505Y-5.345
X7.52Y-5.0975
X7.52Y-5.1475
X7.5225Y-5.0225
X7.545Y-4.99
X7.555Y-5.345
X7.5575Y-5.2325
X7.57Y-4.89
X7.57Y-5.0975
X7.57Y-5.1475
X7.5725Y-5.0225
X7.58Y-5.44
X7.595Y-4.99
X7.5975Y-5.9975
X7.598Y-5.581
X7.598Y-5.681
X7.598Y-5.781
X7.598Y-5.881
X7.605Y-5.1975
X7.62Y-5.0975
X7.62Y-5.1475
X7.6225Y-5.0225
X7.63Y-5.49
X7.645Y-4.99
X7.6625Y-5.1975
X7.6625Y-5.2475
X7.6625Y-5.2975
X7.6625Y-5.3475
X7.6625Y-5.3975
X7.67Y-4.89
X7.67Y-5.1475
X7.6725Y-5.0225
X7.68Y-5.515
X7.6975Y-5.9975
X7.698Y-5.581
X7.698Y-5.681
X7.698Y-5.781
X7.698Y-5.881
X7.705Y-5.4225
X7.72Y-4.99
X7.72Y-5.2725
X7.72Y-5.3225
X7.72Y-5.3725
X7.7225Y-5.065
X7.7275Y-5.1975
X7.73Y-5.515
X7.7625Y-5.3975
X7.77Y-4.89
X7.77Y-5.015
X7.7725Y-5.115
X7.7775Y-5.2475
X7.7775Y-5.2975
X7.7775Y-5.3475
X7.78Y-5.49
X7.78Y-5.565
X7.7975Y-5.9975
X7.798Y-5.681
X7.798Y-5.781
X7.798Y-5.881
X7.82Y-5.065
X7.8225Y-5.165
X7.83Y-5.565
X7.846Y-4.9355
X7.87Y-4.89
X7.87Y-5.115
X7.8725Y-5.19
X7.88Y-5.315
X7.88Y-5.365
X7.88Y-5.415
X7.88Y-5.465
X7.88Y-5.515
X7.88Y-5.565
X7.885Y-5.2775
X7.8975Y-5.9975
X7.898Y-5.681
X7.898Y-5.781
X7.898Y-5.881
X7.8985Y-4.988
X7.92Y-4.94
X7.92Y-5.34
X7.92Y-5.39
X7.92Y-5.44
X7.92Y-5.49
X7.92Y-5.54
X7.92Y-5.59
X7.945Y-5.14
X7.946Y-5.0355
X7.9475Y-5.215
X7.97Y-4.89
X7.97Y-4.94
X7.97Y-5.59
X7.995Y-4.99
X7.995Y-5.04
X7.995Y-5.165
X7.995Y-5.215
X7.995Y-5.265
X7.995Y-5.315
X7.995Y-5.365
X7.995Y-5.415
X7.995Y-5.465
X7.9975Y-5.9975
X7.998Y-5.681
X7.998Y-5.781
X7.998Y-5.881
X8.02Y-5.545
X8.02Y-5.615
X8.06Y-5.43
X8.06Y-5.555
X8.085Y-4.99
X8.085Y-5.04
X8.085Y-5.165
X8.085Y-5.215
X8.085Y-5.265
X8.085Y-5.315
X8.085Y-5.365
X8.095Y-5.47
X8.095Y-5.625
X8.095Y-5.69
X8.0975Y-4.89
X8.0975Y-4.94
X8.0975Y-5.9975
X8.098Y-5.781
X8.098Y-5.881
X8.1Y-5.405
X8.1325Y-5.7125
X8.135Y-5.04
X8.14Y-5.295
X8.14Y-5.469
X8.156Y-4.888
X8.156Y-4.988
X8.17Y-5.64
X8.17Y-5.69
X8.1725Y-5.59
X8.1825Y-5.54
X8.1835Y-5.038
X8.188Y-5.4885
X8.19Y-5.175
X8.19Y-5.275
X8.19Y-5.3775
X8.1975Y-5.9975
X8.198Y-5.781
X8.198Y-5.881
X8.2275Y-5.3775
X8.2285Y-5.038
X8.2335Y-4.8905
X8.2335Y-4.9405
X8.281Y-4.9855
X8.29Y-5.175
X8.2975Y-4.89
X8.2975Y-5.9975
X8.298Y-5.281
X8.298Y-5.481
X8.298Y-5.581
X8.298Y-5.681
X8.298Y-5.781
X8.298Y-5.881
X8.331Y-4.9355
X8.39Y-5.075
X8.3975Y-4.89
X8.3975Y-5.9975
X8.398Y-5.181
X8.398Y-5.281
X8.398Y-5.381
X8.398Y-5.481
X8.398Y-5.581
X8.398Y-5.681
X8.398Y-5.781
X8.398Y-5.881
X8.465Y-5.
X8.4975Y-4.89
X8.4975Y-5.9975
X8.498Y-5.081
X8.498Y-5.181
X8.498Y-5.281
X8.498Y-5.381
X8.498Y-5.481
X8.498Y-5.581
X8.498Y-5.681
X8.498Y-5.806
X8.498Y-5.881
X8.548Y-5.756
X8.565Y-5.
X8.5975Y-4.89
X8.5975Y-5.9975
X8.598Y-5.081
X8.598Y-5.181
X8.598Y-5.281
X8.598Y-5.381
X8.598Y-5.481
X8.598Y-5.581
X8.598Y-5.706
X8.623Y-5.8735
X8.623Y-5.9485
X8.665Y-5.
X8.673Y-5.8235
X8.6975Y-4.89
X8.6975Y-5.9975
X8.698Y-5.081
X8.698Y-5.181
X8.698Y-5.281
X8.698Y-5.381
X8.698Y-5.481
X8.698Y-5.581
X8.698Y-5.681
X8.698Y-5.8735
X8.698Y-5.9485
X8.723Y-5.7985
X8.765Y-5.
X8.7975Y-4.89
X8.7975Y-5.9975
X8.798Y-5.081
X8.798Y-5.181
X8.798Y-5.281
X8.798Y-5.381
X8.798Y-5.481
X8.798Y-5.581
X8.798Y-5.681
X8.798Y-5.7985
X8.798Y-5.8735
X8.798Y-5.9485
X8.84Y-5.
X8.8975Y-4.89
X8.8975Y-5.9975
X8.898Y-5.081
X8.898Y-5.181
X8.898Y-5.281
X8.898Y-5.381
X8.898Y-5.481
X8.898Y-5.581
X8.898Y-5.681
X8.898Y-5.7985
X8.898Y-5.8735
X8.898Y-5.9485
X8.915Y-5.
X8.9575Y-5.51
X8.9575Y-5.56
X8.9575Y-5.61
X8.9575Y-5.66
X8.99Y-5.
X8.9975Y-4.89
X8.9975Y-5.9975
X8.998Y-5.7985
X8.998Y-5.8735
X8.998Y-5.9485
X9.023Y-5.741
X9.0325Y-5.46
X9.036Y-5.293
X9.04Y-5.05
X9.04Y-5.1125
X9.04Y-5.1975
X9.09Y-5.07
X9.091Y-5.5255
X9.0935Y-5.393
X9.0975Y-4.89
X9.1235Y-5.908
X9.14Y-4.99
X9.14Y-5.09
X9.1505Y-5.786
X9.1575Y-5.51
X9.1585Y-5.443
X9.1725Y-5.04
X9.1725Y-5.165
X9.176Y-5.8205
X9.1825Y-5.21
X9.1825Y-5.335
X9.1825Y-5.685
X9.2225Y-5.09
X9.251Y-5.768
X9.2525Y-5.445
X9.2725Y-5.125
X9.2725Y-5.215
X9.2825Y-5.5
X9.2835Y-5.683
X9.3225Y-5.14
X9.3535Y-5.728
X9.356Y-5.678
X9.3585Y-5.458
X9.3725Y-5.155
X9.3725Y-5.215
T2
X6.6394Y-4.978
X8.8677Y-5.9031
T0
M30
