G04 (created by PCBNEW (2013-09-28 BZR 4356)-product) date 10/22/2013 9:10:19 PM*
%MOIN*%
G04 Gerber Fmt 3.4, Leading zero omitted, Abs format*
%FSLAX34Y34*%
G01*
G70*
G90*
G04 APERTURE LIST*
%ADD10C,0.005906*%
%ADD11R,0.200000X0.095000*%
%ADD12R,0.200000X0.090000*%
%ADD13R,0.045000X0.025000*%
%ADD14R,0.025000X0.045000*%
%ADD15R,0.100000X0.070000*%
%ADD16R,0.060000X0.100000*%
%ADD17R,0.063000X0.027600*%
%ADD18R,0.082700X0.027600*%
%ADD19R,0.108300X0.078700*%
%ADD20R,0.059100X0.076800*%
%ADD21R,0.050000X0.025000*%
%ADD22R,0.062992X0.051181*%
%ADD23R,0.062992X0.078740*%
%ADD24R,0.039528X0.104331*%
%ADD25R,0.039400X0.023600*%
%ADD26R,0.059055X0.031496*%
%ADD27R,0.070000X0.100000*%
%ADD28C,0.100000*%
%ADD29C,0.027000*%
%ADD30C,0.040000*%
%ADD31C,0.020000*%
%ADD32C,0.030000*%
%ADD33C,0.050000*%
%ADD34C,0.010000*%
%ADD35C,0.117125*%
%ADD36C,0.025000*%
G04 APERTURE END LIST*
G54D10*
G54D11*
X62125Y-56150D03*
X62125Y-52700D03*
G54D12*
X62125Y-54425D03*
G54D13*
X67550Y-51850D03*
X67550Y-52450D03*
X69050Y-52450D03*
X69050Y-51850D03*
G54D14*
X73000Y-53900D03*
X73600Y-53900D03*
X77350Y-54650D03*
X76750Y-54650D03*
G54D13*
X73550Y-52450D03*
X73550Y-51850D03*
X66800Y-51200D03*
X66800Y-50600D03*
X66800Y-51850D03*
X66800Y-52450D03*
X66050Y-51850D03*
X66050Y-52450D03*
X71000Y-55950D03*
X71000Y-56550D03*
G54D14*
X91555Y-57410D03*
X90955Y-57410D03*
G54D13*
X66050Y-53100D03*
X66050Y-53700D03*
G54D14*
X90900Y-50700D03*
X90300Y-50700D03*
X90930Y-58210D03*
X90330Y-58210D03*
X70100Y-55600D03*
X69500Y-55600D03*
G54D13*
X71300Y-52450D03*
X71300Y-51850D03*
X74300Y-51850D03*
X74300Y-52450D03*
X68300Y-52450D03*
X68300Y-51850D03*
G54D14*
X70100Y-56400D03*
X69500Y-56400D03*
G54D13*
X71750Y-55950D03*
X71750Y-56550D03*
X66800Y-53100D03*
X66800Y-53700D03*
X70550Y-52450D03*
X70550Y-51850D03*
X66050Y-54400D03*
X66050Y-55000D03*
X78300Y-54600D03*
X78300Y-55200D03*
X75050Y-51850D03*
X75050Y-52450D03*
G54D14*
X90300Y-51500D03*
X90900Y-51500D03*
G54D15*
X93435Y-52805D03*
G54D16*
X80360Y-49130D03*
G54D15*
X93435Y-56105D03*
X93435Y-55005D03*
X93435Y-53905D03*
G54D17*
X91130Y-55509D03*
G54D18*
X91228Y-56100D03*
G54D17*
X91130Y-56691D03*
G54D19*
X92173Y-56100D03*
G54D17*
X91130Y-52209D03*
G54D18*
X91228Y-52800D03*
G54D17*
X91130Y-53391D03*
G54D19*
X92173Y-52800D03*
G54D20*
X90278Y-53641D03*
X90278Y-52559D03*
X90300Y-55259D03*
X90300Y-56341D03*
G54D21*
X78300Y-53900D03*
X78300Y-53400D03*
X78300Y-52900D03*
X78300Y-52400D03*
X76100Y-52400D03*
X76100Y-52900D03*
X76100Y-53400D03*
X76100Y-53900D03*
G54D22*
X72170Y-55150D03*
X72170Y-54150D03*
G54D23*
X71029Y-54650D03*
G54D21*
X67900Y-53400D03*
X67900Y-53900D03*
X67900Y-54400D03*
X67900Y-54900D03*
X70100Y-54900D03*
X70100Y-54400D03*
X70100Y-53900D03*
X70100Y-53400D03*
G54D24*
X64375Y-54400D03*
X65224Y-54400D03*
G54D25*
X80589Y-54315D03*
X80589Y-55065D03*
X80589Y-54690D03*
X81421Y-55065D03*
X81421Y-54315D03*
G54D14*
X80700Y-55800D03*
X81300Y-55800D03*
X81300Y-56600D03*
X80700Y-56600D03*
G54D13*
X82250Y-54150D03*
X82250Y-53550D03*
X79730Y-55070D03*
X79730Y-55670D03*
X83000Y-54150D03*
X83000Y-53550D03*
X72050Y-51850D03*
X72050Y-52450D03*
X69800Y-51850D03*
X69800Y-52450D03*
X70100Y-57700D03*
X70100Y-57100D03*
X72800Y-52450D03*
X72800Y-51850D03*
X81400Y-52950D03*
X81400Y-53550D03*
G54D26*
X74375Y-53896D03*
X74375Y-54448D03*
X74375Y-54999D03*
X75202Y-53896D03*
X75202Y-54448D03*
X75202Y-54999D03*
G54D27*
X81585Y-49130D03*
G54D28*
X66393Y-49779D03*
X88677Y-59031D03*
G54D29*
X72050Y-51850D03*
X72800Y-52450D03*
X69800Y-51850D03*
X81400Y-52950D03*
X90900Y-50700D03*
X70550Y-59400D03*
X90230Y-57410D03*
X70100Y-55600D03*
X70100Y-54400D03*
X84980Y-55810D03*
X83980Y-55810D03*
X82980Y-55810D03*
X82980Y-54810D03*
X83980Y-54810D03*
X84980Y-54810D03*
X85980Y-54810D03*
X86980Y-54810D03*
X87980Y-54810D03*
X88980Y-54810D03*
X88980Y-53810D03*
X87980Y-53810D03*
X86980Y-53810D03*
X85980Y-53810D03*
X84980Y-53810D03*
X83980Y-53810D03*
X84980Y-52810D03*
X85980Y-52810D03*
X86980Y-52810D03*
X87980Y-52810D03*
X88980Y-52810D03*
X88980Y-51810D03*
X87980Y-51810D03*
X86980Y-51810D03*
X85980Y-51810D03*
X84980Y-51810D03*
X83980Y-52810D03*
X82980Y-52810D03*
X83980Y-51810D03*
X84980Y-50810D03*
X85980Y-50810D03*
X86980Y-50810D03*
X87980Y-50810D03*
X88980Y-50810D03*
X85980Y-55810D03*
X86980Y-55810D03*
X87980Y-55810D03*
X88980Y-55810D03*
X84980Y-56810D03*
X83980Y-56810D03*
X82980Y-56810D03*
X81980Y-57810D03*
X82980Y-57810D03*
X83980Y-57810D03*
X72980Y-56810D03*
X73980Y-55810D03*
X74980Y-55810D03*
X75980Y-55810D03*
X76980Y-55810D03*
X76980Y-56810D03*
X75980Y-56810D03*
X74980Y-56810D03*
X73980Y-56810D03*
X80980Y-57810D03*
X79980Y-56810D03*
X79980Y-57810D03*
X78980Y-57810D03*
X78980Y-56810D03*
X77980Y-56810D03*
X77980Y-57810D03*
X76980Y-58810D03*
X76980Y-57810D03*
X75980Y-57810D03*
X74980Y-57810D03*
X73980Y-57810D03*
X72980Y-57810D03*
X71980Y-57810D03*
X70605Y-58310D03*
X70980Y-58810D03*
X71980Y-58810D03*
X72980Y-58810D03*
X73980Y-58810D03*
X74980Y-58810D03*
X75980Y-58810D03*
X77980Y-58810D03*
X78980Y-58810D03*
X79980Y-58810D03*
X80980Y-58810D03*
X81980Y-58810D03*
X82980Y-58810D03*
X83980Y-58810D03*
X84980Y-58810D03*
X70605Y-57810D03*
X70605Y-57310D03*
X70605Y-56810D03*
X88980Y-56810D03*
X87980Y-56810D03*
X86980Y-56810D03*
X85980Y-57060D03*
X85480Y-57560D03*
X84980Y-58060D03*
X71200Y-49650D03*
X70200Y-49650D03*
X69200Y-49650D03*
X68200Y-49650D03*
X67200Y-49650D03*
X86230Y-59485D03*
X86230Y-58735D03*
X86730Y-58235D03*
X87230Y-57985D03*
X87980Y-57985D03*
X88980Y-57985D03*
X89980Y-57985D03*
X88980Y-58735D03*
X87980Y-58735D03*
X86980Y-58735D03*
X86980Y-59485D03*
X87980Y-59485D03*
X88980Y-59485D03*
X89980Y-59485D03*
X89980Y-58735D03*
X64325Y-59300D03*
X65325Y-59300D03*
X66325Y-59300D03*
X67325Y-59300D03*
X68325Y-59300D03*
X68325Y-58300D03*
X67325Y-58300D03*
X66325Y-58300D03*
X65325Y-58300D03*
X64325Y-58300D03*
X64325Y-57300D03*
X65325Y-57300D03*
X66325Y-57300D03*
X67325Y-57300D03*
X68325Y-57300D03*
X68325Y-56300D03*
X67325Y-56300D03*
X66325Y-56300D03*
X65325Y-56300D03*
X64325Y-56300D03*
X63325Y-57300D03*
X62325Y-57300D03*
X91505Y-57860D03*
X91825Y-56850D03*
X92835Y-56830D03*
X93560Y-56780D03*
X93535Y-57280D03*
X92510Y-57680D03*
X91760Y-58205D03*
X91235Y-59080D03*
X63325Y-55850D03*
X63325Y-56350D03*
X63325Y-56850D03*
X62825Y-56850D03*
X62325Y-56850D03*
X61825Y-56850D03*
X61325Y-56850D03*
X61325Y-57300D03*
X61960Y-57405D03*
X62535Y-57655D03*
X62975Y-57975D03*
X63475Y-58475D03*
X63760Y-58930D03*
X63985Y-59455D03*
X64035Y-59930D03*
X64975Y-59975D03*
X65975Y-59975D03*
X66975Y-59975D03*
X67975Y-59975D03*
X68975Y-59975D03*
X69975Y-59975D03*
X70975Y-59975D03*
X71975Y-59975D03*
X72975Y-59975D03*
X73975Y-59975D03*
X74975Y-59975D03*
X75975Y-59975D03*
X76975Y-59975D03*
X77975Y-59975D03*
X78975Y-59975D03*
X79975Y-59975D03*
X80975Y-59975D03*
X81975Y-59975D03*
X82975Y-59975D03*
X83975Y-59975D03*
X84975Y-59975D03*
X85975Y-59975D03*
X86975Y-59975D03*
X87975Y-59975D03*
X88975Y-59975D03*
X89975Y-59975D03*
X61310Y-53655D03*
X61810Y-53555D03*
X62300Y-53525D03*
X62800Y-53525D03*
X63300Y-53525D03*
X63800Y-53525D03*
X64300Y-53600D03*
X64800Y-53725D03*
X65300Y-53600D03*
X65800Y-53850D03*
X66300Y-53850D03*
X66800Y-53850D03*
X69485Y-59305D03*
X69485Y-58805D03*
X69485Y-58305D03*
X69485Y-57805D03*
X69485Y-57305D03*
X69485Y-56805D03*
X69075Y-55605D03*
X70545Y-55625D03*
X70575Y-56350D03*
X65200Y-49900D03*
X65200Y-50900D03*
X65200Y-51900D03*
X65200Y-52900D03*
X64200Y-52900D03*
X64200Y-51900D03*
X64200Y-50900D03*
X64200Y-49900D03*
X79200Y-49400D03*
X78460Y-49355D03*
X78985Y-49880D03*
X79460Y-50355D03*
X81350Y-50400D03*
X81835Y-50380D03*
X82285Y-50380D03*
X82810Y-49855D03*
X83310Y-49355D03*
X81560Y-49880D03*
X81560Y-48880D03*
X82335Y-49405D03*
X93585Y-54580D03*
X92525Y-54450D03*
X91585Y-54430D03*
X90935Y-53930D03*
X90325Y-54600D03*
X89575Y-56600D03*
X89575Y-56100D03*
X89575Y-55600D03*
X89575Y-55100D03*
X92825Y-55000D03*
X91575Y-55100D03*
X90910Y-55255D03*
X91825Y-53350D03*
X91825Y-52100D03*
X91400Y-50900D03*
X91725Y-51650D03*
X92725Y-52150D03*
X93725Y-52150D03*
X93725Y-51550D03*
X93225Y-51400D03*
X92725Y-51250D03*
X92225Y-50900D03*
X91725Y-50400D03*
X91400Y-49900D03*
X90975Y-48900D03*
X89975Y-48900D03*
X88975Y-48900D03*
X87975Y-48900D03*
X86975Y-48900D03*
X85975Y-48900D03*
X84975Y-48900D03*
X83975Y-48900D03*
X82975Y-48900D03*
X82335Y-48905D03*
X80975Y-48900D03*
X80975Y-49400D03*
X80850Y-49900D03*
X80850Y-50400D03*
X79700Y-55900D03*
X80200Y-55450D03*
X80200Y-56150D03*
X80950Y-56250D03*
X80950Y-56900D03*
X81325Y-57125D03*
X81700Y-56900D03*
X81700Y-56400D03*
X81725Y-55900D03*
X81825Y-55400D03*
X81880Y-54885D03*
X81400Y-54690D03*
X80950Y-54700D03*
X80850Y-51650D03*
X80850Y-52150D03*
X80850Y-52650D03*
X80850Y-53150D03*
X80850Y-53650D03*
X81000Y-54050D03*
X82275Y-53775D03*
X81900Y-53775D03*
X81900Y-52750D03*
X81900Y-51750D03*
X90360Y-52930D03*
X90400Y-51975D03*
X90400Y-51125D03*
X90400Y-50500D03*
X89900Y-50000D03*
X89150Y-50000D03*
X88400Y-50000D03*
X87650Y-50000D03*
X86650Y-50000D03*
X85650Y-50000D03*
X84650Y-50000D03*
X83900Y-50750D03*
X82900Y-51750D03*
X79200Y-55900D03*
X79200Y-55400D03*
X79200Y-54900D03*
X79200Y-54400D03*
X79200Y-53900D03*
X79200Y-53400D03*
X78850Y-52775D03*
X78800Y-53150D03*
X78800Y-53650D03*
X78800Y-54150D03*
X78800Y-54650D03*
X78800Y-55150D03*
X78800Y-55650D03*
X78300Y-55650D03*
X77800Y-55650D03*
X77800Y-54900D03*
X77300Y-55150D03*
X76800Y-55150D03*
X76300Y-54900D03*
X75800Y-54400D03*
X74800Y-54400D03*
X74050Y-54400D03*
X73550Y-54400D03*
X73050Y-54400D03*
X71600Y-54275D03*
X71775Y-54650D03*
X72475Y-54650D03*
X72800Y-55075D03*
X72800Y-55575D03*
X72300Y-55825D03*
X72300Y-56325D03*
X71980Y-56810D03*
X67425Y-52875D03*
X61335Y-55205D03*
X61810Y-55255D03*
X62300Y-55275D03*
X62800Y-55275D03*
X63300Y-55275D03*
X63800Y-55275D03*
X64300Y-55200D03*
X64800Y-55075D03*
X65300Y-55200D03*
X65800Y-54950D03*
X66300Y-54950D03*
X66800Y-54950D03*
X67300Y-54950D03*
X67800Y-54950D03*
X68300Y-54800D03*
X68950Y-53150D03*
X69050Y-53575D03*
X69050Y-54075D03*
X69050Y-54575D03*
X69550Y-54825D03*
X69550Y-54325D03*
X69550Y-53825D03*
X69550Y-53325D03*
X70175Y-52800D03*
X69675Y-52900D03*
X69210Y-52880D03*
X68735Y-52880D03*
X68410Y-53155D03*
X68435Y-53580D03*
X68435Y-54155D03*
X74300Y-52825D03*
X74700Y-52850D03*
X75050Y-53025D03*
X75550Y-53450D03*
X75050Y-53450D03*
X74550Y-53450D03*
X74075Y-53450D03*
X73550Y-53425D03*
X73050Y-53425D03*
X72550Y-53525D03*
X72050Y-53525D03*
X71550Y-53525D03*
X71050Y-53525D03*
X70700Y-53325D03*
X70900Y-52900D03*
X71300Y-52825D03*
X71800Y-52825D03*
X72300Y-52850D03*
X72800Y-52900D03*
X73300Y-52825D03*
X73800Y-52825D03*
X74700Y-51475D03*
X75200Y-51475D03*
X75700Y-51475D03*
X76200Y-51475D03*
X76700Y-51475D03*
X76200Y-50975D03*
X75700Y-50975D03*
X75200Y-50975D03*
X74700Y-50975D03*
X74200Y-50975D03*
X73700Y-50975D03*
X73200Y-50975D03*
X72550Y-50975D03*
X72950Y-51475D03*
X73450Y-51475D03*
X73950Y-51475D03*
X77200Y-53725D03*
X77200Y-53225D03*
X77200Y-52725D03*
X77275Y-51975D03*
X77775Y-52475D03*
X77775Y-52975D03*
X77775Y-53475D03*
X77625Y-53975D03*
X77050Y-54225D03*
X76625Y-53975D03*
X76625Y-53475D03*
X76625Y-52975D03*
X76625Y-52475D03*
X76625Y-51975D03*
X76050Y-51975D03*
X75575Y-52325D03*
X75050Y-52075D03*
X74300Y-52075D03*
X68550Y-52075D03*
X68050Y-52075D03*
X67550Y-52075D03*
X67550Y-51400D03*
X68050Y-51400D03*
X68550Y-51400D03*
X69050Y-51400D03*
X69550Y-51400D03*
X70050Y-51400D03*
X70550Y-51400D03*
X71050Y-51400D03*
X71550Y-51400D03*
X71300Y-50950D03*
X70800Y-50950D03*
X70300Y-50950D03*
X69800Y-50950D03*
X69300Y-50950D03*
X68800Y-50950D03*
X68300Y-50950D03*
X67800Y-50950D03*
X67300Y-50975D03*
X67250Y-51400D03*
X79950Y-51650D03*
X72950Y-49900D03*
X73450Y-49900D03*
X73950Y-49900D03*
X74450Y-49900D03*
X74950Y-49900D03*
X75450Y-49900D03*
X75950Y-49900D03*
X76450Y-49900D03*
X77200Y-49900D03*
X77700Y-50150D03*
X78200Y-50650D03*
X78700Y-51150D03*
X79450Y-51400D03*
X79950Y-52150D03*
X63450Y-52900D03*
X63450Y-52400D03*
X63450Y-51900D03*
X62950Y-51900D03*
X62450Y-51900D03*
X61950Y-51900D03*
X61450Y-51650D03*
X62200Y-51400D03*
X63200Y-50900D03*
X63700Y-49900D03*
X64200Y-48900D03*
X64700Y-48900D03*
X65700Y-48900D03*
X66700Y-48900D03*
X67700Y-48900D03*
X68700Y-48900D03*
X69700Y-48900D03*
X70700Y-48900D03*
X71700Y-48900D03*
X72700Y-48900D03*
X73700Y-48900D03*
X74700Y-48900D03*
X75700Y-48900D03*
X76700Y-48900D03*
X77700Y-48900D03*
X78700Y-48900D03*
X79700Y-48900D03*
X79700Y-49400D03*
X79950Y-49900D03*
X79950Y-50400D03*
X72725Y-50225D03*
X73225Y-50225D03*
X73725Y-50225D03*
X74225Y-50225D03*
X74725Y-50225D03*
X75225Y-50225D03*
X75725Y-50225D03*
X76225Y-50225D03*
X76725Y-50225D03*
X77225Y-50650D03*
X77725Y-51150D03*
X78225Y-51650D03*
X78725Y-51900D03*
X79475Y-52150D03*
X79950Y-52650D03*
X79950Y-53150D03*
X79950Y-53650D03*
X79950Y-54150D03*
X79950Y-54650D03*
X71300Y-50225D03*
X70800Y-50225D03*
X70300Y-50225D03*
X69800Y-50225D03*
X69300Y-50225D03*
X68800Y-50225D03*
X68300Y-50225D03*
X67800Y-50225D03*
X67300Y-50225D03*
X66800Y-50225D03*
X66300Y-50475D03*
X66300Y-50975D03*
X66300Y-51475D03*
X80600Y-54300D03*
X80600Y-55550D03*
X69050Y-51850D03*
X69800Y-52450D03*
G54D30*
X90900Y-51500D02*
X90900Y-50700D01*
X91130Y-52209D02*
X90900Y-51979D01*
X90900Y-51979D02*
X90900Y-51500D01*
X70100Y-58950D02*
X70550Y-59400D01*
X70100Y-57700D02*
X70100Y-58950D01*
X90230Y-57410D02*
X90955Y-57410D01*
X90930Y-58210D02*
X90930Y-57435D01*
X91130Y-56691D02*
X90900Y-56921D01*
X90900Y-56921D02*
X90900Y-57400D01*
G54D31*
X82250Y-54150D02*
X83000Y-54150D01*
X81421Y-54315D02*
X81586Y-54150D01*
X81586Y-54150D02*
X82250Y-54150D01*
X81400Y-53550D02*
X81400Y-54294D01*
X81400Y-54294D02*
X81421Y-54315D01*
X68300Y-52450D02*
X67900Y-52850D01*
X67900Y-52850D02*
X67900Y-53400D01*
X69050Y-52450D02*
X68300Y-52450D01*
X67550Y-52450D02*
X68300Y-52450D01*
G54D32*
X91130Y-53391D02*
X91639Y-53900D01*
G54D30*
X91639Y-53900D02*
X93478Y-53900D01*
G54D32*
X90278Y-53641D02*
X90528Y-53391D01*
X90528Y-53391D02*
X91130Y-53391D01*
X91228Y-56100D02*
X92173Y-56100D01*
G54D33*
X92173Y-56100D02*
X93478Y-56100D01*
G54D32*
X90278Y-56341D02*
X90519Y-56100D01*
X90519Y-56100D02*
X91228Y-56100D01*
G54D30*
X70100Y-57100D02*
X70100Y-56400D01*
X70100Y-56400D02*
X70100Y-55600D01*
G54D31*
X71300Y-52450D02*
X72050Y-52450D01*
X70550Y-52450D02*
X71300Y-52450D01*
X70550Y-52450D02*
X70550Y-52950D01*
X70550Y-52950D02*
X70100Y-53400D01*
X76100Y-53400D02*
X76100Y-52900D01*
X76100Y-52900D02*
X75500Y-52900D01*
X75500Y-52900D02*
X75050Y-52450D01*
X74300Y-52450D02*
X75050Y-52450D01*
X73550Y-52450D02*
X74300Y-52450D01*
G54D34*
X90300Y-50700D02*
X90190Y-50810D01*
X84980Y-55810D02*
X85980Y-55810D01*
X82980Y-55810D02*
X83980Y-55810D01*
X83980Y-54810D02*
X82980Y-54810D01*
X85980Y-54810D02*
X84980Y-54810D01*
X87980Y-54810D02*
X86980Y-54810D01*
X88980Y-53810D02*
X88980Y-54810D01*
X86980Y-53810D02*
X87980Y-53810D01*
X84980Y-53810D02*
X85980Y-53810D01*
X84980Y-52810D02*
X83980Y-53810D01*
X86980Y-52810D02*
X85980Y-52810D01*
X88980Y-52810D02*
X87980Y-52810D01*
X87980Y-51810D02*
X88980Y-51810D01*
X85980Y-51810D02*
X86980Y-51810D01*
X83980Y-52810D02*
X84980Y-51810D01*
X83980Y-51810D02*
X82980Y-52810D01*
X85980Y-50810D02*
X84980Y-50810D01*
X87980Y-50810D02*
X86980Y-50810D01*
X90190Y-50810D02*
X88980Y-50810D01*
X86980Y-55810D02*
X87980Y-55810D01*
X88980Y-55810D02*
X85980Y-55810D01*
X85980Y-55810D02*
X84980Y-56810D01*
X83980Y-56810D02*
X82980Y-56810D01*
X81980Y-57810D02*
X82980Y-57810D01*
X71980Y-56810D02*
X72980Y-56810D01*
X73980Y-55810D02*
X74980Y-55810D01*
X75980Y-55810D02*
X76980Y-55810D01*
X76980Y-56810D02*
X75980Y-56810D01*
X74980Y-56810D02*
X73980Y-56810D01*
X79980Y-56810D02*
X80980Y-57810D01*
X78980Y-57810D02*
X79980Y-57810D01*
X77980Y-56810D02*
X78980Y-56810D01*
X76980Y-58810D02*
X77980Y-57810D01*
X75980Y-57810D02*
X76980Y-57810D01*
X73980Y-57810D02*
X74980Y-57810D01*
X71980Y-57810D02*
X72980Y-57810D01*
X70605Y-58310D02*
X70605Y-58435D01*
X70605Y-58435D02*
X70980Y-58810D01*
X71980Y-58810D02*
X72980Y-58810D01*
X73980Y-58810D02*
X74980Y-58810D01*
X75980Y-58810D02*
X77980Y-58810D01*
X78980Y-58810D02*
X79980Y-58810D01*
X80980Y-58810D02*
X81980Y-58810D01*
X82980Y-58810D02*
X83980Y-58810D01*
X71000Y-56550D02*
X70740Y-56810D01*
X70605Y-57310D02*
X70605Y-57810D01*
X70740Y-56810D02*
X70605Y-56810D01*
X87980Y-56810D02*
X88980Y-56810D01*
X86230Y-56810D02*
X86980Y-56810D01*
X85980Y-57060D02*
X86230Y-56810D01*
X84980Y-58060D02*
X85480Y-57560D01*
G54D31*
X69200Y-49650D02*
X70200Y-49650D01*
X67200Y-49650D02*
X68200Y-49650D01*
G54D34*
X86230Y-59725D02*
X86230Y-59485D01*
X86230Y-58735D02*
X86730Y-58235D01*
X87230Y-57985D02*
X87980Y-57985D01*
X88980Y-57985D02*
X89980Y-57985D01*
X85980Y-59975D02*
X86230Y-59725D01*
X87980Y-58735D02*
X88980Y-58735D01*
X86980Y-59485D02*
X86980Y-58735D01*
X88980Y-59485D02*
X87980Y-59485D01*
X89980Y-58735D02*
X89980Y-59485D01*
G54D31*
X61325Y-57300D02*
X62325Y-57300D01*
X66325Y-59300D02*
X65325Y-59300D01*
X68325Y-59300D02*
X67325Y-59300D01*
X67325Y-58300D02*
X68325Y-58300D01*
X65325Y-58300D02*
X66325Y-58300D01*
X64325Y-57300D02*
X64325Y-58300D01*
X66325Y-57300D02*
X65325Y-57300D01*
X68325Y-57300D02*
X67325Y-57300D01*
X67325Y-56300D02*
X68325Y-56300D01*
X65325Y-56300D02*
X66325Y-56300D01*
X63325Y-57300D02*
X64325Y-56300D01*
X91825Y-57275D02*
X91505Y-57860D01*
X91825Y-56850D02*
X91825Y-57275D01*
X93535Y-56805D02*
X92835Y-56830D01*
X93560Y-56780D02*
X93535Y-56805D01*
X92900Y-57350D02*
X93535Y-57280D01*
X92510Y-57680D02*
X92900Y-57350D01*
X91325Y-58775D02*
X91760Y-58205D01*
X91235Y-59080D02*
X91325Y-58775D01*
X63325Y-56850D02*
X63325Y-56350D01*
X62325Y-56850D02*
X62825Y-56850D01*
X61325Y-56850D02*
X61825Y-56850D01*
X61800Y-57300D02*
X61325Y-57300D01*
X61960Y-57405D02*
X61800Y-57300D01*
X62775Y-57975D02*
X62535Y-57655D01*
X62975Y-57975D02*
X62775Y-57975D01*
X63725Y-58725D02*
X63475Y-58475D01*
X63760Y-58930D02*
X63725Y-58725D01*
X64025Y-59575D02*
X63985Y-59455D01*
X64035Y-59930D02*
X64025Y-59575D01*
X65975Y-59975D02*
X64975Y-59975D01*
X67975Y-59975D02*
X66975Y-59975D01*
X69975Y-59975D02*
X68975Y-59975D01*
X71975Y-59975D02*
X70975Y-59975D01*
X73975Y-59975D02*
X72975Y-59975D01*
X75975Y-59975D02*
X74975Y-59975D01*
X77975Y-59975D02*
X76975Y-59975D01*
X79975Y-59975D02*
X78975Y-59975D01*
X81975Y-59975D02*
X80975Y-59975D01*
X83975Y-59975D02*
X82975Y-59975D01*
X85975Y-59975D02*
X85980Y-59975D01*
X85980Y-59975D02*
X84975Y-59975D01*
X87975Y-59975D02*
X86975Y-59975D01*
X89975Y-59975D02*
X88975Y-59975D01*
X62100Y-52675D02*
X62100Y-52925D01*
X62100Y-52925D02*
X61310Y-53655D01*
X61810Y-53555D02*
X62300Y-53525D01*
X62800Y-53525D02*
X63300Y-53525D01*
X63800Y-53525D02*
X64300Y-53600D01*
X64800Y-53725D02*
X65300Y-53600D01*
X65800Y-53850D02*
X66300Y-53850D01*
X69500Y-56400D02*
X69500Y-56790D01*
X69485Y-58305D02*
X69485Y-58805D01*
X69485Y-57305D02*
X69485Y-57805D01*
X69500Y-56790D02*
X69485Y-56805D01*
X69500Y-55600D02*
X69080Y-55600D01*
X69080Y-55600D02*
X69075Y-55605D01*
X71000Y-56550D02*
X70775Y-56550D01*
X70775Y-56550D02*
X70575Y-56350D01*
X64200Y-48900D02*
X64200Y-49900D01*
X65450Y-49650D02*
X66230Y-49160D01*
X65200Y-49900D02*
X65450Y-49650D01*
X65200Y-51900D02*
X65200Y-50900D01*
X64200Y-52900D02*
X65200Y-52900D01*
X64200Y-50900D02*
X64200Y-51900D01*
X79950Y-50400D02*
X79460Y-50355D01*
X78985Y-49880D02*
X78460Y-49355D01*
X81835Y-50380D02*
X82285Y-50380D01*
X82810Y-49855D02*
X83310Y-49355D01*
X80850Y-50400D02*
X81350Y-50400D01*
X82335Y-49405D02*
X81560Y-48880D01*
X90300Y-55259D02*
X90325Y-55234D01*
X92600Y-54525D02*
X93585Y-54580D01*
X92525Y-54450D02*
X92600Y-54525D01*
X91325Y-54350D02*
X91585Y-54430D01*
X90935Y-53930D02*
X91325Y-54350D01*
X90325Y-55234D02*
X90325Y-54600D01*
X90300Y-55259D02*
X90141Y-55100D01*
X89575Y-55600D02*
X89575Y-56100D01*
X90141Y-55100D02*
X89575Y-55100D01*
X91639Y-55000D02*
X91575Y-55064D01*
X91575Y-55064D02*
X91575Y-55100D01*
X91130Y-55509D02*
X91075Y-55454D01*
X91075Y-55454D02*
X90910Y-55255D01*
X92173Y-52800D02*
X91825Y-53148D01*
X91825Y-53148D02*
X91825Y-53350D01*
X91228Y-52800D02*
X92173Y-52800D01*
X92173Y-52800D02*
X91825Y-52452D01*
X91825Y-52452D02*
X91825Y-52100D01*
X91400Y-51325D02*
X91400Y-50900D01*
X91725Y-51650D02*
X91400Y-51325D01*
X93725Y-52150D02*
X92725Y-52150D01*
X93375Y-51550D02*
X93725Y-51550D01*
X93225Y-51400D02*
X93375Y-51550D01*
X92575Y-51250D02*
X92725Y-51250D01*
X92225Y-50900D02*
X92575Y-51250D01*
X91400Y-50075D02*
X91725Y-50400D01*
X91400Y-49900D02*
X91400Y-50075D01*
X89975Y-48900D02*
X90975Y-48900D01*
X87975Y-48900D02*
X88975Y-48900D01*
X85975Y-48900D02*
X86975Y-48900D01*
X83975Y-48900D02*
X84975Y-48900D01*
X82335Y-48905D02*
X82975Y-48900D01*
X80975Y-49400D02*
X80975Y-48900D01*
X80850Y-50400D02*
X80850Y-49900D01*
X79700Y-55700D02*
X79700Y-55900D01*
X80200Y-55450D02*
X80200Y-56150D01*
X80950Y-56250D02*
X80950Y-56900D01*
X81325Y-57125D02*
X81700Y-56900D01*
X81700Y-56400D02*
X81725Y-55900D01*
X81825Y-55400D02*
X81900Y-55325D01*
X81900Y-55325D02*
X81880Y-54885D01*
X81400Y-54690D02*
X80950Y-54700D01*
X79730Y-55670D02*
X79700Y-55700D01*
X80850Y-52150D02*
X80850Y-51650D01*
X80850Y-53150D02*
X80850Y-52650D01*
X81000Y-53800D02*
X80850Y-53650D01*
X81000Y-54050D02*
X81000Y-53800D01*
X81900Y-51750D02*
X82900Y-51750D01*
X82275Y-53575D02*
X82275Y-53775D01*
X81900Y-53775D02*
X81900Y-52750D01*
X82250Y-53550D02*
X82275Y-53575D01*
X90400Y-51975D02*
X90360Y-52930D01*
X90400Y-50500D02*
X90400Y-51125D01*
X89150Y-50000D02*
X89900Y-50000D01*
X87650Y-50000D02*
X88400Y-50000D01*
X85650Y-50000D02*
X86650Y-50000D01*
X83900Y-50750D02*
X84650Y-50000D01*
X79200Y-55400D02*
X79200Y-55900D01*
X79200Y-54400D02*
X79200Y-54900D01*
X79200Y-53400D02*
X79200Y-53900D01*
X78800Y-52925D02*
X78850Y-52775D01*
X78800Y-53150D02*
X78800Y-52925D01*
X78800Y-54150D02*
X78800Y-53650D01*
X78800Y-55150D02*
X78800Y-54650D01*
X78300Y-55650D02*
X78800Y-55650D01*
X77800Y-54900D02*
X77800Y-55650D01*
X76800Y-55150D02*
X77300Y-55150D01*
X75800Y-54400D02*
X76300Y-54900D01*
X74050Y-54400D02*
X74800Y-54400D01*
X73050Y-54400D02*
X73550Y-54400D01*
X71750Y-56550D02*
X71945Y-56930D01*
X72475Y-54650D02*
X71775Y-54650D01*
X72800Y-55575D02*
X72800Y-55075D01*
X72300Y-56325D02*
X72300Y-55825D01*
X71945Y-56930D02*
X71980Y-56810D01*
X62100Y-56025D02*
X61335Y-55205D01*
X61810Y-55255D02*
X62300Y-55275D01*
X62800Y-55275D02*
X63300Y-55275D01*
X63800Y-55275D02*
X64300Y-55200D01*
X64800Y-55075D02*
X65300Y-55200D01*
X65800Y-54950D02*
X66300Y-54950D01*
X66800Y-54950D02*
X67300Y-54950D01*
X67800Y-54950D02*
X68300Y-54800D01*
X62100Y-56125D02*
X62100Y-56025D01*
X69050Y-54075D02*
X69050Y-53575D01*
X69300Y-54825D02*
X69050Y-54575D01*
X69550Y-54825D02*
X69300Y-54825D01*
X69550Y-53825D02*
X69550Y-54325D01*
X69600Y-53275D02*
X69550Y-53325D01*
X69600Y-53175D02*
X69600Y-53275D01*
X69975Y-52800D02*
X69600Y-53175D01*
X70175Y-52800D02*
X69975Y-52800D01*
X69285Y-52955D02*
X69675Y-52900D01*
X69210Y-52880D02*
X69285Y-52955D01*
X68410Y-53030D02*
X68735Y-52880D01*
X68410Y-53155D02*
X68410Y-53030D01*
X68435Y-54155D02*
X68435Y-53580D01*
X74300Y-52825D02*
X73800Y-52825D01*
X75125Y-53025D02*
X75050Y-53025D01*
X75550Y-53450D02*
X75125Y-53025D01*
X74550Y-53450D02*
X75050Y-53450D01*
X73575Y-53450D02*
X74075Y-53450D01*
X73550Y-53425D02*
X73575Y-53450D01*
X72650Y-53425D02*
X73050Y-53425D01*
X72550Y-53525D02*
X72650Y-53425D01*
X71550Y-53525D02*
X72050Y-53525D01*
X70900Y-53525D02*
X71050Y-53525D01*
X70700Y-53325D02*
X70900Y-53525D01*
X71225Y-52900D02*
X70900Y-52900D01*
X71300Y-52825D02*
X71225Y-52900D01*
X72275Y-52825D02*
X71800Y-52825D01*
X72300Y-52850D02*
X72275Y-52825D01*
X73225Y-52900D02*
X72800Y-52900D01*
X73300Y-52825D02*
X73225Y-52900D01*
X74300Y-51850D02*
X74300Y-51825D01*
X75700Y-51475D02*
X75200Y-51475D01*
X76700Y-51475D02*
X76200Y-51475D01*
X75700Y-50975D02*
X76200Y-50975D01*
X74700Y-50975D02*
X75200Y-50975D01*
X73700Y-50975D02*
X74200Y-50975D01*
X72550Y-50975D02*
X73200Y-50975D01*
X73450Y-51475D02*
X72950Y-51475D01*
X74300Y-51825D02*
X73950Y-51475D01*
X74300Y-51850D02*
X74300Y-52075D01*
X77200Y-52725D02*
X77200Y-53225D01*
X77775Y-52475D02*
X77275Y-51975D01*
X77775Y-53475D02*
X77775Y-52975D01*
X77300Y-53975D02*
X77625Y-53975D01*
X77050Y-54225D02*
X77300Y-53975D01*
X76625Y-53475D02*
X76625Y-53975D01*
X76625Y-52475D02*
X76625Y-52975D01*
X76050Y-51975D02*
X76625Y-51975D01*
X75325Y-52075D02*
X75575Y-52325D01*
X75050Y-52075D02*
X75325Y-52075D01*
X67550Y-51850D02*
X67250Y-51550D01*
X67550Y-52075D02*
X68050Y-52075D01*
X68050Y-51400D02*
X67550Y-51400D01*
X69050Y-51400D02*
X68550Y-51400D01*
X70050Y-51400D02*
X69550Y-51400D01*
X71050Y-51400D02*
X70550Y-51400D01*
X71300Y-51150D02*
X71550Y-51400D01*
X71300Y-50950D02*
X71300Y-51150D01*
X70300Y-50950D02*
X70800Y-50950D01*
X69300Y-50950D02*
X69800Y-50950D01*
X68300Y-50950D02*
X68800Y-50950D01*
X67775Y-50975D02*
X67800Y-50950D01*
X67300Y-50975D02*
X67775Y-50975D01*
X67250Y-51550D02*
X67250Y-51400D01*
X73950Y-49900D02*
X73450Y-49900D01*
X74950Y-49900D02*
X74450Y-49900D01*
X75950Y-49900D02*
X75450Y-49900D01*
X77200Y-49900D02*
X76450Y-49900D01*
X78200Y-50650D02*
X77700Y-50150D01*
X78950Y-51400D02*
X78700Y-51150D01*
X79450Y-51400D02*
X78950Y-51400D01*
X79950Y-51650D02*
X79950Y-50400D01*
X79950Y-52150D02*
X79950Y-51650D01*
X63450Y-51900D02*
X63450Y-52400D01*
X62450Y-51900D02*
X62950Y-51900D01*
X61700Y-51900D02*
X61950Y-51900D01*
X61450Y-51650D02*
X61700Y-51900D01*
X62700Y-51400D02*
X62200Y-51400D01*
X63200Y-50900D02*
X62700Y-51400D01*
X64200Y-49400D02*
X63700Y-49900D01*
X64200Y-48900D02*
X64200Y-49400D01*
X65700Y-48900D02*
X64700Y-48900D01*
X67700Y-48900D02*
X66700Y-48900D01*
X69700Y-48900D02*
X68700Y-48900D01*
X71700Y-48900D02*
X70700Y-48900D01*
X73700Y-48900D02*
X72700Y-48900D01*
X75700Y-48900D02*
X74700Y-48900D01*
X77700Y-48900D02*
X76700Y-48900D01*
X79700Y-48900D02*
X78700Y-48900D01*
X79700Y-49650D02*
X79700Y-49400D01*
X79950Y-49900D02*
X79700Y-49650D01*
X73225Y-50225D02*
X72725Y-50225D01*
X74225Y-50225D02*
X73725Y-50225D01*
X75225Y-50225D02*
X74725Y-50225D01*
X76225Y-50225D02*
X75725Y-50225D01*
X77225Y-50725D02*
X76725Y-50225D01*
X80564Y-54690D02*
X79990Y-54690D01*
X78225Y-51650D02*
X77725Y-51150D01*
X79225Y-51900D02*
X78725Y-51900D01*
X79475Y-52150D02*
X79225Y-51900D01*
X79950Y-53150D02*
X79950Y-52650D01*
X79950Y-54150D02*
X79950Y-53650D01*
X79990Y-54690D02*
X79950Y-54650D01*
X66050Y-51850D02*
X66050Y-51725D01*
X70800Y-50225D02*
X71300Y-50225D01*
X69800Y-50225D02*
X70300Y-50225D01*
X68800Y-50225D02*
X69300Y-50225D01*
X67800Y-50225D02*
X68300Y-50225D01*
X66800Y-50225D02*
X67300Y-50225D01*
X66300Y-50975D02*
X66300Y-50475D01*
X66050Y-51725D02*
X66300Y-51475D01*
G54D32*
X90278Y-55259D02*
X90528Y-55509D01*
X90528Y-55509D02*
X91130Y-55509D01*
G54D30*
X93478Y-55000D02*
X92825Y-55000D01*
X92825Y-55000D02*
X91639Y-55000D01*
G54D32*
X91639Y-55000D02*
X91130Y-55509D01*
X90278Y-52559D02*
X90519Y-52800D01*
X90519Y-52800D02*
X91228Y-52800D01*
G54D33*
X93478Y-52800D02*
X92173Y-52800D01*
G54D31*
X74300Y-51850D02*
X75050Y-51850D01*
X66800Y-51850D02*
X66800Y-51200D01*
X72170Y-54150D02*
X72420Y-53900D01*
X72420Y-53900D02*
X73000Y-53900D01*
X70100Y-53900D02*
X73000Y-53900D01*
G54D32*
X71750Y-55950D02*
X71000Y-55950D01*
X70100Y-54900D02*
X70400Y-54900D01*
X70400Y-54900D02*
X71000Y-55500D01*
X71000Y-55500D02*
X71000Y-55950D01*
X71750Y-55950D02*
X71750Y-55570D01*
X71750Y-55570D02*
X72170Y-55150D01*
G54D33*
X71029Y-54650D02*
X71529Y-55150D01*
X71529Y-55150D02*
X72170Y-55150D01*
G54D32*
X70100Y-54900D02*
X70779Y-54900D01*
G54D31*
X70779Y-54900D02*
X71029Y-54650D01*
X70779Y-54900D02*
X71029Y-54650D01*
G54D35*
X62100Y-54400D02*
X63950Y-54400D01*
G54D33*
X63950Y-54400D02*
X64225Y-54400D01*
G54D31*
X80700Y-55800D02*
X80600Y-55700D01*
X80600Y-54304D02*
X80589Y-54315D01*
X80600Y-54300D02*
X80600Y-54304D01*
X80600Y-55700D02*
X80600Y-55550D01*
X80589Y-54315D02*
X80515Y-54315D01*
X80350Y-54150D02*
X80350Y-49250D01*
X80515Y-54315D02*
X80350Y-54150D01*
X81300Y-55800D02*
X81300Y-56600D01*
X81300Y-55800D02*
X81421Y-55679D01*
X81421Y-55679D02*
X81421Y-55065D01*
X78300Y-52400D02*
X79050Y-52400D01*
X79550Y-54890D02*
X79730Y-55070D01*
X79550Y-52900D02*
X79550Y-54890D01*
X79050Y-52400D02*
X79550Y-52900D01*
X80589Y-55065D02*
X79735Y-55065D01*
X79735Y-55065D02*
X79730Y-55070D01*
X66800Y-50600D02*
X76500Y-50600D01*
X76500Y-50600D02*
X78300Y-52400D01*
X78300Y-54600D02*
X78300Y-53900D01*
X77350Y-54650D02*
X77550Y-54650D01*
X77550Y-54650D02*
X78300Y-53900D01*
X72800Y-51850D02*
X73550Y-51850D01*
G54D33*
X65300Y-54400D02*
X66050Y-54400D01*
X66050Y-54400D02*
X67900Y-54400D01*
G54D31*
X76100Y-54000D02*
X76750Y-54650D01*
X75202Y-53896D02*
X76096Y-53896D01*
X66050Y-53100D02*
X66050Y-52450D01*
X66050Y-53100D02*
X66800Y-53100D01*
X67900Y-53900D02*
X67500Y-53900D01*
X67500Y-53900D02*
X67300Y-53700D01*
X67300Y-53700D02*
X67300Y-53300D01*
X67300Y-53300D02*
X67100Y-53100D01*
X67100Y-53100D02*
X66800Y-53100D01*
X66050Y-52450D02*
X66800Y-52450D01*
X73600Y-53900D02*
X74372Y-53900D01*
G54D10*
G36*
X67584Y-52800D02*
X67575Y-52850D01*
X67575Y-53062D01*
X67535Y-53078D01*
X67529Y-53070D01*
X67529Y-53070D01*
X67329Y-52870D01*
X67224Y-52799D01*
X67153Y-52785D01*
X67152Y-52784D01*
X67130Y-52774D01*
X67152Y-52765D01*
X67174Y-52743D01*
X67197Y-52765D01*
X67280Y-52800D01*
X67369Y-52800D01*
X67584Y-52800D01*
X67584Y-52800D01*
G37*
G54D36*
X67584Y-52800D02*
X67575Y-52850D01*
X67575Y-53062D01*
X67535Y-53078D01*
X67529Y-53070D01*
X67529Y-53070D01*
X67329Y-52870D01*
X67224Y-52799D01*
X67153Y-52785D01*
X67152Y-52784D01*
X67130Y-52774D01*
X67152Y-52765D01*
X67174Y-52743D01*
X67197Y-52765D01*
X67280Y-52800D01*
X67369Y-52800D01*
X67584Y-52800D01*
G54D10*
G36*
X75627Y-53225D02*
X75625Y-53230D01*
X75625Y-53319D01*
X75625Y-53548D01*
X75542Y-53514D01*
X75452Y-53514D01*
X74862Y-53514D01*
X74788Y-53544D01*
X74715Y-53514D01*
X74626Y-53514D01*
X74035Y-53514D01*
X73952Y-53548D01*
X73926Y-53574D01*
X73915Y-53547D01*
X73852Y-53484D01*
X73769Y-53450D01*
X73680Y-53450D01*
X73430Y-53450D01*
X73347Y-53484D01*
X73299Y-53531D01*
X73252Y-53484D01*
X73169Y-53450D01*
X73080Y-53450D01*
X72830Y-53450D01*
X72747Y-53484D01*
X72684Y-53547D01*
X72672Y-53575D01*
X72420Y-53575D01*
X72420Y-53574D01*
X72420Y-53575D01*
X70572Y-53575D01*
X70575Y-53569D01*
X70575Y-53480D01*
X70575Y-53384D01*
X70779Y-53179D01*
X70850Y-53074D01*
X70850Y-53074D01*
X70875Y-52950D01*
X70875Y-52777D01*
X70880Y-52775D01*
X70969Y-52775D01*
X71030Y-52800D01*
X71119Y-52800D01*
X71569Y-52800D01*
X71630Y-52775D01*
X71719Y-52775D01*
X71780Y-52800D01*
X71869Y-52800D01*
X72319Y-52800D01*
X72402Y-52765D01*
X72424Y-52743D01*
X72447Y-52765D01*
X72530Y-52800D01*
X72619Y-52800D01*
X72704Y-52800D01*
X72728Y-52809D01*
X72871Y-52810D01*
X72895Y-52800D01*
X73069Y-52800D01*
X73152Y-52765D01*
X73174Y-52743D01*
X73197Y-52765D01*
X73280Y-52800D01*
X73369Y-52800D01*
X73819Y-52800D01*
X73880Y-52775D01*
X73969Y-52775D01*
X74030Y-52800D01*
X74119Y-52800D01*
X74569Y-52800D01*
X74630Y-52775D01*
X74719Y-52775D01*
X74780Y-52800D01*
X74869Y-52800D01*
X74940Y-52800D01*
X75270Y-53129D01*
X75375Y-53200D01*
X75375Y-53200D01*
X75500Y-53225D01*
X75627Y-53225D01*
X75627Y-53225D01*
G37*
G54D36*
X75627Y-53225D02*
X75625Y-53230D01*
X75625Y-53319D01*
X75625Y-53548D01*
X75542Y-53514D01*
X75452Y-53514D01*
X74862Y-53514D01*
X74788Y-53544D01*
X74715Y-53514D01*
X74626Y-53514D01*
X74035Y-53514D01*
X73952Y-53548D01*
X73926Y-53574D01*
X73915Y-53547D01*
X73852Y-53484D01*
X73769Y-53450D01*
X73680Y-53450D01*
X73430Y-53450D01*
X73347Y-53484D01*
X73299Y-53531D01*
X73252Y-53484D01*
X73169Y-53450D01*
X73080Y-53450D01*
X72830Y-53450D01*
X72747Y-53484D01*
X72684Y-53547D01*
X72672Y-53575D01*
X72420Y-53575D01*
X72420Y-53574D01*
X72420Y-53575D01*
X70572Y-53575D01*
X70575Y-53569D01*
X70575Y-53480D01*
X70575Y-53384D01*
X70779Y-53179D01*
X70850Y-53074D01*
X70850Y-53074D01*
X70875Y-52950D01*
X70875Y-52777D01*
X70880Y-52775D01*
X70969Y-52775D01*
X71030Y-52800D01*
X71119Y-52800D01*
X71569Y-52800D01*
X71630Y-52775D01*
X71719Y-52775D01*
X71780Y-52800D01*
X71869Y-52800D01*
X72319Y-52800D01*
X72402Y-52765D01*
X72424Y-52743D01*
X72447Y-52765D01*
X72530Y-52800D01*
X72619Y-52800D01*
X72704Y-52800D01*
X72728Y-52809D01*
X72871Y-52810D01*
X72895Y-52800D01*
X73069Y-52800D01*
X73152Y-52765D01*
X73174Y-52743D01*
X73197Y-52765D01*
X73280Y-52800D01*
X73369Y-52800D01*
X73819Y-52800D01*
X73880Y-52775D01*
X73969Y-52775D01*
X74030Y-52800D01*
X74119Y-52800D01*
X74569Y-52800D01*
X74630Y-52775D01*
X74719Y-52775D01*
X74780Y-52800D01*
X74869Y-52800D01*
X74940Y-52800D01*
X75270Y-53129D01*
X75375Y-53200D01*
X75375Y-53200D01*
X75500Y-53225D01*
X75627Y-53225D01*
G54D10*
G36*
X93816Y-57346D02*
X92966Y-57515D01*
X92874Y-57553D01*
X91980Y-58150D01*
X91980Y-58150D01*
X91910Y-58220D01*
X91313Y-59114D01*
X91275Y-59206D01*
X91275Y-59206D01*
X91106Y-60056D01*
X81843Y-60056D01*
X81843Y-55227D01*
X81843Y-55138D01*
X81843Y-54902D01*
X81808Y-54819D01*
X81745Y-54756D01*
X81662Y-54722D01*
X81573Y-54722D01*
X81179Y-54722D01*
X81096Y-54756D01*
X81033Y-54819D01*
X81004Y-54887D01*
X80976Y-54819D01*
X80913Y-54756D01*
X80830Y-54722D01*
X80741Y-54722D01*
X80347Y-54722D01*
X80303Y-54740D01*
X80048Y-54740D01*
X79999Y-54720D01*
X79910Y-54720D01*
X79875Y-54720D01*
X79875Y-52900D01*
X79850Y-52775D01*
X79850Y-52775D01*
X79822Y-52733D01*
X79779Y-52670D01*
X79779Y-52670D01*
X79279Y-52170D01*
X79174Y-52099D01*
X79050Y-52075D01*
X78655Y-52075D01*
X78594Y-52050D01*
X78505Y-52050D01*
X78409Y-52050D01*
X76729Y-50370D01*
X76624Y-50299D01*
X76500Y-50275D01*
X67130Y-50275D01*
X67069Y-50250D01*
X66980Y-50250D01*
X66530Y-50250D01*
X66447Y-50284D01*
X66384Y-50347D01*
X66350Y-50430D01*
X66350Y-50519D01*
X66350Y-50769D01*
X66384Y-50852D01*
X66431Y-50900D01*
X66384Y-50947D01*
X66350Y-51030D01*
X66350Y-51119D01*
X66350Y-51369D01*
X66384Y-51452D01*
X66447Y-51515D01*
X66469Y-51525D01*
X66447Y-51534D01*
X66384Y-51597D01*
X66350Y-51680D01*
X66350Y-51769D01*
X66350Y-52019D01*
X66375Y-52080D01*
X66375Y-52122D01*
X66319Y-52100D01*
X66230Y-52100D01*
X65780Y-52100D01*
X65697Y-52134D01*
X65634Y-52197D01*
X65600Y-52280D01*
X65600Y-52369D01*
X65600Y-52619D01*
X65634Y-52702D01*
X65697Y-52765D01*
X65719Y-52775D01*
X65697Y-52784D01*
X65634Y-52847D01*
X65600Y-52930D01*
X65600Y-53019D01*
X65600Y-53269D01*
X65634Y-53352D01*
X65697Y-53415D01*
X65780Y-53450D01*
X65869Y-53450D01*
X66319Y-53450D01*
X66380Y-53425D01*
X66469Y-53425D01*
X66530Y-53450D01*
X66619Y-53450D01*
X66975Y-53450D01*
X66975Y-53700D01*
X66999Y-53824D01*
X67066Y-53925D01*
X66050Y-53925D01*
X65646Y-53925D01*
X65646Y-53833D01*
X65612Y-53750D01*
X65549Y-53687D01*
X65466Y-53653D01*
X65376Y-53653D01*
X64981Y-53653D01*
X64898Y-53687D01*
X64835Y-53750D01*
X64801Y-53833D01*
X64801Y-53923D01*
X64801Y-54966D01*
X64835Y-55049D01*
X64898Y-55112D01*
X64981Y-55146D01*
X65071Y-55146D01*
X65466Y-55146D01*
X65549Y-55112D01*
X65612Y-55049D01*
X65646Y-54966D01*
X65646Y-54876D01*
X65646Y-54875D01*
X66050Y-54875D01*
X67900Y-54875D01*
X68081Y-54838D01*
X68235Y-54735D01*
X68238Y-54731D01*
X68277Y-54715D01*
X68340Y-54652D01*
X68375Y-54569D01*
X68375Y-54480D01*
X68375Y-54400D01*
X68375Y-54230D01*
X68341Y-54150D01*
X68375Y-54069D01*
X68375Y-53980D01*
X68375Y-53730D01*
X68341Y-53650D01*
X68375Y-53569D01*
X68375Y-53480D01*
X68375Y-53230D01*
X68340Y-53147D01*
X68277Y-53084D01*
X68225Y-53062D01*
X68225Y-52984D01*
X68409Y-52800D01*
X68569Y-52800D01*
X68630Y-52775D01*
X68719Y-52775D01*
X68780Y-52800D01*
X68869Y-52800D01*
X69319Y-52800D01*
X69402Y-52765D01*
X69424Y-52743D01*
X69447Y-52765D01*
X69530Y-52800D01*
X69619Y-52800D01*
X69704Y-52800D01*
X69728Y-52809D01*
X69871Y-52810D01*
X69895Y-52800D01*
X70069Y-52800D01*
X70152Y-52765D01*
X70174Y-52743D01*
X70197Y-52765D01*
X70225Y-52777D01*
X70225Y-52815D01*
X69990Y-53050D01*
X69805Y-53050D01*
X69722Y-53084D01*
X69659Y-53147D01*
X69625Y-53230D01*
X69625Y-53319D01*
X69625Y-53569D01*
X69658Y-53649D01*
X69625Y-53730D01*
X69625Y-53819D01*
X69625Y-54069D01*
X69658Y-54149D01*
X69625Y-54230D01*
X69625Y-54319D01*
X69625Y-54569D01*
X69658Y-54649D01*
X69625Y-54730D01*
X69625Y-54819D01*
X69625Y-55069D01*
X69659Y-55152D01*
X69722Y-55215D01*
X69788Y-55243D01*
X69784Y-55247D01*
X69750Y-55330D01*
X69750Y-55373D01*
X69707Y-55437D01*
X69675Y-55600D01*
X69675Y-56400D01*
X69675Y-56869D01*
X69650Y-56930D01*
X69650Y-57019D01*
X69650Y-57269D01*
X69684Y-57352D01*
X69731Y-57400D01*
X69684Y-57447D01*
X69650Y-57530D01*
X69650Y-57619D01*
X69650Y-57869D01*
X69675Y-57930D01*
X69675Y-58950D01*
X69707Y-59112D01*
X69799Y-59250D01*
X70249Y-59700D01*
X70387Y-59792D01*
X70550Y-59825D01*
X70712Y-59792D01*
X70850Y-59700D01*
X70942Y-59562D01*
X70975Y-59400D01*
X70942Y-59237D01*
X70850Y-59099D01*
X70525Y-58773D01*
X70525Y-57930D01*
X70550Y-57869D01*
X70550Y-57780D01*
X70550Y-57530D01*
X70515Y-57447D01*
X70468Y-57399D01*
X70515Y-57352D01*
X70550Y-57269D01*
X70550Y-57180D01*
X70550Y-56930D01*
X70525Y-56869D01*
X70525Y-56400D01*
X70525Y-55600D01*
X70513Y-55544D01*
X70625Y-55655D01*
X70625Y-55656D01*
X70584Y-55697D01*
X70550Y-55780D01*
X70550Y-55869D01*
X70550Y-56119D01*
X70584Y-56202D01*
X70647Y-56265D01*
X70730Y-56300D01*
X70819Y-56300D01*
X70874Y-56300D01*
X71000Y-56325D01*
X71750Y-56325D01*
X71875Y-56300D01*
X72019Y-56300D01*
X72102Y-56265D01*
X72165Y-56202D01*
X72200Y-56119D01*
X72200Y-56030D01*
X72200Y-55780D01*
X72165Y-55697D01*
X72159Y-55691D01*
X72220Y-55630D01*
X72530Y-55630D01*
X72613Y-55596D01*
X72676Y-55533D01*
X72710Y-55450D01*
X72710Y-55361D01*
X72710Y-54849D01*
X72676Y-54766D01*
X72613Y-54703D01*
X72530Y-54669D01*
X72441Y-54669D01*
X71811Y-54669D01*
X71796Y-54675D01*
X71725Y-54675D01*
X71569Y-54518D01*
X71569Y-54225D01*
X71630Y-54225D01*
X71630Y-54450D01*
X71665Y-54533D01*
X71728Y-54596D01*
X71811Y-54630D01*
X71900Y-54630D01*
X72530Y-54630D01*
X72613Y-54596D01*
X72676Y-54533D01*
X72710Y-54450D01*
X72710Y-54361D01*
X72710Y-54279D01*
X72747Y-54315D01*
X72830Y-54350D01*
X72919Y-54350D01*
X73169Y-54350D01*
X73252Y-54315D01*
X73300Y-54268D01*
X73347Y-54315D01*
X73430Y-54350D01*
X73519Y-54350D01*
X73769Y-54350D01*
X73852Y-54315D01*
X73915Y-54252D01*
X73927Y-54225D01*
X73932Y-54225D01*
X73952Y-54245D01*
X74035Y-54279D01*
X74125Y-54279D01*
X74715Y-54279D01*
X74788Y-54248D01*
X74862Y-54279D01*
X74951Y-54279D01*
X75542Y-54279D01*
X75625Y-54245D01*
X75648Y-54221D01*
X75737Y-54221D01*
X75805Y-54250D01*
X75890Y-54250D01*
X76400Y-54759D01*
X76400Y-54919D01*
X76434Y-55002D01*
X76497Y-55065D01*
X76580Y-55100D01*
X76669Y-55100D01*
X76919Y-55100D01*
X77002Y-55065D01*
X77050Y-55018D01*
X77097Y-55065D01*
X77180Y-55100D01*
X77269Y-55100D01*
X77519Y-55100D01*
X77602Y-55065D01*
X77665Y-55002D01*
X77692Y-54938D01*
X77779Y-54879D01*
X77861Y-54797D01*
X77884Y-54852D01*
X77947Y-54915D01*
X78030Y-54950D01*
X78119Y-54950D01*
X78569Y-54950D01*
X78652Y-54915D01*
X78715Y-54852D01*
X78750Y-54769D01*
X78750Y-54680D01*
X78750Y-54430D01*
X78715Y-54347D01*
X78652Y-54284D01*
X78625Y-54272D01*
X78625Y-54237D01*
X78677Y-54215D01*
X78740Y-54152D01*
X78775Y-54069D01*
X78775Y-53980D01*
X78775Y-53730D01*
X78740Y-53647D01*
X78677Y-53584D01*
X78594Y-53550D01*
X78505Y-53550D01*
X78005Y-53550D01*
X77922Y-53584D01*
X77859Y-53647D01*
X77825Y-53730D01*
X77825Y-53819D01*
X77825Y-53915D01*
X77534Y-54206D01*
X77519Y-54200D01*
X77430Y-54200D01*
X77180Y-54200D01*
X77097Y-54234D01*
X77049Y-54281D01*
X77002Y-54234D01*
X76919Y-54200D01*
X76830Y-54200D01*
X76759Y-54200D01*
X76575Y-54015D01*
X76575Y-53980D01*
X76575Y-53730D01*
X76541Y-53650D01*
X76575Y-53569D01*
X76575Y-53480D01*
X76575Y-53230D01*
X76541Y-53150D01*
X76575Y-53069D01*
X76575Y-52980D01*
X76575Y-52730D01*
X76541Y-52650D01*
X76575Y-52569D01*
X76575Y-52480D01*
X76575Y-52230D01*
X76540Y-52147D01*
X76477Y-52084D01*
X76394Y-52050D01*
X76305Y-52050D01*
X75805Y-52050D01*
X75722Y-52084D01*
X75659Y-52147D01*
X75625Y-52230D01*
X75625Y-52319D01*
X75625Y-52565D01*
X75500Y-52440D01*
X75500Y-52280D01*
X75465Y-52197D01*
X75402Y-52134D01*
X75319Y-52100D01*
X75230Y-52100D01*
X74780Y-52100D01*
X74719Y-52125D01*
X74630Y-52125D01*
X74569Y-52100D01*
X74480Y-52100D01*
X74225Y-52100D01*
X74225Y-51875D01*
X74000Y-51875D01*
X74000Y-51680D01*
X73965Y-51597D01*
X73902Y-51534D01*
X73819Y-51500D01*
X73730Y-51500D01*
X73280Y-51500D01*
X73219Y-51525D01*
X73130Y-51525D01*
X73069Y-51500D01*
X72980Y-51500D01*
X72530Y-51500D01*
X72447Y-51534D01*
X72425Y-51556D01*
X72402Y-51534D01*
X72319Y-51500D01*
X72230Y-51500D01*
X72145Y-51500D01*
X72121Y-51490D01*
X71978Y-51489D01*
X71954Y-51500D01*
X71780Y-51500D01*
X71697Y-51534D01*
X71634Y-51597D01*
X71600Y-51680D01*
X71600Y-51769D01*
X71600Y-51875D01*
X71475Y-51875D01*
X71475Y-52100D01*
X71030Y-52100D01*
X70969Y-52125D01*
X70880Y-52125D01*
X70819Y-52100D01*
X70730Y-52100D01*
X70280Y-52100D01*
X70225Y-52122D01*
X70225Y-52080D01*
X70250Y-52019D01*
X70250Y-51930D01*
X70250Y-51680D01*
X70215Y-51597D01*
X70152Y-51534D01*
X70069Y-51500D01*
X69980Y-51500D01*
X69895Y-51500D01*
X69871Y-51490D01*
X69728Y-51489D01*
X69704Y-51500D01*
X69530Y-51500D01*
X69447Y-51534D01*
X69425Y-51556D01*
X69402Y-51534D01*
X69319Y-51500D01*
X69230Y-51500D01*
X69145Y-51500D01*
X69121Y-51490D01*
X68978Y-51489D01*
X68954Y-51500D01*
X68780Y-51500D01*
X68697Y-51534D01*
X68634Y-51597D01*
X68600Y-51680D01*
X68600Y-51769D01*
X68600Y-52019D01*
X68634Y-52102D01*
X68656Y-52125D01*
X68630Y-52125D01*
X68569Y-52100D01*
X68480Y-52100D01*
X68030Y-52100D01*
X67969Y-52125D01*
X67880Y-52125D01*
X67819Y-52100D01*
X67730Y-52100D01*
X67280Y-52100D01*
X67225Y-52122D01*
X67225Y-52080D01*
X67250Y-52019D01*
X67250Y-51930D01*
X67250Y-51680D01*
X67215Y-51597D01*
X67152Y-51534D01*
X67130Y-51524D01*
X67152Y-51515D01*
X67215Y-51452D01*
X67250Y-51369D01*
X67250Y-51280D01*
X67250Y-51030D01*
X67215Y-50947D01*
X67193Y-50925D01*
X76365Y-50925D01*
X77825Y-52384D01*
X77825Y-52569D01*
X77858Y-52649D01*
X77825Y-52730D01*
X77825Y-52819D01*
X77825Y-53069D01*
X77859Y-53152D01*
X77922Y-53215D01*
X78005Y-53250D01*
X78094Y-53250D01*
X78594Y-53250D01*
X78677Y-53215D01*
X78740Y-53152D01*
X78775Y-53069D01*
X78775Y-52980D01*
X78775Y-52730D01*
X78772Y-52725D01*
X78915Y-52725D01*
X79225Y-53034D01*
X79225Y-54890D01*
X79249Y-55014D01*
X79280Y-55059D01*
X79280Y-55239D01*
X79314Y-55322D01*
X79377Y-55385D01*
X79460Y-55420D01*
X79549Y-55420D01*
X79999Y-55420D01*
X80072Y-55390D01*
X80276Y-55390D01*
X80240Y-55478D01*
X80239Y-55621D01*
X80277Y-55711D01*
X80299Y-55824D01*
X80350Y-55899D01*
X80350Y-56069D01*
X80384Y-56152D01*
X80447Y-56215D01*
X80530Y-56250D01*
X80619Y-56250D01*
X80869Y-56250D01*
X80952Y-56215D01*
X80975Y-56193D01*
X80975Y-56269D01*
X80950Y-56330D01*
X80950Y-56419D01*
X80950Y-56869D01*
X80984Y-56952D01*
X81047Y-57015D01*
X81130Y-57050D01*
X81219Y-57050D01*
X81469Y-57050D01*
X81552Y-57015D01*
X81615Y-56952D01*
X81650Y-56869D01*
X81650Y-56780D01*
X81650Y-56330D01*
X81625Y-56269D01*
X81625Y-56130D01*
X81650Y-56069D01*
X81650Y-55980D01*
X81650Y-55909D01*
X81650Y-55908D01*
X81650Y-55908D01*
X81650Y-55908D01*
X81721Y-55803D01*
X81721Y-55803D01*
X81746Y-55679D01*
X81746Y-55373D01*
X81808Y-55310D01*
X81843Y-55227D01*
X81843Y-60056D01*
X75722Y-60056D01*
X75722Y-55201D01*
X75722Y-55111D01*
X75722Y-54796D01*
X75688Y-54714D01*
X75625Y-54650D01*
X75542Y-54616D01*
X75452Y-54616D01*
X74862Y-54616D01*
X74788Y-54647D01*
X74715Y-54616D01*
X74626Y-54616D01*
X74035Y-54616D01*
X73952Y-54650D01*
X73889Y-54714D01*
X73855Y-54796D01*
X73855Y-54886D01*
X73855Y-55201D01*
X73889Y-55284D01*
X73952Y-55347D01*
X74035Y-55381D01*
X74125Y-55381D01*
X74715Y-55381D01*
X74788Y-55351D01*
X74862Y-55381D01*
X74951Y-55381D01*
X75542Y-55381D01*
X75625Y-55347D01*
X75688Y-55284D01*
X75722Y-55201D01*
X75722Y-60056D01*
X63964Y-60056D01*
X63795Y-59206D01*
X63757Y-59114D01*
X63160Y-58220D01*
X63160Y-58220D01*
X63090Y-58150D01*
X62196Y-57553D01*
X62104Y-57515D01*
X62104Y-57515D01*
X61254Y-57346D01*
X61254Y-55100D01*
X61716Y-55100D01*
X61789Y-55148D01*
X62100Y-55210D01*
X63950Y-55210D01*
X64260Y-55148D01*
X64263Y-55146D01*
X64618Y-55146D01*
X64701Y-55112D01*
X64764Y-55049D01*
X64798Y-54966D01*
X64798Y-54876D01*
X64798Y-53833D01*
X64764Y-53750D01*
X64701Y-53687D01*
X64618Y-53653D01*
X64528Y-53653D01*
X64263Y-53653D01*
X64260Y-53651D01*
X63950Y-53589D01*
X62100Y-53589D01*
X61789Y-53651D01*
X61641Y-53750D01*
X61254Y-53750D01*
X61254Y-51464D01*
X62104Y-51295D01*
X62104Y-51295D01*
X62196Y-51257D01*
X63090Y-50660D01*
X63090Y-50660D01*
X63160Y-50590D01*
X63160Y-50590D01*
X63160Y-50590D01*
X63757Y-49696D01*
X63795Y-49604D01*
X63964Y-48754D01*
X79835Y-48754D01*
X79835Y-49674D01*
X79869Y-49757D01*
X79932Y-49820D01*
X80015Y-49855D01*
X80025Y-49855D01*
X80025Y-54150D01*
X80049Y-54274D01*
X80120Y-54379D01*
X80167Y-54426D01*
X80167Y-54477D01*
X80201Y-54560D01*
X80264Y-54623D01*
X80347Y-54658D01*
X80436Y-54658D01*
X80523Y-54658D01*
X80528Y-54659D01*
X80671Y-54660D01*
X80676Y-54658D01*
X80830Y-54658D01*
X80913Y-54623D01*
X80976Y-54560D01*
X81005Y-54492D01*
X81033Y-54560D01*
X81096Y-54623D01*
X81179Y-54658D01*
X81268Y-54658D01*
X81662Y-54658D01*
X81745Y-54623D01*
X81808Y-54560D01*
X81843Y-54477D01*
X81843Y-54475D01*
X81919Y-54475D01*
X81980Y-54500D01*
X82069Y-54500D01*
X82519Y-54500D01*
X82580Y-54475D01*
X82669Y-54475D01*
X82730Y-54500D01*
X82819Y-54500D01*
X83269Y-54500D01*
X83352Y-54465D01*
X83415Y-54402D01*
X83450Y-54319D01*
X83450Y-54230D01*
X83450Y-53980D01*
X83415Y-53897D01*
X83352Y-53834D01*
X83269Y-53800D01*
X83180Y-53800D01*
X82730Y-53800D01*
X82669Y-53825D01*
X82580Y-53825D01*
X82519Y-53800D01*
X82430Y-53800D01*
X81980Y-53800D01*
X81919Y-53825D01*
X81793Y-53825D01*
X81815Y-53802D01*
X81850Y-53719D01*
X81850Y-53630D01*
X81850Y-53380D01*
X81815Y-53297D01*
X81768Y-53249D01*
X81815Y-53202D01*
X81850Y-53119D01*
X81850Y-53030D01*
X81850Y-52780D01*
X81815Y-52697D01*
X81752Y-52634D01*
X81669Y-52600D01*
X81580Y-52600D01*
X81495Y-52600D01*
X81471Y-52590D01*
X81328Y-52589D01*
X81304Y-52600D01*
X81130Y-52600D01*
X81047Y-52634D01*
X80984Y-52697D01*
X80950Y-52780D01*
X80950Y-52869D01*
X80950Y-53119D01*
X80984Y-53202D01*
X81031Y-53250D01*
X80984Y-53297D01*
X80950Y-53380D01*
X80950Y-53469D01*
X80950Y-53719D01*
X80984Y-53802D01*
X81047Y-53865D01*
X81075Y-53877D01*
X81075Y-54027D01*
X81033Y-54069D01*
X81004Y-54137D01*
X80976Y-54069D01*
X80913Y-54006D01*
X80830Y-53972D01*
X80748Y-53972D01*
X80675Y-53941D01*
X80675Y-49855D01*
X80704Y-49855D01*
X80787Y-49820D01*
X80850Y-49757D01*
X80885Y-49674D01*
X80885Y-49585D01*
X80885Y-48754D01*
X91106Y-48754D01*
X91275Y-49604D01*
X91275Y-49604D01*
X91313Y-49696D01*
X91910Y-50590D01*
X91980Y-50660D01*
X91980Y-50660D01*
X92874Y-51257D01*
X92966Y-51295D01*
X93816Y-51464D01*
X93816Y-53330D01*
X92890Y-53330D01*
X92807Y-53364D01*
X92744Y-53427D01*
X92724Y-53475D01*
X91744Y-53475D01*
X91670Y-53400D01*
X91670Y-53208D01*
X91670Y-52391D01*
X91670Y-52302D01*
X91670Y-52026D01*
X91635Y-51943D01*
X91572Y-51880D01*
X91489Y-51846D01*
X91400Y-51846D01*
X91368Y-51846D01*
X91325Y-51802D01*
X91325Y-51500D01*
X91325Y-50700D01*
X91292Y-50537D01*
X91250Y-50473D01*
X91250Y-50430D01*
X91215Y-50347D01*
X91152Y-50284D01*
X91069Y-50250D01*
X90980Y-50250D01*
X90730Y-50250D01*
X90647Y-50284D01*
X90584Y-50347D01*
X90550Y-50430D01*
X90550Y-50473D01*
X90507Y-50537D01*
X90475Y-50700D01*
X90475Y-51500D01*
X90475Y-51979D01*
X90507Y-52141D01*
X90590Y-52265D01*
X90590Y-52391D01*
X90624Y-52474D01*
X90687Y-52537D01*
X90770Y-52572D01*
X90859Y-52572D01*
X90922Y-52572D01*
X90967Y-52601D01*
X91130Y-52634D01*
X91292Y-52601D01*
X91337Y-52572D01*
X91489Y-52572D01*
X91572Y-52537D01*
X91635Y-52474D01*
X91670Y-52391D01*
X91670Y-53208D01*
X91635Y-53125D01*
X91572Y-53062D01*
X91489Y-53028D01*
X91400Y-53028D01*
X91190Y-53028D01*
X91130Y-53016D01*
X90528Y-53016D01*
X90447Y-53032D01*
X89937Y-53032D01*
X89855Y-53066D01*
X89791Y-53129D01*
X89757Y-53212D01*
X89757Y-53301D01*
X89757Y-54069D01*
X89791Y-54152D01*
X89855Y-54215D01*
X89937Y-54250D01*
X90027Y-54250D01*
X90618Y-54250D01*
X90700Y-54215D01*
X90764Y-54152D01*
X90798Y-54069D01*
X90798Y-53980D01*
X90798Y-53766D01*
X90974Y-53766D01*
X91240Y-54031D01*
X91246Y-54062D01*
X91338Y-54200D01*
X91476Y-54292D01*
X91639Y-54325D01*
X92720Y-54325D01*
X92744Y-54382D01*
X92807Y-54445D01*
X92890Y-54480D01*
X92979Y-54480D01*
X93816Y-54480D01*
X93816Y-55530D01*
X92890Y-55530D01*
X92866Y-55539D01*
X92841Y-55515D01*
X92759Y-55481D01*
X92669Y-55481D01*
X91586Y-55481D01*
X91504Y-55515D01*
X91440Y-55579D01*
X91406Y-55661D01*
X91406Y-55725D01*
X91228Y-55725D01*
X90519Y-55725D01*
X90483Y-55732D01*
X89959Y-55732D01*
X89877Y-55766D01*
X89813Y-55829D01*
X89779Y-55912D01*
X89779Y-56001D01*
X89779Y-56769D01*
X89813Y-56852D01*
X89877Y-56915D01*
X89959Y-56950D01*
X90049Y-56950D01*
X90475Y-56950D01*
X90475Y-56985D01*
X90230Y-56985D01*
X90067Y-57017D01*
X89929Y-57109D01*
X89837Y-57247D01*
X89805Y-57410D01*
X89837Y-57572D01*
X89929Y-57710D01*
X90067Y-57802D01*
X90230Y-57835D01*
X90505Y-57835D01*
X90505Y-58210D01*
X90537Y-58372D01*
X90580Y-58436D01*
X90580Y-58479D01*
X90614Y-58562D01*
X90677Y-58625D01*
X90760Y-58660D01*
X90849Y-58660D01*
X91099Y-58660D01*
X91182Y-58625D01*
X91245Y-58562D01*
X91280Y-58479D01*
X91280Y-58436D01*
X91322Y-58372D01*
X91355Y-58210D01*
X91355Y-57535D01*
X91380Y-57410D01*
X91347Y-57247D01*
X91325Y-57213D01*
X91325Y-57097D01*
X91368Y-57054D01*
X91489Y-57054D01*
X91572Y-57019D01*
X91635Y-56956D01*
X91670Y-56873D01*
X91670Y-56784D01*
X91670Y-56718D01*
X91676Y-56718D01*
X92759Y-56718D01*
X92841Y-56684D01*
X92859Y-56667D01*
X92890Y-56680D01*
X92979Y-56680D01*
X93816Y-56680D01*
X93816Y-57346D01*
X93816Y-57346D01*
G37*
G54D36*
X93816Y-57346D02*
X92966Y-57515D01*
X92874Y-57553D01*
X91980Y-58150D01*
X91980Y-58150D01*
X91910Y-58220D01*
X91313Y-59114D01*
X91275Y-59206D01*
X91275Y-59206D01*
X91106Y-60056D01*
X81843Y-60056D01*
X81843Y-55227D01*
X81843Y-55138D01*
X81843Y-54902D01*
X81808Y-54819D01*
X81745Y-54756D01*
X81662Y-54722D01*
X81573Y-54722D01*
X81179Y-54722D01*
X81096Y-54756D01*
X81033Y-54819D01*
X81004Y-54887D01*
X80976Y-54819D01*
X80913Y-54756D01*
X80830Y-54722D01*
X80741Y-54722D01*
X80347Y-54722D01*
X80303Y-54740D01*
X80048Y-54740D01*
X79999Y-54720D01*
X79910Y-54720D01*
X79875Y-54720D01*
X79875Y-52900D01*
X79850Y-52775D01*
X79850Y-52775D01*
X79822Y-52733D01*
X79779Y-52670D01*
X79779Y-52670D01*
X79279Y-52170D01*
X79174Y-52099D01*
X79050Y-52075D01*
X78655Y-52075D01*
X78594Y-52050D01*
X78505Y-52050D01*
X78409Y-52050D01*
X76729Y-50370D01*
X76624Y-50299D01*
X76500Y-50275D01*
X67130Y-50275D01*
X67069Y-50250D01*
X66980Y-50250D01*
X66530Y-50250D01*
X66447Y-50284D01*
X66384Y-50347D01*
X66350Y-50430D01*
X66350Y-50519D01*
X66350Y-50769D01*
X66384Y-50852D01*
X66431Y-50900D01*
X66384Y-50947D01*
X66350Y-51030D01*
X66350Y-51119D01*
X66350Y-51369D01*
X66384Y-51452D01*
X66447Y-51515D01*
X66469Y-51525D01*
X66447Y-51534D01*
X66384Y-51597D01*
X66350Y-51680D01*
X66350Y-51769D01*
X66350Y-52019D01*
X66375Y-52080D01*
X66375Y-52122D01*
X66319Y-52100D01*
X66230Y-52100D01*
X65780Y-52100D01*
X65697Y-52134D01*
X65634Y-52197D01*
X65600Y-52280D01*
X65600Y-52369D01*
X65600Y-52619D01*
X65634Y-52702D01*
X65697Y-52765D01*
X65719Y-52775D01*
X65697Y-52784D01*
X65634Y-52847D01*
X65600Y-52930D01*
X65600Y-53019D01*
X65600Y-53269D01*
X65634Y-53352D01*
X65697Y-53415D01*
X65780Y-53450D01*
X65869Y-53450D01*
X66319Y-53450D01*
X66380Y-53425D01*
X66469Y-53425D01*
X66530Y-53450D01*
X66619Y-53450D01*
X66975Y-53450D01*
X66975Y-53700D01*
X66999Y-53824D01*
X67066Y-53925D01*
X66050Y-53925D01*
X65646Y-53925D01*
X65646Y-53833D01*
X65612Y-53750D01*
X65549Y-53687D01*
X65466Y-53653D01*
X65376Y-53653D01*
X64981Y-53653D01*
X64898Y-53687D01*
X64835Y-53750D01*
X64801Y-53833D01*
X64801Y-53923D01*
X64801Y-54966D01*
X64835Y-55049D01*
X64898Y-55112D01*
X64981Y-55146D01*
X65071Y-55146D01*
X65466Y-55146D01*
X65549Y-55112D01*
X65612Y-55049D01*
X65646Y-54966D01*
X65646Y-54876D01*
X65646Y-54875D01*
X66050Y-54875D01*
X67900Y-54875D01*
X68081Y-54838D01*
X68235Y-54735D01*
X68238Y-54731D01*
X68277Y-54715D01*
X68340Y-54652D01*
X68375Y-54569D01*
X68375Y-54480D01*
X68375Y-54400D01*
X68375Y-54230D01*
X68341Y-54150D01*
X68375Y-54069D01*
X68375Y-53980D01*
X68375Y-53730D01*
X68341Y-53650D01*
X68375Y-53569D01*
X68375Y-53480D01*
X68375Y-53230D01*
X68340Y-53147D01*
X68277Y-53084D01*
X68225Y-53062D01*
X68225Y-52984D01*
X68409Y-52800D01*
X68569Y-52800D01*
X68630Y-52775D01*
X68719Y-52775D01*
X68780Y-52800D01*
X68869Y-52800D01*
X69319Y-52800D01*
X69402Y-52765D01*
X69424Y-52743D01*
X69447Y-52765D01*
X69530Y-52800D01*
X69619Y-52800D01*
X69704Y-52800D01*
X69728Y-52809D01*
X69871Y-52810D01*
X69895Y-52800D01*
X70069Y-52800D01*
X70152Y-52765D01*
X70174Y-52743D01*
X70197Y-52765D01*
X70225Y-52777D01*
X70225Y-52815D01*
X69990Y-53050D01*
X69805Y-53050D01*
X69722Y-53084D01*
X69659Y-53147D01*
X69625Y-53230D01*
X69625Y-53319D01*
X69625Y-53569D01*
X69658Y-53649D01*
X69625Y-53730D01*
X69625Y-53819D01*
X69625Y-54069D01*
X69658Y-54149D01*
X69625Y-54230D01*
X69625Y-54319D01*
X69625Y-54569D01*
X69658Y-54649D01*
X69625Y-54730D01*
X69625Y-54819D01*
X69625Y-55069D01*
X69659Y-55152D01*
X69722Y-55215D01*
X69788Y-55243D01*
X69784Y-55247D01*
X69750Y-55330D01*
X69750Y-55373D01*
X69707Y-55437D01*
X69675Y-55600D01*
X69675Y-56400D01*
X69675Y-56869D01*
X69650Y-56930D01*
X69650Y-57019D01*
X69650Y-57269D01*
X69684Y-57352D01*
X69731Y-57400D01*
X69684Y-57447D01*
X69650Y-57530D01*
X69650Y-57619D01*
X69650Y-57869D01*
X69675Y-57930D01*
X69675Y-58950D01*
X69707Y-59112D01*
X69799Y-59250D01*
X70249Y-59700D01*
X70387Y-59792D01*
X70550Y-59825D01*
X70712Y-59792D01*
X70850Y-59700D01*
X70942Y-59562D01*
X70975Y-59400D01*
X70942Y-59237D01*
X70850Y-59099D01*
X70525Y-58773D01*
X70525Y-57930D01*
X70550Y-57869D01*
X70550Y-57780D01*
X70550Y-57530D01*
X70515Y-57447D01*
X70468Y-57399D01*
X70515Y-57352D01*
X70550Y-57269D01*
X70550Y-57180D01*
X70550Y-56930D01*
X70525Y-56869D01*
X70525Y-56400D01*
X70525Y-55600D01*
X70513Y-55544D01*
X70625Y-55655D01*
X70625Y-55656D01*
X70584Y-55697D01*
X70550Y-55780D01*
X70550Y-55869D01*
X70550Y-56119D01*
X70584Y-56202D01*
X70647Y-56265D01*
X70730Y-56300D01*
X70819Y-56300D01*
X70874Y-56300D01*
X71000Y-56325D01*
X71750Y-56325D01*
X71875Y-56300D01*
X72019Y-56300D01*
X72102Y-56265D01*
X72165Y-56202D01*
X72200Y-56119D01*
X72200Y-56030D01*
X72200Y-55780D01*
X72165Y-55697D01*
X72159Y-55691D01*
X72220Y-55630D01*
X72530Y-55630D01*
X72613Y-55596D01*
X72676Y-55533D01*
X72710Y-55450D01*
X72710Y-55361D01*
X72710Y-54849D01*
X72676Y-54766D01*
X72613Y-54703D01*
X72530Y-54669D01*
X72441Y-54669D01*
X71811Y-54669D01*
X71796Y-54675D01*
X71725Y-54675D01*
X71569Y-54518D01*
X71569Y-54225D01*
X71630Y-54225D01*
X71630Y-54450D01*
X71665Y-54533D01*
X71728Y-54596D01*
X71811Y-54630D01*
X71900Y-54630D01*
X72530Y-54630D01*
X72613Y-54596D01*
X72676Y-54533D01*
X72710Y-54450D01*
X72710Y-54361D01*
X72710Y-54279D01*
X72747Y-54315D01*
X72830Y-54350D01*
X72919Y-54350D01*
X73169Y-54350D01*
X73252Y-54315D01*
X73300Y-54268D01*
X73347Y-54315D01*
X73430Y-54350D01*
X73519Y-54350D01*
X73769Y-54350D01*
X73852Y-54315D01*
X73915Y-54252D01*
X73927Y-54225D01*
X73932Y-54225D01*
X73952Y-54245D01*
X74035Y-54279D01*
X74125Y-54279D01*
X74715Y-54279D01*
X74788Y-54248D01*
X74862Y-54279D01*
X74951Y-54279D01*
X75542Y-54279D01*
X75625Y-54245D01*
X75648Y-54221D01*
X75737Y-54221D01*
X75805Y-54250D01*
X75890Y-54250D01*
X76400Y-54759D01*
X76400Y-54919D01*
X76434Y-55002D01*
X76497Y-55065D01*
X76580Y-55100D01*
X76669Y-55100D01*
X76919Y-55100D01*
X77002Y-55065D01*
X77050Y-55018D01*
X77097Y-55065D01*
X77180Y-55100D01*
X77269Y-55100D01*
X77519Y-55100D01*
X77602Y-55065D01*
X77665Y-55002D01*
X77692Y-54938D01*
X77779Y-54879D01*
X77861Y-54797D01*
X77884Y-54852D01*
X77947Y-54915D01*
X78030Y-54950D01*
X78119Y-54950D01*
X78569Y-54950D01*
X78652Y-54915D01*
X78715Y-54852D01*
X78750Y-54769D01*
X78750Y-54680D01*
X78750Y-54430D01*
X78715Y-54347D01*
X78652Y-54284D01*
X78625Y-54272D01*
X78625Y-54237D01*
X78677Y-54215D01*
X78740Y-54152D01*
X78775Y-54069D01*
X78775Y-53980D01*
X78775Y-53730D01*
X78740Y-53647D01*
X78677Y-53584D01*
X78594Y-53550D01*
X78505Y-53550D01*
X78005Y-53550D01*
X77922Y-53584D01*
X77859Y-53647D01*
X77825Y-53730D01*
X77825Y-53819D01*
X77825Y-53915D01*
X77534Y-54206D01*
X77519Y-54200D01*
X77430Y-54200D01*
X77180Y-54200D01*
X77097Y-54234D01*
X77049Y-54281D01*
X77002Y-54234D01*
X76919Y-54200D01*
X76830Y-54200D01*
X76759Y-54200D01*
X76575Y-54015D01*
X76575Y-53980D01*
X76575Y-53730D01*
X76541Y-53650D01*
X76575Y-53569D01*
X76575Y-53480D01*
X76575Y-53230D01*
X76541Y-53150D01*
X76575Y-53069D01*
X76575Y-52980D01*
X76575Y-52730D01*
X76541Y-52650D01*
X76575Y-52569D01*
X76575Y-52480D01*
X76575Y-52230D01*
X76540Y-52147D01*
X76477Y-52084D01*
X76394Y-52050D01*
X76305Y-52050D01*
X75805Y-52050D01*
X75722Y-52084D01*
X75659Y-52147D01*
X75625Y-52230D01*
X75625Y-52319D01*
X75625Y-52565D01*
X75500Y-52440D01*
X75500Y-52280D01*
X75465Y-52197D01*
X75402Y-52134D01*
X75319Y-52100D01*
X75230Y-52100D01*
X74780Y-52100D01*
X74719Y-52125D01*
X74630Y-52125D01*
X74569Y-52100D01*
X74480Y-52100D01*
X74225Y-52100D01*
X74225Y-51875D01*
X74000Y-51875D01*
X74000Y-51680D01*
X73965Y-51597D01*
X73902Y-51534D01*
X73819Y-51500D01*
X73730Y-51500D01*
X73280Y-51500D01*
X73219Y-51525D01*
X73130Y-51525D01*
X73069Y-51500D01*
X72980Y-51500D01*
X72530Y-51500D01*
X72447Y-51534D01*
X72425Y-51556D01*
X72402Y-51534D01*
X72319Y-51500D01*
X72230Y-51500D01*
X72145Y-51500D01*
X72121Y-51490D01*
X71978Y-51489D01*
X71954Y-51500D01*
X71780Y-51500D01*
X71697Y-51534D01*
X71634Y-51597D01*
X71600Y-51680D01*
X71600Y-51769D01*
X71600Y-51875D01*
X71475Y-51875D01*
X71475Y-52100D01*
X71030Y-52100D01*
X70969Y-52125D01*
X70880Y-52125D01*
X70819Y-52100D01*
X70730Y-52100D01*
X70280Y-52100D01*
X70225Y-52122D01*
X70225Y-52080D01*
X70250Y-52019D01*
X70250Y-51930D01*
X70250Y-51680D01*
X70215Y-51597D01*
X70152Y-51534D01*
X70069Y-51500D01*
X69980Y-51500D01*
X69895Y-51500D01*
X69871Y-51490D01*
X69728Y-51489D01*
X69704Y-51500D01*
X69530Y-51500D01*
X69447Y-51534D01*
X69425Y-51556D01*
X69402Y-51534D01*
X69319Y-51500D01*
X69230Y-51500D01*
X69145Y-51500D01*
X69121Y-51490D01*
X68978Y-51489D01*
X68954Y-51500D01*
X68780Y-51500D01*
X68697Y-51534D01*
X68634Y-51597D01*
X68600Y-51680D01*
X68600Y-51769D01*
X68600Y-52019D01*
X68634Y-52102D01*
X68656Y-52125D01*
X68630Y-52125D01*
X68569Y-52100D01*
X68480Y-52100D01*
X68030Y-52100D01*
X67969Y-52125D01*
X67880Y-52125D01*
X67819Y-52100D01*
X67730Y-52100D01*
X67280Y-52100D01*
X67225Y-52122D01*
X67225Y-52080D01*
X67250Y-52019D01*
X67250Y-51930D01*
X67250Y-51680D01*
X67215Y-51597D01*
X67152Y-51534D01*
X67130Y-51524D01*
X67152Y-51515D01*
X67215Y-51452D01*
X67250Y-51369D01*
X67250Y-51280D01*
X67250Y-51030D01*
X67215Y-50947D01*
X67193Y-50925D01*
X76365Y-50925D01*
X77825Y-52384D01*
X77825Y-52569D01*
X77858Y-52649D01*
X77825Y-52730D01*
X77825Y-52819D01*
X77825Y-53069D01*
X77859Y-53152D01*
X77922Y-53215D01*
X78005Y-53250D01*
X78094Y-53250D01*
X78594Y-53250D01*
X78677Y-53215D01*
X78740Y-53152D01*
X78775Y-53069D01*
X78775Y-52980D01*
X78775Y-52730D01*
X78772Y-52725D01*
X78915Y-52725D01*
X79225Y-53034D01*
X79225Y-54890D01*
X79249Y-55014D01*
X79280Y-55059D01*
X79280Y-55239D01*
X79314Y-55322D01*
X79377Y-55385D01*
X79460Y-55420D01*
X79549Y-55420D01*
X79999Y-55420D01*
X80072Y-55390D01*
X80276Y-55390D01*
X80240Y-55478D01*
X80239Y-55621D01*
X80277Y-55711D01*
X80299Y-55824D01*
X80350Y-55899D01*
X80350Y-56069D01*
X80384Y-56152D01*
X80447Y-56215D01*
X80530Y-56250D01*
X80619Y-56250D01*
X80869Y-56250D01*
X80952Y-56215D01*
X80975Y-56193D01*
X80975Y-56269D01*
X80950Y-56330D01*
X80950Y-56419D01*
X80950Y-56869D01*
X80984Y-56952D01*
X81047Y-57015D01*
X81130Y-57050D01*
X81219Y-57050D01*
X81469Y-57050D01*
X81552Y-57015D01*
X81615Y-56952D01*
X81650Y-56869D01*
X81650Y-56780D01*
X81650Y-56330D01*
X81625Y-56269D01*
X81625Y-56130D01*
X81650Y-56069D01*
X81650Y-55980D01*
X81650Y-55909D01*
X81650Y-55908D01*
X81650Y-55908D01*
X81650Y-55908D01*
X81721Y-55803D01*
X81721Y-55803D01*
X81746Y-55679D01*
X81746Y-55373D01*
X81808Y-55310D01*
X81843Y-55227D01*
X81843Y-60056D01*
X75722Y-60056D01*
X75722Y-55201D01*
X75722Y-55111D01*
X75722Y-54796D01*
X75688Y-54714D01*
X75625Y-54650D01*
X75542Y-54616D01*
X75452Y-54616D01*
X74862Y-54616D01*
X74788Y-54647D01*
X74715Y-54616D01*
X74626Y-54616D01*
X74035Y-54616D01*
X73952Y-54650D01*
X73889Y-54714D01*
X73855Y-54796D01*
X73855Y-54886D01*
X73855Y-55201D01*
X73889Y-55284D01*
X73952Y-55347D01*
X74035Y-55381D01*
X74125Y-55381D01*
X74715Y-55381D01*
X74788Y-55351D01*
X74862Y-55381D01*
X74951Y-55381D01*
X75542Y-55381D01*
X75625Y-55347D01*
X75688Y-55284D01*
X75722Y-55201D01*
X75722Y-60056D01*
X63964Y-60056D01*
X63795Y-59206D01*
X63757Y-59114D01*
X63160Y-58220D01*
X63160Y-58220D01*
X63090Y-58150D01*
X62196Y-57553D01*
X62104Y-57515D01*
X62104Y-57515D01*
X61254Y-57346D01*
X61254Y-55100D01*
X61716Y-55100D01*
X61789Y-55148D01*
X62100Y-55210D01*
X63950Y-55210D01*
X64260Y-55148D01*
X64263Y-55146D01*
X64618Y-55146D01*
X64701Y-55112D01*
X64764Y-55049D01*
X64798Y-54966D01*
X64798Y-54876D01*
X64798Y-53833D01*
X64764Y-53750D01*
X64701Y-53687D01*
X64618Y-53653D01*
X64528Y-53653D01*
X64263Y-53653D01*
X64260Y-53651D01*
X63950Y-53589D01*
X62100Y-53589D01*
X61789Y-53651D01*
X61641Y-53750D01*
X61254Y-53750D01*
X61254Y-51464D01*
X62104Y-51295D01*
X62104Y-51295D01*
X62196Y-51257D01*
X63090Y-50660D01*
X63090Y-50660D01*
X63160Y-50590D01*
X63160Y-50590D01*
X63160Y-50590D01*
X63757Y-49696D01*
X63795Y-49604D01*
X63964Y-48754D01*
X79835Y-48754D01*
X79835Y-49674D01*
X79869Y-49757D01*
X79932Y-49820D01*
X80015Y-49855D01*
X80025Y-49855D01*
X80025Y-54150D01*
X80049Y-54274D01*
X80120Y-54379D01*
X80167Y-54426D01*
X80167Y-54477D01*
X80201Y-54560D01*
X80264Y-54623D01*
X80347Y-54658D01*
X80436Y-54658D01*
X80523Y-54658D01*
X80528Y-54659D01*
X80671Y-54660D01*
X80676Y-54658D01*
X80830Y-54658D01*
X80913Y-54623D01*
X80976Y-54560D01*
X81005Y-54492D01*
X81033Y-54560D01*
X81096Y-54623D01*
X81179Y-54658D01*
X81268Y-54658D01*
X81662Y-54658D01*
X81745Y-54623D01*
X81808Y-54560D01*
X81843Y-54477D01*
X81843Y-54475D01*
X81919Y-54475D01*
X81980Y-54500D01*
X82069Y-54500D01*
X82519Y-54500D01*
X82580Y-54475D01*
X82669Y-54475D01*
X82730Y-54500D01*
X82819Y-54500D01*
X83269Y-54500D01*
X83352Y-54465D01*
X83415Y-54402D01*
X83450Y-54319D01*
X83450Y-54230D01*
X83450Y-53980D01*
X83415Y-53897D01*
X83352Y-53834D01*
X83269Y-53800D01*
X83180Y-53800D01*
X82730Y-53800D01*
X82669Y-53825D01*
X82580Y-53825D01*
X82519Y-53800D01*
X82430Y-53800D01*
X81980Y-53800D01*
X81919Y-53825D01*
X81793Y-53825D01*
X81815Y-53802D01*
X81850Y-53719D01*
X81850Y-53630D01*
X81850Y-53380D01*
X81815Y-53297D01*
X81768Y-53249D01*
X81815Y-53202D01*
X81850Y-53119D01*
X81850Y-53030D01*
X81850Y-52780D01*
X81815Y-52697D01*
X81752Y-52634D01*
X81669Y-52600D01*
X81580Y-52600D01*
X81495Y-52600D01*
X81471Y-52590D01*
X81328Y-52589D01*
X81304Y-52600D01*
X81130Y-52600D01*
X81047Y-52634D01*
X80984Y-52697D01*
X80950Y-52780D01*
X80950Y-52869D01*
X80950Y-53119D01*
X80984Y-53202D01*
X81031Y-53250D01*
X80984Y-53297D01*
X80950Y-53380D01*
X80950Y-53469D01*
X80950Y-53719D01*
X80984Y-53802D01*
X81047Y-53865D01*
X81075Y-53877D01*
X81075Y-54027D01*
X81033Y-54069D01*
X81004Y-54137D01*
X80976Y-54069D01*
X80913Y-54006D01*
X80830Y-53972D01*
X80748Y-53972D01*
X80675Y-53941D01*
X80675Y-49855D01*
X80704Y-49855D01*
X80787Y-49820D01*
X80850Y-49757D01*
X80885Y-49674D01*
X80885Y-49585D01*
X80885Y-48754D01*
X91106Y-48754D01*
X91275Y-49604D01*
X91275Y-49604D01*
X91313Y-49696D01*
X91910Y-50590D01*
X91980Y-50660D01*
X91980Y-50660D01*
X92874Y-51257D01*
X92966Y-51295D01*
X93816Y-51464D01*
X93816Y-53330D01*
X92890Y-53330D01*
X92807Y-53364D01*
X92744Y-53427D01*
X92724Y-53475D01*
X91744Y-53475D01*
X91670Y-53400D01*
X91670Y-53208D01*
X91670Y-52391D01*
X91670Y-52302D01*
X91670Y-52026D01*
X91635Y-51943D01*
X91572Y-51880D01*
X91489Y-51846D01*
X91400Y-51846D01*
X91368Y-51846D01*
X91325Y-51802D01*
X91325Y-51500D01*
X91325Y-50700D01*
X91292Y-50537D01*
X91250Y-50473D01*
X91250Y-50430D01*
X91215Y-50347D01*
X91152Y-50284D01*
X91069Y-50250D01*
X90980Y-50250D01*
X90730Y-50250D01*
X90647Y-50284D01*
X90584Y-50347D01*
X90550Y-50430D01*
X90550Y-50473D01*
X90507Y-50537D01*
X90475Y-50700D01*
X90475Y-51500D01*
X90475Y-51979D01*
X90507Y-52141D01*
X90590Y-52265D01*
X90590Y-52391D01*
X90624Y-52474D01*
X90687Y-52537D01*
X90770Y-52572D01*
X90859Y-52572D01*
X90922Y-52572D01*
X90967Y-52601D01*
X91130Y-52634D01*
X91292Y-52601D01*
X91337Y-52572D01*
X91489Y-52572D01*
X91572Y-52537D01*
X91635Y-52474D01*
X91670Y-52391D01*
X91670Y-53208D01*
X91635Y-53125D01*
X91572Y-53062D01*
X91489Y-53028D01*
X91400Y-53028D01*
X91190Y-53028D01*
X91130Y-53016D01*
X90528Y-53016D01*
X90447Y-53032D01*
X89937Y-53032D01*
X89855Y-53066D01*
X89791Y-53129D01*
X89757Y-53212D01*
X89757Y-53301D01*
X89757Y-54069D01*
X89791Y-54152D01*
X89855Y-54215D01*
X89937Y-54250D01*
X90027Y-54250D01*
X90618Y-54250D01*
X90700Y-54215D01*
X90764Y-54152D01*
X90798Y-54069D01*
X90798Y-53980D01*
X90798Y-53766D01*
X90974Y-53766D01*
X91240Y-54031D01*
X91246Y-54062D01*
X91338Y-54200D01*
X91476Y-54292D01*
X91639Y-54325D01*
X92720Y-54325D01*
X92744Y-54382D01*
X92807Y-54445D01*
X92890Y-54480D01*
X92979Y-54480D01*
X93816Y-54480D01*
X93816Y-55530D01*
X92890Y-55530D01*
X92866Y-55539D01*
X92841Y-55515D01*
X92759Y-55481D01*
X92669Y-55481D01*
X91586Y-55481D01*
X91504Y-55515D01*
X91440Y-55579D01*
X91406Y-55661D01*
X91406Y-55725D01*
X91228Y-55725D01*
X90519Y-55725D01*
X90483Y-55732D01*
X89959Y-55732D01*
X89877Y-55766D01*
X89813Y-55829D01*
X89779Y-55912D01*
X89779Y-56001D01*
X89779Y-56769D01*
X89813Y-56852D01*
X89877Y-56915D01*
X89959Y-56950D01*
X90049Y-56950D01*
X90475Y-56950D01*
X90475Y-56985D01*
X90230Y-56985D01*
X90067Y-57017D01*
X89929Y-57109D01*
X89837Y-57247D01*
X89805Y-57410D01*
X89837Y-57572D01*
X89929Y-57710D01*
X90067Y-57802D01*
X90230Y-57835D01*
X90505Y-57835D01*
X90505Y-58210D01*
X90537Y-58372D01*
X90580Y-58436D01*
X90580Y-58479D01*
X90614Y-58562D01*
X90677Y-58625D01*
X90760Y-58660D01*
X90849Y-58660D01*
X91099Y-58660D01*
X91182Y-58625D01*
X91245Y-58562D01*
X91280Y-58479D01*
X91280Y-58436D01*
X91322Y-58372D01*
X91355Y-58210D01*
X91355Y-57535D01*
X91380Y-57410D01*
X91347Y-57247D01*
X91325Y-57213D01*
X91325Y-57097D01*
X91368Y-57054D01*
X91489Y-57054D01*
X91572Y-57019D01*
X91635Y-56956D01*
X91670Y-56873D01*
X91670Y-56784D01*
X91670Y-56718D01*
X91676Y-56718D01*
X92759Y-56718D01*
X92841Y-56684D01*
X92859Y-56667D01*
X92890Y-56680D01*
X92979Y-56680D01*
X93816Y-56680D01*
X93816Y-57346D01*
M02*
