G04 (created by PCBNEW (2013-09-28 BZR 4356)-product) date 10/22/2013 9:10:19 PM*
%MOIN*%
G04 Gerber Fmt 3.4, Leading zero omitted, Abs format*
%FSLAX34Y34*%
G01*
G70*
G90*
G04 APERTURE LIST*
%ADD10C,0.005906*%
%ADD11C,0.006250*%
%ADD12C,0.005000*%
%ADD13C,0.004700*%
%ADD14C,0.006000*%
%ADD15C,0.003937*%
%ADD16C,0.000394*%
%ADD17C,0.004500*%
%ADD18C,0.007900*%
%ADD19C,0.005900*%
%ADD20C,0.003900*%
%ADD21R,0.200000X0.095000*%
%ADD22R,0.200000X0.090000*%
%ADD23R,0.045000X0.025000*%
%ADD24R,0.025000X0.045000*%
%ADD25R,0.100000X0.070000*%
%ADD26R,0.060000X0.100000*%
%ADD27R,0.063000X0.027600*%
%ADD28R,0.082700X0.027600*%
%ADD29R,0.108300X0.078700*%
%ADD30R,0.059100X0.076800*%
%ADD31R,0.050000X0.025000*%
%ADD32R,0.062992X0.051181*%
%ADD33R,0.062992X0.078740*%
%ADD34R,0.039528X0.104331*%
%ADD35R,0.039400X0.023600*%
%ADD36R,0.059055X0.031496*%
%ADD37R,0.070000X0.100000*%
%ADD38C,0.100000*%
G04 APERTURE END LIST*
G54D10*
G54D11*
X64906Y-58981D02*
X65025Y-59481D01*
X65120Y-59124D01*
X65215Y-59481D01*
X65335Y-58981D01*
X65739Y-59481D02*
X65739Y-59219D01*
X65715Y-59171D01*
X65668Y-59147D01*
X65573Y-59147D01*
X65525Y-59171D01*
X65739Y-59457D02*
X65692Y-59481D01*
X65573Y-59481D01*
X65525Y-59457D01*
X65501Y-59409D01*
X65501Y-59362D01*
X65525Y-59314D01*
X65573Y-59290D01*
X65692Y-59290D01*
X65739Y-59266D01*
X65906Y-59147D02*
X66096Y-59147D01*
X65977Y-58981D02*
X65977Y-59409D01*
X66001Y-59457D01*
X66049Y-59481D01*
X66096Y-59481D01*
X66239Y-59457D02*
X66287Y-59481D01*
X66382Y-59481D01*
X66430Y-59457D01*
X66454Y-59409D01*
X66454Y-59385D01*
X66430Y-59338D01*
X66382Y-59314D01*
X66311Y-59314D01*
X66263Y-59290D01*
X66239Y-59243D01*
X66239Y-59219D01*
X66263Y-59171D01*
X66311Y-59147D01*
X66382Y-59147D01*
X66430Y-59171D01*
X66739Y-59481D02*
X66692Y-59457D01*
X66668Y-59433D01*
X66644Y-59385D01*
X66644Y-59243D01*
X66668Y-59195D01*
X66692Y-59171D01*
X66739Y-59147D01*
X66811Y-59147D01*
X66858Y-59171D01*
X66882Y-59195D01*
X66906Y-59243D01*
X66906Y-59385D01*
X66882Y-59433D01*
X66858Y-59457D01*
X66811Y-59481D01*
X66739Y-59481D01*
X67120Y-59147D02*
X67120Y-59481D01*
X67120Y-59195D02*
X67144Y-59171D01*
X67192Y-59147D01*
X67263Y-59147D01*
X67311Y-59171D01*
X67335Y-59219D01*
X67335Y-59481D01*
X68215Y-59481D02*
X67930Y-59481D01*
X68073Y-59481D02*
X68073Y-58981D01*
X68025Y-59052D01*
X67977Y-59100D01*
X67930Y-59124D01*
X68525Y-58981D02*
X68573Y-58981D01*
X68620Y-59005D01*
X68644Y-59028D01*
X68668Y-59076D01*
X68692Y-59171D01*
X68692Y-59290D01*
X68668Y-59385D01*
X68644Y-59433D01*
X68620Y-59457D01*
X68573Y-59481D01*
X68525Y-59481D01*
X68477Y-59457D01*
X68454Y-59433D01*
X68430Y-59385D01*
X68406Y-59290D01*
X68406Y-59171D01*
X68430Y-59076D01*
X68454Y-59028D01*
X68477Y-59005D01*
X68525Y-58981D01*
X69668Y-59290D02*
X70049Y-59290D01*
X71049Y-59147D02*
X71049Y-59647D01*
X71049Y-59171D02*
X71096Y-59147D01*
X71192Y-59147D01*
X71239Y-59171D01*
X71263Y-59195D01*
X71287Y-59243D01*
X71287Y-59385D01*
X71263Y-59433D01*
X71239Y-59457D01*
X71192Y-59481D01*
X71096Y-59481D01*
X71049Y-59457D01*
X71715Y-59481D02*
X71715Y-59219D01*
X71692Y-59171D01*
X71644Y-59147D01*
X71549Y-59147D01*
X71501Y-59171D01*
X71715Y-59457D02*
X71668Y-59481D01*
X71549Y-59481D01*
X71501Y-59457D01*
X71477Y-59409D01*
X71477Y-59362D01*
X71501Y-59314D01*
X71549Y-59290D01*
X71668Y-59290D01*
X71715Y-59266D01*
X71954Y-59481D02*
X71954Y-59147D01*
X71954Y-59243D02*
X71977Y-59195D01*
X72001Y-59171D01*
X72049Y-59147D01*
X72096Y-59147D01*
X72454Y-59457D02*
X72406Y-59481D01*
X72311Y-59481D01*
X72263Y-59457D01*
X72239Y-59409D01*
X72239Y-59219D01*
X72263Y-59171D01*
X72311Y-59147D01*
X72406Y-59147D01*
X72454Y-59171D01*
X72477Y-59219D01*
X72477Y-59266D01*
X72239Y-59314D01*
X72620Y-59147D02*
X72811Y-59147D01*
X72692Y-58981D02*
X72692Y-59409D01*
X72715Y-59457D01*
X72763Y-59481D01*
X72811Y-59481D01*
X73168Y-59457D02*
X73120Y-59481D01*
X73025Y-59481D01*
X72977Y-59457D01*
X72954Y-59409D01*
X72954Y-59219D01*
X72977Y-59171D01*
X73025Y-59147D01*
X73120Y-59147D01*
X73168Y-59171D01*
X73192Y-59219D01*
X73192Y-59266D01*
X72954Y-59314D01*
X73620Y-59457D02*
X73573Y-59481D01*
X73477Y-59481D01*
X73430Y-59457D01*
X73406Y-59433D01*
X73382Y-59385D01*
X73382Y-59243D01*
X73406Y-59195D01*
X73430Y-59171D01*
X73477Y-59147D01*
X73573Y-59147D01*
X73620Y-59171D01*
X73835Y-59481D02*
X73835Y-58981D01*
X74049Y-59481D02*
X74049Y-59219D01*
X74025Y-59171D01*
X73977Y-59147D01*
X73906Y-59147D01*
X73858Y-59171D01*
X73835Y-59195D01*
X74596Y-59243D02*
X74573Y-59219D01*
X74525Y-59195D01*
X74477Y-59195D01*
X74430Y-59219D01*
X74406Y-59243D01*
X74382Y-59290D01*
X74382Y-59338D01*
X74406Y-59385D01*
X74430Y-59409D01*
X74477Y-59433D01*
X74525Y-59433D01*
X74573Y-59409D01*
X74596Y-59385D01*
X74596Y-59195D02*
X74596Y-59385D01*
X74620Y-59409D01*
X74644Y-59409D01*
X74692Y-59385D01*
X74715Y-59338D01*
X74715Y-59219D01*
X74668Y-59147D01*
X74596Y-59100D01*
X74501Y-59076D01*
X74406Y-59100D01*
X74335Y-59147D01*
X74287Y-59219D01*
X74263Y-59314D01*
X74287Y-59409D01*
X74335Y-59481D01*
X74406Y-59528D01*
X74501Y-59552D01*
X74596Y-59528D01*
X74668Y-59481D01*
X75144Y-59147D02*
X75144Y-59552D01*
X75120Y-59600D01*
X75096Y-59624D01*
X75049Y-59647D01*
X74977Y-59647D01*
X74930Y-59624D01*
X75144Y-59457D02*
X75096Y-59481D01*
X75001Y-59481D01*
X74954Y-59457D01*
X74930Y-59433D01*
X74906Y-59385D01*
X74906Y-59243D01*
X74930Y-59195D01*
X74954Y-59171D01*
X75001Y-59147D01*
X75096Y-59147D01*
X75144Y-59171D01*
X75382Y-59481D02*
X75382Y-59147D01*
X75382Y-59195D02*
X75406Y-59171D01*
X75454Y-59147D01*
X75525Y-59147D01*
X75573Y-59171D01*
X75596Y-59219D01*
X75596Y-59481D01*
X75596Y-59219D02*
X75620Y-59171D01*
X75668Y-59147D01*
X75739Y-59147D01*
X75787Y-59171D01*
X75811Y-59219D01*
X75811Y-59481D01*
X76263Y-59481D02*
X76263Y-59219D01*
X76239Y-59171D01*
X76192Y-59147D01*
X76096Y-59147D01*
X76049Y-59171D01*
X76263Y-59457D02*
X76215Y-59481D01*
X76096Y-59481D01*
X76049Y-59457D01*
X76025Y-59409D01*
X76025Y-59362D01*
X76049Y-59314D01*
X76096Y-59290D01*
X76215Y-59290D01*
X76263Y-59266D01*
X76501Y-59481D02*
X76501Y-59147D01*
X76501Y-58981D02*
X76477Y-59005D01*
X76501Y-59028D01*
X76525Y-59005D01*
X76501Y-58981D01*
X76501Y-59028D01*
X76811Y-59481D02*
X76763Y-59457D01*
X76739Y-59409D01*
X76739Y-58981D01*
X77001Y-59433D02*
X77025Y-59457D01*
X77001Y-59481D01*
X76977Y-59457D01*
X77001Y-59433D01*
X77001Y-59481D01*
X77454Y-59457D02*
X77406Y-59481D01*
X77311Y-59481D01*
X77263Y-59457D01*
X77239Y-59433D01*
X77215Y-59385D01*
X77215Y-59243D01*
X77239Y-59195D01*
X77263Y-59171D01*
X77311Y-59147D01*
X77406Y-59147D01*
X77454Y-59171D01*
X77739Y-59481D02*
X77692Y-59457D01*
X77668Y-59433D01*
X77644Y-59385D01*
X77644Y-59243D01*
X77668Y-59195D01*
X77692Y-59171D01*
X77739Y-59147D01*
X77811Y-59147D01*
X77858Y-59171D01*
X77882Y-59195D01*
X77906Y-59243D01*
X77906Y-59385D01*
X77882Y-59433D01*
X77858Y-59457D01*
X77811Y-59481D01*
X77739Y-59481D01*
X78120Y-59481D02*
X78120Y-59147D01*
X78120Y-59195D02*
X78144Y-59171D01*
X78192Y-59147D01*
X78263Y-59147D01*
X78311Y-59171D01*
X78335Y-59219D01*
X78335Y-59481D01*
X78335Y-59219D02*
X78358Y-59171D01*
X78406Y-59147D01*
X78477Y-59147D01*
X78525Y-59171D01*
X78549Y-59219D01*
X78549Y-59481D01*
X79549Y-59290D02*
X79930Y-59290D01*
X80930Y-59481D02*
X80930Y-58981D01*
X81215Y-59481D02*
X81001Y-59195D01*
X81215Y-58981D02*
X80930Y-59266D01*
X81430Y-59219D02*
X81596Y-59219D01*
X81668Y-59481D02*
X81430Y-59481D01*
X81430Y-58981D01*
X81668Y-58981D01*
X82120Y-58981D02*
X81882Y-58981D01*
X81858Y-59219D01*
X81882Y-59195D01*
X81930Y-59171D01*
X82049Y-59171D01*
X82096Y-59195D01*
X82120Y-59219D01*
X82144Y-59266D01*
X82144Y-59385D01*
X82120Y-59433D01*
X82096Y-59457D01*
X82049Y-59481D01*
X81930Y-59481D01*
X81882Y-59457D01*
X81858Y-59433D01*
X82311Y-58981D02*
X82644Y-58981D01*
X82311Y-59481D01*
X82644Y-59481D01*
X82977Y-58981D02*
X82977Y-59338D01*
X82954Y-59409D01*
X82906Y-59457D01*
X82835Y-59481D01*
X82787Y-59481D01*
X83192Y-59457D02*
X83263Y-59481D01*
X83382Y-59481D01*
X83430Y-59457D01*
X83454Y-59433D01*
X83477Y-59385D01*
X83477Y-59338D01*
X83454Y-59290D01*
X83430Y-59266D01*
X83382Y-59243D01*
X83287Y-59219D01*
X83239Y-59195D01*
X83215Y-59171D01*
X83192Y-59124D01*
X83192Y-59076D01*
X83215Y-59028D01*
X83239Y-59005D01*
X83287Y-58981D01*
X83406Y-58981D01*
X83477Y-59005D01*
G54D12*
X67825Y-51953D02*
X67825Y-51675D01*
X67825Y-51675D02*
X67275Y-51675D01*
X67275Y-51675D02*
X67275Y-51953D01*
X67825Y-52625D02*
X67825Y-52347D01*
X67825Y-52625D02*
X67275Y-52625D01*
X67275Y-52625D02*
X67275Y-52347D01*
X68775Y-52347D02*
X68775Y-52625D01*
X68775Y-52625D02*
X69325Y-52625D01*
X69325Y-52625D02*
X69325Y-52347D01*
X68775Y-51675D02*
X68775Y-51953D01*
X68775Y-51675D02*
X69325Y-51675D01*
X69325Y-51675D02*
X69325Y-51953D01*
X73103Y-53625D02*
X72825Y-53625D01*
X72825Y-53625D02*
X72825Y-54175D01*
X72825Y-54175D02*
X73103Y-54175D01*
X73775Y-53625D02*
X73497Y-53625D01*
X73775Y-53625D02*
X73775Y-54175D01*
X73775Y-54175D02*
X73497Y-54175D01*
X77247Y-54925D02*
X77525Y-54925D01*
X77525Y-54925D02*
X77525Y-54375D01*
X77525Y-54375D02*
X77247Y-54375D01*
X76575Y-54925D02*
X76853Y-54925D01*
X76575Y-54925D02*
X76575Y-54375D01*
X76575Y-54375D02*
X76853Y-54375D01*
X73275Y-52347D02*
X73275Y-52625D01*
X73275Y-52625D02*
X73825Y-52625D01*
X73825Y-52625D02*
X73825Y-52347D01*
X73275Y-51675D02*
X73275Y-51953D01*
X73275Y-51675D02*
X73825Y-51675D01*
X73825Y-51675D02*
X73825Y-51953D01*
X66525Y-51097D02*
X66525Y-51375D01*
X66525Y-51375D02*
X67075Y-51375D01*
X67075Y-51375D02*
X67075Y-51097D01*
X66525Y-50425D02*
X66525Y-50703D01*
X66525Y-50425D02*
X67075Y-50425D01*
X67075Y-50425D02*
X67075Y-50703D01*
X67075Y-51953D02*
X67075Y-51675D01*
X67075Y-51675D02*
X66525Y-51675D01*
X66525Y-51675D02*
X66525Y-51953D01*
X67075Y-52625D02*
X67075Y-52347D01*
X67075Y-52625D02*
X66525Y-52625D01*
X66525Y-52625D02*
X66525Y-52347D01*
X66325Y-51953D02*
X66325Y-51675D01*
X66325Y-51675D02*
X65775Y-51675D01*
X65775Y-51675D02*
X65775Y-51953D01*
X66325Y-52625D02*
X66325Y-52347D01*
X66325Y-52625D02*
X65775Y-52625D01*
X65775Y-52625D02*
X65775Y-52347D01*
G54D13*
X70744Y-56447D02*
X70744Y-56722D01*
X70744Y-56053D02*
X70744Y-55778D01*
X71256Y-56447D02*
X71256Y-56722D01*
X71256Y-55778D02*
X71256Y-56053D01*
X71250Y-56722D02*
X70750Y-56722D01*
X70750Y-55778D02*
X71250Y-55778D01*
X91058Y-57154D02*
X90783Y-57154D01*
X91452Y-57154D02*
X91727Y-57154D01*
X91058Y-57666D02*
X90783Y-57666D01*
X91727Y-57666D02*
X91452Y-57666D01*
X90783Y-57660D02*
X90783Y-57160D01*
X91727Y-57160D02*
X91727Y-57660D01*
X65794Y-53597D02*
X65794Y-53872D01*
X65794Y-53203D02*
X65794Y-52928D01*
X66306Y-53597D02*
X66306Y-53872D01*
X66306Y-52928D02*
X66306Y-53203D01*
X66300Y-53872D02*
X65800Y-53872D01*
X65800Y-52928D02*
X66300Y-52928D01*
X90403Y-50444D02*
X90128Y-50444D01*
X90797Y-50444D02*
X91072Y-50444D01*
X90403Y-50956D02*
X90128Y-50956D01*
X91072Y-50956D02*
X90797Y-50956D01*
X90128Y-50950D02*
X90128Y-50450D01*
X91072Y-50450D02*
X91072Y-50950D01*
X90433Y-57954D02*
X90158Y-57954D01*
X90827Y-57954D02*
X91102Y-57954D01*
X90433Y-58466D02*
X90158Y-58466D01*
X91102Y-58466D02*
X90827Y-58466D01*
X90158Y-58460D02*
X90158Y-57960D01*
X91102Y-57960D02*
X91102Y-58460D01*
X69603Y-55344D02*
X69328Y-55344D01*
X69997Y-55344D02*
X70272Y-55344D01*
X69603Y-55856D02*
X69328Y-55856D01*
X70272Y-55856D02*
X69997Y-55856D01*
X69328Y-55850D02*
X69328Y-55350D01*
X70272Y-55350D02*
X70272Y-55850D01*
X71556Y-51953D02*
X71556Y-51678D01*
X71556Y-52347D02*
X71556Y-52622D01*
X71044Y-51953D02*
X71044Y-51678D01*
X71044Y-52622D02*
X71044Y-52347D01*
X71050Y-51678D02*
X71550Y-51678D01*
X71550Y-52622D02*
X71050Y-52622D01*
X74044Y-52347D02*
X74044Y-52622D01*
X74044Y-51953D02*
X74044Y-51678D01*
X74556Y-52347D02*
X74556Y-52622D01*
X74556Y-51678D02*
X74556Y-51953D01*
X74550Y-52622D02*
X74050Y-52622D01*
X74050Y-51678D02*
X74550Y-51678D01*
X68556Y-51953D02*
X68556Y-51678D01*
X68556Y-52347D02*
X68556Y-52622D01*
X68044Y-51953D02*
X68044Y-51678D01*
X68044Y-52622D02*
X68044Y-52347D01*
X68050Y-51678D02*
X68550Y-51678D01*
X68550Y-52622D02*
X68050Y-52622D01*
X69603Y-56144D02*
X69328Y-56144D01*
X69997Y-56144D02*
X70272Y-56144D01*
X69603Y-56656D02*
X69328Y-56656D01*
X70272Y-56656D02*
X69997Y-56656D01*
X69328Y-56650D02*
X69328Y-56150D01*
X70272Y-56150D02*
X70272Y-56650D01*
X71494Y-56447D02*
X71494Y-56722D01*
X71494Y-56053D02*
X71494Y-55778D01*
X72006Y-56447D02*
X72006Y-56722D01*
X72006Y-55778D02*
X72006Y-56053D01*
X72000Y-56722D02*
X71500Y-56722D01*
X71500Y-55778D02*
X72000Y-55778D01*
X66544Y-53597D02*
X66544Y-53872D01*
X66544Y-53203D02*
X66544Y-52928D01*
X67056Y-53597D02*
X67056Y-53872D01*
X67056Y-52928D02*
X67056Y-53203D01*
X67050Y-53872D02*
X66550Y-53872D01*
X66550Y-52928D02*
X67050Y-52928D01*
X70806Y-51953D02*
X70806Y-51678D01*
X70806Y-52347D02*
X70806Y-52622D01*
X70294Y-51953D02*
X70294Y-51678D01*
X70294Y-52622D02*
X70294Y-52347D01*
X70300Y-51678D02*
X70800Y-51678D01*
X70800Y-52622D02*
X70300Y-52622D01*
X65794Y-54897D02*
X65794Y-55172D01*
X65794Y-54503D02*
X65794Y-54228D01*
X66306Y-54897D02*
X66306Y-55172D01*
X66306Y-54228D02*
X66306Y-54503D01*
X66300Y-55172D02*
X65800Y-55172D01*
X65800Y-54228D02*
X66300Y-54228D01*
X78044Y-55097D02*
X78044Y-55372D01*
X78044Y-54703D02*
X78044Y-54428D01*
X78556Y-55097D02*
X78556Y-55372D01*
X78556Y-54428D02*
X78556Y-54703D01*
X78550Y-55372D02*
X78050Y-55372D01*
X78050Y-54428D02*
X78550Y-54428D01*
X74794Y-52347D02*
X74794Y-52622D01*
X74794Y-51953D02*
X74794Y-51678D01*
X75306Y-52347D02*
X75306Y-52622D01*
X75306Y-51678D02*
X75306Y-51953D01*
X75300Y-52622D02*
X74800Y-52622D01*
X74800Y-51678D02*
X75300Y-51678D01*
X90797Y-51756D02*
X91072Y-51756D01*
X90403Y-51756D02*
X90128Y-51756D01*
X90797Y-51244D02*
X91072Y-51244D01*
X90128Y-51244D02*
X90403Y-51244D01*
X91072Y-51250D02*
X91072Y-51750D01*
X90128Y-51750D02*
X90128Y-51250D01*
G54D14*
X93935Y-52305D02*
X93935Y-53305D01*
X92935Y-53305D02*
X92935Y-52305D01*
X93935Y-53305D02*
X92935Y-53305D01*
X92935Y-52305D02*
X93935Y-52305D01*
X80860Y-49630D02*
X79860Y-49630D01*
X79860Y-48630D02*
X80860Y-48630D01*
X79860Y-49630D02*
X79860Y-48630D01*
X80860Y-48630D02*
X80860Y-49630D01*
X93935Y-55605D02*
X93935Y-56605D01*
X92935Y-56605D02*
X92935Y-55605D01*
X93935Y-56605D02*
X92935Y-56605D01*
X92935Y-55605D02*
X93935Y-55605D01*
X93935Y-54505D02*
X93935Y-55505D01*
X92935Y-55505D02*
X92935Y-54505D01*
X93935Y-55505D02*
X92935Y-55505D01*
X92935Y-54505D02*
X93935Y-54505D01*
X93935Y-53405D02*
X93935Y-54405D01*
X92935Y-54405D02*
X92935Y-53405D01*
X93935Y-54405D02*
X92935Y-54405D01*
X92935Y-53405D02*
X93935Y-53405D01*
G54D12*
X90893Y-56590D02*
X90893Y-56790D01*
X90893Y-56790D02*
X91363Y-56790D01*
X90893Y-56590D02*
X91363Y-56590D01*
X90893Y-56000D02*
X91363Y-56000D01*
X90893Y-56200D02*
X91363Y-56200D01*
X90893Y-56000D02*
X90893Y-56200D01*
X90893Y-55410D02*
X90893Y-55610D01*
X90893Y-55610D02*
X91363Y-55610D01*
X90893Y-55410D02*
X91363Y-55410D01*
X92588Y-55745D02*
X92588Y-56455D01*
X92588Y-56455D02*
X92393Y-56455D01*
X92588Y-55745D02*
X92393Y-55745D01*
X91363Y-55195D02*
X92393Y-55195D01*
X92393Y-55195D02*
X92393Y-57005D01*
X92393Y-57005D02*
X91363Y-57005D01*
X91363Y-57005D02*
X91363Y-55195D01*
X90893Y-53290D02*
X90893Y-53490D01*
X90893Y-53490D02*
X91363Y-53490D01*
X90893Y-53290D02*
X91363Y-53290D01*
X90893Y-52700D02*
X91363Y-52700D01*
X90893Y-52900D02*
X91363Y-52900D01*
X90893Y-52700D02*
X90893Y-52900D01*
X90893Y-52110D02*
X90893Y-52310D01*
X90893Y-52310D02*
X91363Y-52310D01*
X90893Y-52110D02*
X91363Y-52110D01*
X92588Y-52445D02*
X92588Y-53155D01*
X92588Y-53155D02*
X92393Y-53155D01*
X92588Y-52445D02*
X92393Y-52445D01*
X91363Y-51895D02*
X92393Y-51895D01*
X92393Y-51895D02*
X92393Y-53705D01*
X92393Y-53705D02*
X91363Y-53705D01*
X91363Y-53705D02*
X91363Y-51895D01*
X89958Y-53550D02*
X90598Y-53550D01*
X90598Y-52470D02*
X89958Y-52470D01*
X89958Y-52470D02*
X89958Y-53730D01*
X89958Y-53730D02*
X90598Y-53730D01*
X90598Y-53730D02*
X90598Y-52470D01*
X90620Y-55350D02*
X89980Y-55350D01*
X89980Y-56430D02*
X90620Y-56430D01*
X90620Y-56430D02*
X90620Y-55170D01*
X90620Y-55170D02*
X89980Y-55170D01*
X89980Y-55170D02*
X89980Y-56430D01*
X76420Y-54100D02*
X77980Y-54100D01*
X77980Y-54100D02*
X77980Y-52200D01*
X77980Y-52200D02*
X76420Y-52200D01*
X76420Y-52200D02*
X76420Y-54100D01*
X76420Y-53900D02*
X75990Y-53900D01*
X76420Y-53400D02*
X75990Y-53400D01*
X76420Y-52900D02*
X75990Y-52900D01*
X75990Y-52400D02*
X76420Y-52400D01*
X77980Y-52400D02*
X78410Y-52400D01*
X78410Y-52900D02*
X77980Y-52900D01*
X78410Y-53400D02*
X77980Y-53400D01*
X78410Y-53900D02*
X77980Y-53900D01*
X77876Y-53810D02*
G75*
G03X77876Y-53810I-186J0D01*
G74*
G01*
G54D15*
X71277Y-53925D02*
G75*
G03X71277Y-53925I-127J0D01*
G74*
G01*
X72288Y-55594D02*
X70911Y-55594D01*
X70911Y-55594D02*
X70911Y-53705D01*
X72288Y-53705D02*
X70911Y-53705D01*
X72288Y-53705D02*
X72288Y-55594D01*
G54D12*
X69780Y-53200D02*
X68220Y-53200D01*
X68220Y-53200D02*
X68220Y-55100D01*
X68220Y-55100D02*
X69780Y-55100D01*
X69780Y-55100D02*
X69780Y-53200D01*
X69780Y-53400D02*
X70210Y-53400D01*
X69780Y-53900D02*
X70210Y-53900D01*
X69780Y-54400D02*
X70210Y-54400D01*
X70210Y-54900D02*
X69780Y-54900D01*
X68220Y-54900D02*
X67790Y-54900D01*
X67790Y-54400D02*
X68220Y-54400D01*
X67790Y-53900D02*
X68220Y-53900D01*
X67790Y-53400D02*
X68220Y-53400D01*
X68696Y-53490D02*
G75*
G03X68696Y-53490I-186J0D01*
G74*
G01*
G54D10*
X64652Y-54203D02*
X64455Y-54203D01*
X64455Y-54203D02*
X64455Y-54596D01*
X64455Y-54596D02*
X64652Y-54596D01*
X64947Y-54203D02*
X65144Y-54203D01*
X65144Y-54203D02*
X65144Y-54596D01*
X65144Y-54596D02*
X64947Y-54596D01*
G54D12*
X81280Y-54100D02*
X81280Y-55280D01*
X81280Y-55280D02*
X80730Y-55280D01*
X80730Y-55280D02*
X80730Y-54100D01*
X80730Y-54100D02*
X81280Y-54100D01*
X80803Y-55525D02*
X80525Y-55525D01*
X80525Y-55525D02*
X80525Y-56075D01*
X80525Y-56075D02*
X80803Y-56075D01*
X81475Y-55525D02*
X81197Y-55525D01*
X81475Y-55525D02*
X81475Y-56075D01*
X81475Y-56075D02*
X81197Y-56075D01*
X81197Y-56875D02*
X81475Y-56875D01*
X81475Y-56875D02*
X81475Y-56325D01*
X81475Y-56325D02*
X81197Y-56325D01*
X80525Y-56875D02*
X80803Y-56875D01*
X80525Y-56875D02*
X80525Y-56325D01*
X80525Y-56325D02*
X80803Y-56325D01*
G54D13*
X82506Y-53653D02*
X82506Y-53378D01*
X82506Y-54047D02*
X82506Y-54322D01*
X81994Y-53653D02*
X81994Y-53378D01*
X81994Y-54322D02*
X81994Y-54047D01*
X82000Y-53378D02*
X82500Y-53378D01*
X82500Y-54322D02*
X82000Y-54322D01*
X79474Y-55567D02*
X79474Y-55842D01*
X79474Y-55173D02*
X79474Y-54898D01*
X79986Y-55567D02*
X79986Y-55842D01*
X79986Y-54898D02*
X79986Y-55173D01*
X79980Y-55842D02*
X79480Y-55842D01*
X79480Y-54898D02*
X79980Y-54898D01*
X83256Y-53653D02*
X83256Y-53378D01*
X83256Y-54047D02*
X83256Y-54322D01*
X82744Y-53653D02*
X82744Y-53378D01*
X82744Y-54322D02*
X82744Y-54047D01*
X82750Y-53378D02*
X83250Y-53378D01*
X83250Y-54322D02*
X82750Y-54322D01*
X71794Y-52347D02*
X71794Y-52622D01*
X71794Y-51953D02*
X71794Y-51678D01*
X72306Y-52347D02*
X72306Y-52622D01*
X72306Y-51678D02*
X72306Y-51953D01*
X72300Y-52622D02*
X71800Y-52622D01*
X71800Y-51678D02*
X72300Y-51678D01*
X69544Y-52347D02*
X69544Y-52622D01*
X69544Y-51953D02*
X69544Y-51678D01*
X70056Y-52347D02*
X70056Y-52622D01*
X70056Y-51678D02*
X70056Y-51953D01*
X70050Y-52622D02*
X69550Y-52622D01*
X69550Y-51678D02*
X70050Y-51678D01*
X70356Y-57203D02*
X70356Y-56928D01*
X70356Y-57597D02*
X70356Y-57872D01*
X69844Y-57203D02*
X69844Y-56928D01*
X69844Y-57872D02*
X69844Y-57597D01*
X69850Y-56928D02*
X70350Y-56928D01*
X70350Y-57872D02*
X69850Y-57872D01*
X73056Y-51953D02*
X73056Y-51678D01*
X73056Y-52347D02*
X73056Y-52622D01*
X72544Y-51953D02*
X72544Y-51678D01*
X72544Y-52622D02*
X72544Y-52347D01*
X72550Y-51678D02*
X73050Y-51678D01*
X73050Y-52622D02*
X72550Y-52622D01*
X81144Y-53447D02*
X81144Y-53722D01*
X81144Y-53053D02*
X81144Y-52778D01*
X81656Y-53447D02*
X81656Y-53722D01*
X81656Y-52778D02*
X81656Y-53053D01*
X81650Y-53722D02*
X81150Y-53722D01*
X81150Y-52778D02*
X81650Y-52778D01*
G54D16*
X74100Y-53700D02*
X74100Y-55196D01*
X74100Y-55196D02*
X75477Y-55196D01*
X75477Y-55196D02*
X75477Y-53700D01*
X75477Y-53700D02*
X74100Y-53700D01*
G54D14*
X82085Y-49630D02*
X81085Y-49630D01*
X81085Y-48630D02*
X82085Y-48630D01*
X81085Y-49630D02*
X81085Y-48630D01*
X82085Y-48630D02*
X82085Y-49630D01*
G54D10*
X60834Y-54603D02*
X60834Y-54209D01*
X60984Y-54209D01*
X61021Y-54228D01*
X61040Y-54246D01*
X61059Y-54284D01*
X61059Y-54340D01*
X61040Y-54378D01*
X61021Y-54396D01*
X60984Y-54415D01*
X60834Y-54415D01*
X61415Y-54209D02*
X61228Y-54209D01*
X61209Y-54396D01*
X61228Y-54378D01*
X61265Y-54359D01*
X61359Y-54359D01*
X61396Y-54378D01*
X61415Y-54396D01*
X61434Y-54434D01*
X61434Y-54528D01*
X61415Y-54565D01*
X61396Y-54584D01*
X61359Y-54603D01*
X61265Y-54603D01*
X61228Y-54584D01*
X61209Y-54565D01*
G54D17*
X67545Y-52264D02*
X67485Y-52170D01*
X67442Y-52264D02*
X67442Y-52067D01*
X67510Y-52067D01*
X67527Y-52076D01*
X67536Y-52085D01*
X67545Y-52104D01*
X67545Y-52132D01*
X67536Y-52151D01*
X67527Y-52160D01*
X67510Y-52170D01*
X67442Y-52170D01*
X67613Y-52085D02*
X67622Y-52076D01*
X67639Y-52067D01*
X67682Y-52067D01*
X67699Y-52076D01*
X67707Y-52085D01*
X67716Y-52104D01*
X67716Y-52123D01*
X67707Y-52151D01*
X67605Y-52264D01*
X67716Y-52264D01*
X68995Y-52214D02*
X68935Y-52120D01*
X68892Y-52214D02*
X68892Y-52017D01*
X68960Y-52017D01*
X68977Y-52026D01*
X68986Y-52035D01*
X68995Y-52054D01*
X68995Y-52082D01*
X68986Y-52101D01*
X68977Y-52110D01*
X68960Y-52120D01*
X68892Y-52120D01*
X69166Y-52214D02*
X69063Y-52214D01*
X69115Y-52214D02*
X69115Y-52017D01*
X69097Y-52045D01*
X69080Y-52064D01*
X69063Y-52073D01*
X73414Y-53905D02*
X73320Y-53965D01*
X73414Y-54007D02*
X73217Y-54007D01*
X73217Y-53939D01*
X73226Y-53922D01*
X73235Y-53913D01*
X73254Y-53905D01*
X73282Y-53905D01*
X73301Y-53913D01*
X73310Y-53922D01*
X73320Y-53939D01*
X73320Y-54007D01*
X73217Y-53845D02*
X73217Y-53733D01*
X73292Y-53793D01*
X73292Y-53767D01*
X73301Y-53750D01*
X73310Y-53742D01*
X73329Y-53733D01*
X73376Y-53733D01*
X73395Y-53742D01*
X73404Y-53750D01*
X73414Y-53767D01*
X73414Y-53819D01*
X73404Y-53836D01*
X73395Y-53845D01*
X77114Y-54705D02*
X77020Y-54765D01*
X77114Y-54807D02*
X76917Y-54807D01*
X76917Y-54739D01*
X76926Y-54722D01*
X76935Y-54713D01*
X76954Y-54705D01*
X76982Y-54705D01*
X77001Y-54713D01*
X77010Y-54722D01*
X77020Y-54739D01*
X77020Y-54807D01*
X76982Y-54550D02*
X77114Y-54550D01*
X76907Y-54593D02*
X77048Y-54636D01*
X77048Y-54525D01*
X73495Y-52214D02*
X73435Y-52120D01*
X73392Y-52214D02*
X73392Y-52017D01*
X73460Y-52017D01*
X73477Y-52026D01*
X73486Y-52035D01*
X73495Y-52054D01*
X73495Y-52082D01*
X73486Y-52101D01*
X73477Y-52110D01*
X73460Y-52120D01*
X73392Y-52120D01*
X73597Y-52101D02*
X73580Y-52092D01*
X73572Y-52082D01*
X73563Y-52064D01*
X73563Y-52054D01*
X73572Y-52035D01*
X73580Y-52026D01*
X73597Y-52017D01*
X73632Y-52017D01*
X73649Y-52026D01*
X73657Y-52035D01*
X73666Y-52054D01*
X73666Y-52064D01*
X73657Y-52082D01*
X73649Y-52092D01*
X73632Y-52101D01*
X73597Y-52101D01*
X73580Y-52110D01*
X73572Y-52120D01*
X73563Y-52139D01*
X73563Y-52176D01*
X73572Y-52195D01*
X73580Y-52204D01*
X73597Y-52214D01*
X73632Y-52214D01*
X73649Y-52204D01*
X73657Y-52195D01*
X73666Y-52176D01*
X73666Y-52139D01*
X73657Y-52120D01*
X73649Y-52110D01*
X73632Y-52101D01*
X66745Y-50964D02*
X66685Y-50870D01*
X66642Y-50964D02*
X66642Y-50767D01*
X66710Y-50767D01*
X66727Y-50776D01*
X66736Y-50785D01*
X66745Y-50804D01*
X66745Y-50832D01*
X66736Y-50851D01*
X66727Y-50860D01*
X66710Y-50870D01*
X66642Y-50870D01*
X66805Y-50767D02*
X66925Y-50767D01*
X66847Y-50964D01*
X66795Y-52264D02*
X66735Y-52170D01*
X66692Y-52264D02*
X66692Y-52067D01*
X66760Y-52067D01*
X66777Y-52076D01*
X66786Y-52085D01*
X66795Y-52104D01*
X66795Y-52132D01*
X66786Y-52151D01*
X66777Y-52160D01*
X66760Y-52170D01*
X66692Y-52170D01*
X66949Y-52067D02*
X66915Y-52067D01*
X66897Y-52076D01*
X66889Y-52085D01*
X66872Y-52114D01*
X66863Y-52151D01*
X66863Y-52226D01*
X66872Y-52245D01*
X66880Y-52254D01*
X66897Y-52264D01*
X66932Y-52264D01*
X66949Y-52254D01*
X66957Y-52245D01*
X66966Y-52226D01*
X66966Y-52179D01*
X66957Y-52160D01*
X66949Y-52151D01*
X66932Y-52142D01*
X66897Y-52142D01*
X66880Y-52151D01*
X66872Y-52160D01*
X66863Y-52179D01*
X66045Y-52264D02*
X65985Y-52170D01*
X65942Y-52264D02*
X65942Y-52067D01*
X66010Y-52067D01*
X66027Y-52076D01*
X66036Y-52085D01*
X66045Y-52104D01*
X66045Y-52132D01*
X66036Y-52151D01*
X66027Y-52160D01*
X66010Y-52170D01*
X65942Y-52170D01*
X66207Y-52067D02*
X66122Y-52067D01*
X66113Y-52160D01*
X66122Y-52151D01*
X66139Y-52142D01*
X66182Y-52142D01*
X66199Y-52151D01*
X66207Y-52160D01*
X66216Y-52179D01*
X66216Y-52226D01*
X66207Y-52245D01*
X66199Y-52254D01*
X66182Y-52264D01*
X66139Y-52264D01*
X66122Y-52254D01*
X66113Y-52245D01*
X70884Y-56321D02*
X70875Y-56330D01*
X70850Y-56340D01*
X70832Y-56340D01*
X70807Y-56330D01*
X70790Y-56311D01*
X70781Y-56292D01*
X70772Y-56254D01*
X70772Y-56226D01*
X70781Y-56188D01*
X70790Y-56169D01*
X70807Y-56150D01*
X70832Y-56140D01*
X70850Y-56140D01*
X70875Y-56150D01*
X70884Y-56159D01*
X71055Y-56340D02*
X70952Y-56340D01*
X71004Y-56340D02*
X71004Y-56140D01*
X70987Y-56169D01*
X70970Y-56188D01*
X70952Y-56197D01*
X71218Y-56140D02*
X71132Y-56140D01*
X71124Y-56235D01*
X71132Y-56226D01*
X71150Y-56216D01*
X71192Y-56216D01*
X71210Y-56226D01*
X71218Y-56235D01*
X71227Y-56254D01*
X71227Y-56302D01*
X71218Y-56321D01*
X71210Y-56330D01*
X71192Y-56340D01*
X71150Y-56340D01*
X71132Y-56330D01*
X71124Y-56321D01*
X91326Y-57440D02*
X91335Y-57448D01*
X91345Y-57474D01*
X91345Y-57491D01*
X91335Y-57517D01*
X91316Y-57534D01*
X91297Y-57542D01*
X91259Y-57551D01*
X91231Y-57551D01*
X91193Y-57542D01*
X91174Y-57534D01*
X91155Y-57517D01*
X91145Y-57491D01*
X91145Y-57474D01*
X91155Y-57448D01*
X91164Y-57440D01*
X91145Y-57277D02*
X91145Y-57362D01*
X91240Y-57371D01*
X91231Y-57362D01*
X91221Y-57345D01*
X91221Y-57302D01*
X91231Y-57285D01*
X91240Y-57277D01*
X91259Y-57268D01*
X91307Y-57268D01*
X91326Y-57277D01*
X91335Y-57285D01*
X91345Y-57302D01*
X91345Y-57345D01*
X91335Y-57362D01*
X91326Y-57371D01*
X66030Y-53476D02*
X66021Y-53485D01*
X65995Y-53495D01*
X65978Y-53495D01*
X65952Y-53485D01*
X65935Y-53466D01*
X65927Y-53447D01*
X65918Y-53409D01*
X65918Y-53381D01*
X65927Y-53343D01*
X65935Y-53324D01*
X65952Y-53305D01*
X65978Y-53295D01*
X65995Y-53295D01*
X66021Y-53305D01*
X66030Y-53314D01*
X66115Y-53495D02*
X66150Y-53495D01*
X66167Y-53485D01*
X66175Y-53476D01*
X66192Y-53447D01*
X66201Y-53409D01*
X66201Y-53333D01*
X66192Y-53314D01*
X66184Y-53305D01*
X66167Y-53295D01*
X66132Y-53295D01*
X66115Y-53305D01*
X66107Y-53314D01*
X66098Y-53333D01*
X66098Y-53381D01*
X66107Y-53400D01*
X66115Y-53409D01*
X66132Y-53419D01*
X66167Y-53419D01*
X66184Y-53409D01*
X66192Y-53400D01*
X66201Y-53381D01*
X90671Y-50730D02*
X90680Y-50738D01*
X90690Y-50764D01*
X90690Y-50781D01*
X90680Y-50807D01*
X90661Y-50824D01*
X90642Y-50832D01*
X90604Y-50841D01*
X90576Y-50841D01*
X90538Y-50832D01*
X90519Y-50824D01*
X90500Y-50807D01*
X90490Y-50781D01*
X90490Y-50764D01*
X90500Y-50738D01*
X90509Y-50730D01*
X90490Y-50670D02*
X90490Y-50558D01*
X90566Y-50618D01*
X90566Y-50592D01*
X90576Y-50575D01*
X90585Y-50567D01*
X90604Y-50558D01*
X90652Y-50558D01*
X90671Y-50567D01*
X90680Y-50575D01*
X90690Y-50592D01*
X90690Y-50644D01*
X90680Y-50661D01*
X90671Y-50670D01*
X90701Y-58240D02*
X90710Y-58248D01*
X90720Y-58274D01*
X90720Y-58291D01*
X90710Y-58317D01*
X90691Y-58334D01*
X90672Y-58342D01*
X90634Y-58351D01*
X90606Y-58351D01*
X90568Y-58342D01*
X90549Y-58334D01*
X90530Y-58317D01*
X90520Y-58291D01*
X90520Y-58274D01*
X90530Y-58248D01*
X90539Y-58240D01*
X90520Y-58085D02*
X90520Y-58120D01*
X90530Y-58137D01*
X90539Y-58145D01*
X90568Y-58162D01*
X90606Y-58171D01*
X90682Y-58171D01*
X90701Y-58162D01*
X90710Y-58154D01*
X90720Y-58137D01*
X90720Y-58102D01*
X90710Y-58085D01*
X90701Y-58077D01*
X90682Y-58068D01*
X90634Y-58068D01*
X90615Y-58077D01*
X90606Y-58085D01*
X90596Y-58102D01*
X90596Y-58137D01*
X90606Y-58154D01*
X90615Y-58162D01*
X90634Y-58171D01*
X69871Y-55715D02*
X69880Y-55724D01*
X69890Y-55750D01*
X69890Y-55767D01*
X69880Y-55792D01*
X69861Y-55810D01*
X69842Y-55818D01*
X69804Y-55827D01*
X69776Y-55827D01*
X69738Y-55818D01*
X69719Y-55810D01*
X69700Y-55792D01*
X69690Y-55767D01*
X69690Y-55750D01*
X69700Y-55724D01*
X69709Y-55715D01*
X69890Y-55544D02*
X69890Y-55647D01*
X69890Y-55595D02*
X69690Y-55595D01*
X69719Y-55612D01*
X69738Y-55630D01*
X69747Y-55647D01*
X69690Y-55484D02*
X69690Y-55372D01*
X69766Y-55432D01*
X69766Y-55407D01*
X69776Y-55390D01*
X69785Y-55381D01*
X69804Y-55372D01*
X69852Y-55372D01*
X69871Y-55381D01*
X69880Y-55390D01*
X69890Y-55407D01*
X69890Y-55458D01*
X69880Y-55475D01*
X69871Y-55484D01*
X71184Y-52221D02*
X71175Y-52230D01*
X71150Y-52240D01*
X71132Y-52240D01*
X71107Y-52230D01*
X71090Y-52211D01*
X71081Y-52192D01*
X71072Y-52154D01*
X71072Y-52126D01*
X71081Y-52088D01*
X71090Y-52069D01*
X71107Y-52050D01*
X71132Y-52040D01*
X71150Y-52040D01*
X71175Y-52050D01*
X71184Y-52059D01*
X71355Y-52240D02*
X71252Y-52240D01*
X71304Y-52240D02*
X71304Y-52040D01*
X71287Y-52069D01*
X71270Y-52088D01*
X71252Y-52097D01*
X71424Y-52059D02*
X71432Y-52050D01*
X71450Y-52040D01*
X71492Y-52040D01*
X71510Y-52050D01*
X71518Y-52059D01*
X71527Y-52078D01*
X71527Y-52097D01*
X71518Y-52126D01*
X71415Y-52240D01*
X71527Y-52240D01*
X74184Y-52221D02*
X74175Y-52230D01*
X74150Y-52240D01*
X74132Y-52240D01*
X74107Y-52230D01*
X74090Y-52211D01*
X74081Y-52192D01*
X74072Y-52154D01*
X74072Y-52126D01*
X74081Y-52088D01*
X74090Y-52069D01*
X74107Y-52050D01*
X74132Y-52040D01*
X74150Y-52040D01*
X74175Y-52050D01*
X74184Y-52059D01*
X74355Y-52240D02*
X74252Y-52240D01*
X74304Y-52240D02*
X74304Y-52040D01*
X74287Y-52069D01*
X74270Y-52088D01*
X74252Y-52097D01*
X74441Y-52240D02*
X74475Y-52240D01*
X74492Y-52230D01*
X74501Y-52221D01*
X74518Y-52192D01*
X74527Y-52154D01*
X74527Y-52078D01*
X74518Y-52059D01*
X74510Y-52050D01*
X74492Y-52040D01*
X74458Y-52040D01*
X74441Y-52050D01*
X74432Y-52059D01*
X74424Y-52078D01*
X74424Y-52126D01*
X74432Y-52145D01*
X74441Y-52154D01*
X74458Y-52164D01*
X74492Y-52164D01*
X74510Y-52154D01*
X74518Y-52145D01*
X74527Y-52126D01*
X68270Y-52221D02*
X68261Y-52230D01*
X68235Y-52240D01*
X68218Y-52240D01*
X68192Y-52230D01*
X68175Y-52211D01*
X68167Y-52192D01*
X68158Y-52154D01*
X68158Y-52126D01*
X68167Y-52088D01*
X68175Y-52069D01*
X68192Y-52050D01*
X68218Y-52040D01*
X68235Y-52040D01*
X68261Y-52050D01*
X68270Y-52059D01*
X68330Y-52040D02*
X68450Y-52040D01*
X68372Y-52240D01*
X69871Y-56515D02*
X69880Y-56524D01*
X69890Y-56550D01*
X69890Y-56567D01*
X69880Y-56592D01*
X69861Y-56610D01*
X69842Y-56618D01*
X69804Y-56627D01*
X69776Y-56627D01*
X69738Y-56618D01*
X69719Y-56610D01*
X69700Y-56592D01*
X69690Y-56567D01*
X69690Y-56550D01*
X69700Y-56524D01*
X69709Y-56515D01*
X69890Y-56344D02*
X69890Y-56447D01*
X69890Y-56395D02*
X69690Y-56395D01*
X69719Y-56412D01*
X69738Y-56430D01*
X69747Y-56447D01*
X69757Y-56190D02*
X69890Y-56190D01*
X69680Y-56232D02*
X69823Y-56275D01*
X69823Y-56164D01*
X71634Y-56321D02*
X71625Y-56330D01*
X71600Y-56340D01*
X71582Y-56340D01*
X71557Y-56330D01*
X71540Y-56311D01*
X71531Y-56292D01*
X71522Y-56254D01*
X71522Y-56226D01*
X71531Y-56188D01*
X71540Y-56169D01*
X71557Y-56150D01*
X71582Y-56140D01*
X71600Y-56140D01*
X71625Y-56150D01*
X71634Y-56159D01*
X71805Y-56340D02*
X71702Y-56340D01*
X71754Y-56340D02*
X71754Y-56140D01*
X71737Y-56169D01*
X71720Y-56188D01*
X71702Y-56197D01*
X71960Y-56140D02*
X71925Y-56140D01*
X71908Y-56150D01*
X71900Y-56159D01*
X71882Y-56188D01*
X71874Y-56226D01*
X71874Y-56302D01*
X71882Y-56321D01*
X71891Y-56330D01*
X71908Y-56340D01*
X71942Y-56340D01*
X71960Y-56330D01*
X71968Y-56321D01*
X71977Y-56302D01*
X71977Y-56254D01*
X71968Y-56235D01*
X71960Y-56226D01*
X71942Y-56216D01*
X71908Y-56216D01*
X71891Y-56226D01*
X71882Y-56235D01*
X71874Y-56254D01*
X66770Y-53471D02*
X66761Y-53480D01*
X66735Y-53490D01*
X66718Y-53490D01*
X66692Y-53480D01*
X66675Y-53461D01*
X66667Y-53442D01*
X66658Y-53404D01*
X66658Y-53376D01*
X66667Y-53338D01*
X66675Y-53319D01*
X66692Y-53300D01*
X66718Y-53290D01*
X66735Y-53290D01*
X66761Y-53300D01*
X66770Y-53309D01*
X66872Y-53376D02*
X66855Y-53366D01*
X66847Y-53357D01*
X66838Y-53338D01*
X66838Y-53328D01*
X66847Y-53309D01*
X66855Y-53300D01*
X66872Y-53290D01*
X66907Y-53290D01*
X66924Y-53300D01*
X66932Y-53309D01*
X66941Y-53328D01*
X66941Y-53338D01*
X66932Y-53357D01*
X66924Y-53366D01*
X66907Y-53376D01*
X66872Y-53376D01*
X66855Y-53385D01*
X66847Y-53395D01*
X66838Y-53414D01*
X66838Y-53452D01*
X66847Y-53471D01*
X66855Y-53480D01*
X66872Y-53490D01*
X66907Y-53490D01*
X66924Y-53480D01*
X66932Y-53471D01*
X66941Y-53452D01*
X66941Y-53414D01*
X66932Y-53395D01*
X66924Y-53385D01*
X66907Y-53376D01*
X70434Y-52221D02*
X70425Y-52230D01*
X70400Y-52240D01*
X70382Y-52240D01*
X70357Y-52230D01*
X70340Y-52211D01*
X70331Y-52192D01*
X70322Y-52154D01*
X70322Y-52126D01*
X70331Y-52088D01*
X70340Y-52069D01*
X70357Y-52050D01*
X70382Y-52040D01*
X70400Y-52040D01*
X70425Y-52050D01*
X70434Y-52059D01*
X70605Y-52240D02*
X70502Y-52240D01*
X70554Y-52240D02*
X70554Y-52040D01*
X70537Y-52069D01*
X70520Y-52088D01*
X70502Y-52097D01*
X70777Y-52240D02*
X70674Y-52240D01*
X70725Y-52240D02*
X70725Y-52040D01*
X70708Y-52069D01*
X70691Y-52088D01*
X70674Y-52097D01*
X65934Y-55471D02*
X65925Y-55480D01*
X65900Y-55490D01*
X65882Y-55490D01*
X65857Y-55480D01*
X65840Y-55461D01*
X65831Y-55442D01*
X65822Y-55404D01*
X65822Y-55376D01*
X65831Y-55338D01*
X65840Y-55319D01*
X65857Y-55300D01*
X65882Y-55290D01*
X65900Y-55290D01*
X65925Y-55300D01*
X65934Y-55309D01*
X66105Y-55490D02*
X66002Y-55490D01*
X66054Y-55490D02*
X66054Y-55290D01*
X66037Y-55319D01*
X66020Y-55338D01*
X66002Y-55347D01*
X66217Y-55290D02*
X66234Y-55290D01*
X66251Y-55300D01*
X66260Y-55309D01*
X66268Y-55328D01*
X66277Y-55366D01*
X66277Y-55414D01*
X66268Y-55452D01*
X66260Y-55471D01*
X66251Y-55480D01*
X66234Y-55490D01*
X66217Y-55490D01*
X66200Y-55480D01*
X66191Y-55471D01*
X66182Y-55452D01*
X66174Y-55414D01*
X66174Y-55366D01*
X66182Y-55328D01*
X66191Y-55309D01*
X66200Y-55300D01*
X66217Y-55290D01*
X78184Y-54971D02*
X78175Y-54980D01*
X78150Y-54990D01*
X78132Y-54990D01*
X78107Y-54980D01*
X78090Y-54961D01*
X78081Y-54942D01*
X78072Y-54904D01*
X78072Y-54876D01*
X78081Y-54838D01*
X78090Y-54819D01*
X78107Y-54800D01*
X78132Y-54790D01*
X78150Y-54790D01*
X78175Y-54800D01*
X78184Y-54809D01*
X78355Y-54990D02*
X78252Y-54990D01*
X78304Y-54990D02*
X78304Y-54790D01*
X78287Y-54819D01*
X78270Y-54838D01*
X78252Y-54847D01*
X78415Y-54790D02*
X78535Y-54790D01*
X78458Y-54990D01*
X74934Y-52221D02*
X74925Y-52230D01*
X74900Y-52240D01*
X74882Y-52240D01*
X74857Y-52230D01*
X74840Y-52211D01*
X74831Y-52192D01*
X74822Y-52154D01*
X74822Y-52126D01*
X74831Y-52088D01*
X74840Y-52069D01*
X74857Y-52050D01*
X74882Y-52040D01*
X74900Y-52040D01*
X74925Y-52050D01*
X74934Y-52059D01*
X75105Y-52240D02*
X75002Y-52240D01*
X75054Y-52240D02*
X75054Y-52040D01*
X75037Y-52069D01*
X75020Y-52088D01*
X75002Y-52097D01*
X75208Y-52126D02*
X75191Y-52116D01*
X75182Y-52107D01*
X75174Y-52088D01*
X75174Y-52078D01*
X75182Y-52059D01*
X75191Y-52050D01*
X75208Y-52040D01*
X75242Y-52040D01*
X75260Y-52050D01*
X75268Y-52059D01*
X75277Y-52078D01*
X75277Y-52088D01*
X75268Y-52107D01*
X75260Y-52116D01*
X75242Y-52126D01*
X75208Y-52126D01*
X75191Y-52135D01*
X75182Y-52145D01*
X75174Y-52164D01*
X75174Y-52202D01*
X75182Y-52221D01*
X75191Y-52230D01*
X75208Y-52240D01*
X75242Y-52240D01*
X75260Y-52230D01*
X75268Y-52221D01*
X75277Y-52202D01*
X75277Y-52164D01*
X75268Y-52145D01*
X75260Y-52135D01*
X75242Y-52126D01*
X90671Y-51530D02*
X90680Y-51538D01*
X90690Y-51564D01*
X90690Y-51581D01*
X90680Y-51607D01*
X90661Y-51624D01*
X90642Y-51632D01*
X90604Y-51641D01*
X90576Y-51641D01*
X90538Y-51632D01*
X90519Y-51624D01*
X90500Y-51607D01*
X90490Y-51581D01*
X90490Y-51564D01*
X90500Y-51538D01*
X90509Y-51530D01*
X90509Y-51461D02*
X90500Y-51452D01*
X90490Y-51435D01*
X90490Y-51392D01*
X90500Y-51375D01*
X90509Y-51367D01*
X90528Y-51358D01*
X90547Y-51358D01*
X90576Y-51367D01*
X90690Y-51470D01*
X90690Y-51358D01*
G54D14*
X92530Y-52863D02*
X92515Y-52892D01*
X92515Y-52935D01*
X92530Y-52977D01*
X92558Y-53006D01*
X92587Y-53020D01*
X92644Y-53035D01*
X92687Y-53035D01*
X92744Y-53020D01*
X92772Y-53006D01*
X92801Y-52977D01*
X92815Y-52935D01*
X92815Y-52906D01*
X92801Y-52863D01*
X92787Y-52849D01*
X92687Y-52849D01*
X92687Y-52906D01*
X92815Y-52720D02*
X92515Y-52720D01*
X92815Y-52549D01*
X92515Y-52549D01*
X92815Y-52406D02*
X92515Y-52406D01*
X92515Y-52335D01*
X92530Y-52292D01*
X92558Y-52263D01*
X92587Y-52249D01*
X92644Y-52235D01*
X92687Y-52235D01*
X92744Y-52249D01*
X92772Y-52263D01*
X92801Y-52292D01*
X92815Y-52335D01*
X92815Y-52406D01*
X80319Y-50220D02*
X80176Y-50220D01*
X80176Y-49920D01*
X80376Y-49920D02*
X80476Y-50220D01*
X80576Y-49920D01*
X92701Y-57138D02*
X92701Y-56910D01*
X92815Y-56610D02*
X92815Y-56781D01*
X92815Y-56695D02*
X92515Y-56695D01*
X92558Y-56724D01*
X92587Y-56752D01*
X92601Y-56781D01*
X92544Y-56495D02*
X92530Y-56481D01*
X92515Y-56452D01*
X92515Y-56381D01*
X92530Y-56352D01*
X92544Y-56338D01*
X92572Y-56324D01*
X92601Y-56324D01*
X92644Y-56338D01*
X92815Y-56510D01*
X92815Y-56324D01*
X92515Y-56238D02*
X92815Y-56138D01*
X92515Y-56038D01*
X92530Y-55613D02*
X92515Y-55642D01*
X92515Y-55685D01*
X92530Y-55727D01*
X92558Y-55756D01*
X92587Y-55770D01*
X92644Y-55785D01*
X92687Y-55785D01*
X92744Y-55770D01*
X92772Y-55756D01*
X92801Y-55727D01*
X92815Y-55685D01*
X92815Y-55656D01*
X92801Y-55613D01*
X92787Y-55599D01*
X92687Y-55599D01*
X92687Y-55656D01*
X92815Y-55470D02*
X92515Y-55470D01*
X92815Y-55299D01*
X92515Y-55299D01*
X92815Y-55156D02*
X92515Y-55156D01*
X92515Y-55085D01*
X92530Y-55042D01*
X92558Y-55013D01*
X92587Y-54999D01*
X92644Y-54985D01*
X92687Y-54985D01*
X92744Y-54999D01*
X92772Y-55013D01*
X92801Y-55042D01*
X92815Y-55085D01*
X92815Y-55156D01*
X92701Y-54788D02*
X92701Y-54560D01*
X92815Y-54674D02*
X92587Y-54674D01*
X92815Y-54260D02*
X92815Y-54431D01*
X92815Y-54345D02*
X92515Y-54345D01*
X92558Y-54374D01*
X92587Y-54402D01*
X92601Y-54431D01*
X92544Y-54145D02*
X92530Y-54131D01*
X92515Y-54102D01*
X92515Y-54031D01*
X92530Y-54002D01*
X92544Y-53988D01*
X92572Y-53974D01*
X92601Y-53974D01*
X92644Y-53988D01*
X92815Y-54160D01*
X92815Y-53974D01*
X92515Y-53888D02*
X92815Y-53788D01*
X92515Y-53688D01*
G54D18*
X91734Y-57104D02*
X91734Y-57423D01*
X91753Y-57460D01*
X91772Y-57479D01*
X91809Y-57498D01*
X91884Y-57498D01*
X91922Y-57479D01*
X91941Y-57460D01*
X91959Y-57423D01*
X91959Y-57104D01*
X92128Y-57141D02*
X92147Y-57123D01*
X92185Y-57104D01*
X92278Y-57104D01*
X92316Y-57123D01*
X92335Y-57141D01*
X92353Y-57179D01*
X92353Y-57216D01*
X92335Y-57273D01*
X92110Y-57498D01*
X92353Y-57498D01*
X91734Y-53804D02*
X91734Y-54123D01*
X91753Y-54160D01*
X91772Y-54179D01*
X91809Y-54198D01*
X91884Y-54198D01*
X91922Y-54179D01*
X91941Y-54160D01*
X91959Y-54123D01*
X91959Y-53804D01*
X92353Y-54198D02*
X92128Y-54198D01*
X92241Y-54198D02*
X92241Y-53804D01*
X92203Y-53860D01*
X92166Y-53898D01*
X92128Y-53916D01*
G54D13*
X90227Y-53175D02*
X90217Y-53184D01*
X90189Y-53194D01*
X90170Y-53194D01*
X90142Y-53184D01*
X90123Y-53165D01*
X90114Y-53147D01*
X90105Y-53109D01*
X90105Y-53081D01*
X90114Y-53044D01*
X90123Y-53025D01*
X90142Y-53006D01*
X90170Y-52997D01*
X90189Y-52997D01*
X90217Y-53006D01*
X90227Y-53015D01*
X90414Y-53194D02*
X90302Y-53194D01*
X90358Y-53194D02*
X90358Y-52997D01*
X90339Y-53025D01*
X90320Y-53044D01*
X90302Y-53053D01*
X90277Y-55875D02*
X90267Y-55884D01*
X90239Y-55894D01*
X90220Y-55894D01*
X90192Y-55884D01*
X90173Y-55865D01*
X90164Y-55847D01*
X90155Y-55809D01*
X90155Y-55781D01*
X90164Y-55744D01*
X90173Y-55725D01*
X90192Y-55706D01*
X90220Y-55697D01*
X90239Y-55697D01*
X90267Y-55706D01*
X90277Y-55715D01*
X90446Y-55762D02*
X90446Y-55894D01*
X90399Y-55687D02*
X90352Y-55828D01*
X90474Y-55828D01*
G54D19*
X76535Y-51743D02*
X76535Y-51982D01*
X76549Y-52010D01*
X76563Y-52024D01*
X76591Y-52038D01*
X76647Y-52038D01*
X76675Y-52024D01*
X76689Y-52010D01*
X76703Y-51982D01*
X76703Y-51743D01*
X76984Y-51743D02*
X76844Y-51743D01*
X76830Y-51883D01*
X76844Y-51869D01*
X76872Y-51855D01*
X76942Y-51855D01*
X76970Y-51869D01*
X76984Y-51883D01*
X76998Y-51912D01*
X76998Y-51982D01*
X76984Y-52010D01*
X76970Y-52024D01*
X76942Y-52038D01*
X76872Y-52038D01*
X76844Y-52024D01*
X76830Y-52010D01*
G54D10*
X71365Y-54828D02*
X71234Y-54640D01*
X71140Y-54828D02*
X71140Y-54434D01*
X71290Y-54434D01*
X71328Y-54453D01*
X71346Y-54471D01*
X71365Y-54509D01*
X71365Y-54565D01*
X71346Y-54603D01*
X71328Y-54621D01*
X71290Y-54640D01*
X71140Y-54640D01*
X71478Y-54434D02*
X71609Y-54828D01*
X71740Y-54434D01*
X72078Y-54828D02*
X71853Y-54828D01*
X71965Y-54828D02*
X71965Y-54434D01*
X71928Y-54490D01*
X71890Y-54528D01*
X71853Y-54546D01*
G54D19*
X69238Y-54374D02*
X69477Y-54374D01*
X69505Y-54360D01*
X69519Y-54346D01*
X69533Y-54318D01*
X69533Y-54262D01*
X69519Y-54234D01*
X69505Y-54220D01*
X69477Y-54206D01*
X69238Y-54206D01*
X69336Y-53939D02*
X69533Y-53939D01*
X69224Y-54009D02*
X69435Y-54079D01*
X69435Y-53897D01*
G54D17*
X64899Y-54435D02*
X64899Y-54520D01*
X64702Y-54520D01*
X64899Y-54280D02*
X64899Y-54383D01*
X64899Y-54332D02*
X64702Y-54332D01*
X64730Y-54349D01*
X64749Y-54366D01*
X64758Y-54383D01*
G54D20*
X80359Y-53797D02*
X80359Y-53956D01*
X80369Y-53975D01*
X80378Y-53984D01*
X80397Y-53994D01*
X80434Y-53994D01*
X80453Y-53984D01*
X80463Y-53975D01*
X80472Y-53956D01*
X80472Y-53797D01*
X80547Y-53797D02*
X80669Y-53797D01*
X80603Y-53872D01*
X80631Y-53872D01*
X80650Y-53881D01*
X80660Y-53890D01*
X80669Y-53909D01*
X80669Y-53956D01*
X80660Y-53975D01*
X80650Y-53984D01*
X80631Y-53994D01*
X80575Y-53994D01*
X80556Y-53984D01*
X80547Y-53975D01*
G54D17*
X81114Y-55890D02*
X81020Y-55950D01*
X81114Y-55993D02*
X80917Y-55993D01*
X80917Y-55925D01*
X80926Y-55907D01*
X80935Y-55899D01*
X80954Y-55890D01*
X80982Y-55890D01*
X81001Y-55899D01*
X81010Y-55907D01*
X81020Y-55925D01*
X81020Y-55993D01*
X81114Y-55719D02*
X81114Y-55822D01*
X81114Y-55770D02*
X80917Y-55770D01*
X80945Y-55787D01*
X80964Y-55805D01*
X80973Y-55822D01*
X80917Y-55607D02*
X80917Y-55590D01*
X80926Y-55573D01*
X80935Y-55565D01*
X80954Y-55556D01*
X80992Y-55547D01*
X81039Y-55547D01*
X81076Y-55556D01*
X81095Y-55565D01*
X81104Y-55573D01*
X81114Y-55590D01*
X81114Y-55607D01*
X81104Y-55625D01*
X81095Y-55633D01*
X81076Y-55642D01*
X81039Y-55650D01*
X80992Y-55650D01*
X80954Y-55642D01*
X80935Y-55633D01*
X80926Y-55625D01*
X80917Y-55607D01*
X81124Y-56660D02*
X81030Y-56720D01*
X81124Y-56762D02*
X80927Y-56762D01*
X80927Y-56694D01*
X80936Y-56677D01*
X80945Y-56668D01*
X80964Y-56660D01*
X80992Y-56660D01*
X81011Y-56668D01*
X81020Y-56677D01*
X81030Y-56694D01*
X81030Y-56762D01*
X81124Y-56574D02*
X81124Y-56540D01*
X81114Y-56522D01*
X81105Y-56514D01*
X81077Y-56497D01*
X81039Y-56488D01*
X80964Y-56488D01*
X80945Y-56497D01*
X80936Y-56505D01*
X80927Y-56522D01*
X80927Y-56557D01*
X80936Y-56574D01*
X80945Y-56582D01*
X80964Y-56591D01*
X81011Y-56591D01*
X81030Y-56582D01*
X81039Y-56574D01*
X81049Y-56557D01*
X81049Y-56522D01*
X81039Y-56505D01*
X81030Y-56497D01*
X81011Y-56488D01*
X82144Y-53926D02*
X82135Y-53935D01*
X82110Y-53945D01*
X82092Y-53945D01*
X82067Y-53935D01*
X82050Y-53916D01*
X82041Y-53897D01*
X82032Y-53859D01*
X82032Y-53831D01*
X82041Y-53793D01*
X82050Y-53774D01*
X82067Y-53755D01*
X82092Y-53745D01*
X82110Y-53745D01*
X82135Y-53755D01*
X82144Y-53764D01*
X82212Y-53764D02*
X82221Y-53755D01*
X82238Y-53745D01*
X82281Y-53745D01*
X82298Y-53755D01*
X82307Y-53764D01*
X82315Y-53783D01*
X82315Y-53802D01*
X82307Y-53831D01*
X82204Y-53945D01*
X82315Y-53945D01*
X82427Y-53745D02*
X82444Y-53745D01*
X82461Y-53755D01*
X82470Y-53764D01*
X82478Y-53783D01*
X82487Y-53821D01*
X82487Y-53869D01*
X82478Y-53907D01*
X82470Y-53926D01*
X82461Y-53935D01*
X82444Y-53945D01*
X82427Y-53945D01*
X82410Y-53935D01*
X82401Y-53926D01*
X82392Y-53907D01*
X82384Y-53869D01*
X82384Y-53821D01*
X82392Y-53783D01*
X82401Y-53764D01*
X82410Y-53755D01*
X82427Y-53745D01*
X79619Y-55426D02*
X79610Y-55435D01*
X79585Y-55445D01*
X79567Y-55445D01*
X79542Y-55435D01*
X79525Y-55416D01*
X79516Y-55397D01*
X79507Y-55359D01*
X79507Y-55331D01*
X79516Y-55293D01*
X79525Y-55274D01*
X79542Y-55255D01*
X79567Y-55245D01*
X79585Y-55245D01*
X79610Y-55255D01*
X79619Y-55264D01*
X79687Y-55264D02*
X79696Y-55255D01*
X79713Y-55245D01*
X79756Y-55245D01*
X79773Y-55255D01*
X79782Y-55264D01*
X79790Y-55283D01*
X79790Y-55302D01*
X79782Y-55331D01*
X79679Y-55445D01*
X79790Y-55445D01*
X79859Y-55264D02*
X79867Y-55255D01*
X79885Y-55245D01*
X79927Y-55245D01*
X79945Y-55255D01*
X79953Y-55264D01*
X79962Y-55283D01*
X79962Y-55302D01*
X79953Y-55331D01*
X79850Y-55445D01*
X79962Y-55445D01*
X82894Y-53926D02*
X82885Y-53935D01*
X82860Y-53945D01*
X82842Y-53945D01*
X82817Y-53935D01*
X82800Y-53916D01*
X82791Y-53897D01*
X82782Y-53859D01*
X82782Y-53831D01*
X82791Y-53793D01*
X82800Y-53774D01*
X82817Y-53755D01*
X82842Y-53745D01*
X82860Y-53745D01*
X82885Y-53755D01*
X82894Y-53764D01*
X82962Y-53764D02*
X82971Y-53755D01*
X82988Y-53745D01*
X83031Y-53745D01*
X83048Y-53755D01*
X83057Y-53764D01*
X83065Y-53783D01*
X83065Y-53802D01*
X83057Y-53831D01*
X82954Y-53945D01*
X83065Y-53945D01*
X83237Y-53945D02*
X83134Y-53945D01*
X83185Y-53945D02*
X83185Y-53745D01*
X83168Y-53774D01*
X83151Y-53793D01*
X83134Y-53802D01*
X72030Y-52220D02*
X71944Y-52220D01*
X71944Y-52020D01*
X72072Y-52020D02*
X72184Y-52020D01*
X72124Y-52096D01*
X72150Y-52096D01*
X72167Y-52106D01*
X72175Y-52115D01*
X72184Y-52134D01*
X72184Y-52182D01*
X72175Y-52201D01*
X72167Y-52210D01*
X72150Y-52220D01*
X72098Y-52220D01*
X72081Y-52210D01*
X72072Y-52201D01*
X69780Y-52245D02*
X69694Y-52245D01*
X69694Y-52045D01*
X69831Y-52064D02*
X69840Y-52055D01*
X69857Y-52045D01*
X69900Y-52045D01*
X69917Y-52055D01*
X69925Y-52064D01*
X69934Y-52083D01*
X69934Y-52102D01*
X69925Y-52131D01*
X69822Y-52245D01*
X69934Y-52245D01*
X70080Y-57495D02*
X69994Y-57495D01*
X69994Y-57295D01*
X70217Y-57362D02*
X70217Y-57495D01*
X70174Y-57285D02*
X70131Y-57428D01*
X70242Y-57428D01*
X72780Y-52245D02*
X72694Y-52245D01*
X72694Y-52045D01*
X72925Y-52045D02*
X72840Y-52045D01*
X72831Y-52140D01*
X72840Y-52131D01*
X72857Y-52121D01*
X72900Y-52121D01*
X72917Y-52131D01*
X72925Y-52140D01*
X72934Y-52159D01*
X72934Y-52207D01*
X72925Y-52226D01*
X72917Y-52235D01*
X72900Y-52245D01*
X72857Y-52245D01*
X72840Y-52235D01*
X72831Y-52226D01*
X81380Y-53345D02*
X81294Y-53345D01*
X81294Y-53145D01*
X81517Y-53145D02*
X81482Y-53145D01*
X81465Y-53155D01*
X81457Y-53164D01*
X81440Y-53193D01*
X81431Y-53231D01*
X81431Y-53307D01*
X81440Y-53326D01*
X81448Y-53335D01*
X81465Y-53345D01*
X81500Y-53345D01*
X81517Y-53335D01*
X81525Y-53326D01*
X81534Y-53307D01*
X81534Y-53259D01*
X81525Y-53240D01*
X81517Y-53231D01*
X81500Y-53221D01*
X81465Y-53221D01*
X81448Y-53231D01*
X81440Y-53240D01*
X81431Y-53259D01*
G54D10*
X74103Y-55501D02*
X73972Y-55501D01*
X73972Y-55708D02*
X73972Y-55314D01*
X74160Y-55314D01*
X74516Y-55708D02*
X74291Y-55708D01*
X74403Y-55708D02*
X74403Y-55314D01*
X74366Y-55370D01*
X74328Y-55408D01*
X74291Y-55426D01*
G54D14*
X81326Y-49935D02*
X81297Y-49920D01*
X81255Y-49920D01*
X81212Y-49935D01*
X81183Y-49963D01*
X81169Y-49992D01*
X81155Y-50049D01*
X81155Y-50092D01*
X81169Y-50149D01*
X81183Y-50177D01*
X81212Y-50206D01*
X81255Y-50220D01*
X81283Y-50220D01*
X81326Y-50206D01*
X81340Y-50192D01*
X81340Y-50092D01*
X81283Y-50092D01*
X81469Y-50220D02*
X81469Y-49920D01*
X81640Y-50220D01*
X81640Y-49920D01*
X81783Y-50220D02*
X81783Y-49920D01*
X81855Y-49920D01*
X81897Y-49935D01*
X81926Y-49963D01*
X81940Y-49992D01*
X81955Y-50049D01*
X81955Y-50092D01*
X81940Y-50149D01*
X81926Y-50177D01*
X81897Y-50206D01*
X81855Y-50220D01*
X81783Y-50220D01*
G54D10*
X88645Y-59363D02*
X88645Y-58969D01*
X88795Y-58969D01*
X88833Y-58988D01*
X88851Y-59006D01*
X88870Y-59044D01*
X88870Y-59100D01*
X88851Y-59138D01*
X88833Y-59156D01*
X88795Y-59175D01*
X88645Y-59175D01*
X89208Y-59363D02*
X89208Y-59156D01*
X89189Y-59119D01*
X89151Y-59100D01*
X89076Y-59100D01*
X89039Y-59119D01*
X89208Y-59344D02*
X89170Y-59363D01*
X89076Y-59363D01*
X89039Y-59344D01*
X89020Y-59306D01*
X89020Y-59269D01*
X89039Y-59231D01*
X89076Y-59213D01*
X89170Y-59213D01*
X89208Y-59194D01*
X89564Y-59363D02*
X89564Y-58969D01*
X89564Y-59344D02*
X89526Y-59363D01*
X89451Y-59363D01*
X89414Y-59344D01*
X89395Y-59325D01*
X89376Y-59288D01*
X89376Y-59175D01*
X89395Y-59138D01*
X89414Y-59119D01*
X89451Y-59100D01*
X89526Y-59100D01*
X89564Y-59119D01*
X65470Y-49788D02*
X65470Y-49394D01*
X65620Y-49394D01*
X65658Y-49413D01*
X65676Y-49431D01*
X65695Y-49469D01*
X65695Y-49525D01*
X65676Y-49563D01*
X65658Y-49581D01*
X65620Y-49600D01*
X65470Y-49600D01*
X66033Y-49788D02*
X66033Y-49581D01*
X66014Y-49544D01*
X65976Y-49525D01*
X65901Y-49525D01*
X65864Y-49544D01*
X66033Y-49769D02*
X65995Y-49788D01*
X65901Y-49788D01*
X65864Y-49769D01*
X65845Y-49731D01*
X65845Y-49694D01*
X65864Y-49656D01*
X65901Y-49638D01*
X65995Y-49638D01*
X66033Y-49619D01*
X66389Y-49788D02*
X66389Y-49394D01*
X66389Y-49769D02*
X66351Y-49788D01*
X66276Y-49788D01*
X66239Y-49769D01*
X66220Y-49750D01*
X66201Y-49713D01*
X66201Y-49600D01*
X66220Y-49563D01*
X66239Y-49544D01*
X66276Y-49525D01*
X66351Y-49525D01*
X66389Y-49544D01*
%LPC*%
G54D21*
X62125Y-56150D03*
X62125Y-52700D03*
G54D22*
X62125Y-54425D03*
G54D23*
X67550Y-51850D03*
X67550Y-52450D03*
X69050Y-52450D03*
X69050Y-51850D03*
G54D24*
X73000Y-53900D03*
X73600Y-53900D03*
X77350Y-54650D03*
X76750Y-54650D03*
G54D23*
X73550Y-52450D03*
X73550Y-51850D03*
X66800Y-51200D03*
X66800Y-50600D03*
X66800Y-51850D03*
X66800Y-52450D03*
X66050Y-51850D03*
X66050Y-52450D03*
X71000Y-55950D03*
X71000Y-56550D03*
G54D24*
X91555Y-57410D03*
X90955Y-57410D03*
G54D23*
X66050Y-53100D03*
X66050Y-53700D03*
G54D24*
X90900Y-50700D03*
X90300Y-50700D03*
X90930Y-58210D03*
X90330Y-58210D03*
X70100Y-55600D03*
X69500Y-55600D03*
G54D23*
X71300Y-52450D03*
X71300Y-51850D03*
X74300Y-51850D03*
X74300Y-52450D03*
X68300Y-52450D03*
X68300Y-51850D03*
G54D24*
X70100Y-56400D03*
X69500Y-56400D03*
G54D23*
X71750Y-55950D03*
X71750Y-56550D03*
X66800Y-53100D03*
X66800Y-53700D03*
X70550Y-52450D03*
X70550Y-51850D03*
X66050Y-54400D03*
X66050Y-55000D03*
X78300Y-54600D03*
X78300Y-55200D03*
X75050Y-51850D03*
X75050Y-52450D03*
G54D24*
X90300Y-51500D03*
X90900Y-51500D03*
G54D25*
X93435Y-52805D03*
G54D26*
X80360Y-49130D03*
G54D25*
X93435Y-56105D03*
X93435Y-55005D03*
X93435Y-53905D03*
G54D27*
X91130Y-55509D03*
G54D28*
X91228Y-56100D03*
G54D27*
X91130Y-56691D03*
G54D29*
X92173Y-56100D03*
G54D27*
X91130Y-52209D03*
G54D28*
X91228Y-52800D03*
G54D27*
X91130Y-53391D03*
G54D29*
X92173Y-52800D03*
G54D30*
X90278Y-53641D03*
X90278Y-52559D03*
X90300Y-55259D03*
X90300Y-56341D03*
G54D31*
X78300Y-53900D03*
X78300Y-53400D03*
X78300Y-52900D03*
X78300Y-52400D03*
X76100Y-52400D03*
X76100Y-52900D03*
X76100Y-53400D03*
X76100Y-53900D03*
G54D32*
X72170Y-55150D03*
X72170Y-54150D03*
G54D33*
X71029Y-54650D03*
G54D31*
X67900Y-53400D03*
X67900Y-53900D03*
X67900Y-54400D03*
X67900Y-54900D03*
X70100Y-54900D03*
X70100Y-54400D03*
X70100Y-53900D03*
X70100Y-53400D03*
G54D34*
X64375Y-54400D03*
X65224Y-54400D03*
G54D35*
X80589Y-54315D03*
X80589Y-55065D03*
X80589Y-54690D03*
X81421Y-55065D03*
X81421Y-54315D03*
G54D24*
X80700Y-55800D03*
X81300Y-55800D03*
X81300Y-56600D03*
X80700Y-56600D03*
G54D23*
X82250Y-54150D03*
X82250Y-53550D03*
X79730Y-55070D03*
X79730Y-55670D03*
X83000Y-54150D03*
X83000Y-53550D03*
X72050Y-51850D03*
X72050Y-52450D03*
X69800Y-51850D03*
X69800Y-52450D03*
X70100Y-57700D03*
X70100Y-57100D03*
X72800Y-52450D03*
X72800Y-51850D03*
X81400Y-52950D03*
X81400Y-53550D03*
G54D36*
X74375Y-53896D03*
X74375Y-54448D03*
X74375Y-54999D03*
X75202Y-53896D03*
X75202Y-54448D03*
X75202Y-54999D03*
G54D37*
X81585Y-49130D03*
G54D38*
X66393Y-49779D03*
X88677Y-59031D03*
M02*
