G04 (created by PCBNEW (2013-09-28 BZR 4356)-product) date 10/22/2013 9:10:19 PM*
%MOIN*%
G04 Gerber Fmt 3.4, Leading zero omitted, Abs format*
%FSLAX34Y34*%
G01*
G70*
G90*
G04 APERTURE LIST*
%ADD10C,0.005906*%
%ADD11R,0.200000X0.095000*%
%ADD12R,0.200000X0.090000*%
%ADD13R,0.045000X0.025000*%
%ADD14R,0.025000X0.045000*%
%ADD15R,0.100000X0.070000*%
%ADD16R,0.060000X0.100000*%
%ADD17R,0.063000X0.027600*%
%ADD18R,0.082700X0.027600*%
%ADD19R,0.108300X0.078700*%
%ADD20R,0.059100X0.076800*%
%ADD21R,0.050000X0.025000*%
%ADD22R,0.062992X0.051181*%
%ADD23R,0.062992X0.078740*%
%ADD24R,0.039528X0.104331*%
%ADD25R,0.039400X0.023600*%
%ADD26R,0.059055X0.031496*%
%ADD27R,0.070000X0.100000*%
%ADD28C,0.100000*%
G04 APERTURE END LIST*
G54D10*
G54D11*
X62125Y-56150D03*
X62125Y-52700D03*
G54D12*
X62125Y-54425D03*
G54D13*
X67550Y-51850D03*
X67550Y-52450D03*
X69050Y-52450D03*
X69050Y-51850D03*
G54D14*
X73000Y-53900D03*
X73600Y-53900D03*
X77350Y-54650D03*
X76750Y-54650D03*
G54D13*
X73550Y-52450D03*
X73550Y-51850D03*
X66800Y-51200D03*
X66800Y-50600D03*
X66800Y-51850D03*
X66800Y-52450D03*
X66050Y-51850D03*
X66050Y-52450D03*
X71000Y-55950D03*
X71000Y-56550D03*
G54D14*
X91555Y-57410D03*
X90955Y-57410D03*
G54D13*
X66050Y-53100D03*
X66050Y-53700D03*
G54D14*
X90900Y-50700D03*
X90300Y-50700D03*
X90930Y-58210D03*
X90330Y-58210D03*
X70100Y-55600D03*
X69500Y-55600D03*
G54D13*
X71300Y-52450D03*
X71300Y-51850D03*
X74300Y-51850D03*
X74300Y-52450D03*
X68300Y-52450D03*
X68300Y-51850D03*
G54D14*
X70100Y-56400D03*
X69500Y-56400D03*
G54D13*
X71750Y-55950D03*
X71750Y-56550D03*
X66800Y-53100D03*
X66800Y-53700D03*
X70550Y-52450D03*
X70550Y-51850D03*
X66050Y-54400D03*
X66050Y-55000D03*
X78300Y-54600D03*
X78300Y-55200D03*
X75050Y-51850D03*
X75050Y-52450D03*
G54D14*
X90300Y-51500D03*
X90900Y-51500D03*
G54D15*
X93435Y-52805D03*
G54D16*
X80360Y-49130D03*
G54D15*
X93435Y-56105D03*
X93435Y-55005D03*
X93435Y-53905D03*
G54D17*
X91130Y-55509D03*
G54D18*
X91228Y-56100D03*
G54D17*
X91130Y-56691D03*
G54D19*
X92173Y-56100D03*
G54D17*
X91130Y-52209D03*
G54D18*
X91228Y-52800D03*
G54D17*
X91130Y-53391D03*
G54D19*
X92173Y-52800D03*
G54D20*
X90278Y-53641D03*
X90278Y-52559D03*
X90300Y-55259D03*
X90300Y-56341D03*
G54D21*
X78300Y-53900D03*
X78300Y-53400D03*
X78300Y-52900D03*
X78300Y-52400D03*
X76100Y-52400D03*
X76100Y-52900D03*
X76100Y-53400D03*
X76100Y-53900D03*
G54D22*
X72170Y-55150D03*
X72170Y-54150D03*
G54D23*
X71029Y-54650D03*
G54D21*
X67900Y-53400D03*
X67900Y-53900D03*
X67900Y-54400D03*
X67900Y-54900D03*
X70100Y-54900D03*
X70100Y-54400D03*
X70100Y-53900D03*
X70100Y-53400D03*
G54D24*
X64375Y-54400D03*
X65224Y-54400D03*
G54D25*
X80589Y-54315D03*
X80589Y-55065D03*
X80589Y-54690D03*
X81421Y-55065D03*
X81421Y-54315D03*
G54D14*
X80700Y-55800D03*
X81300Y-55800D03*
X81300Y-56600D03*
X80700Y-56600D03*
G54D13*
X82250Y-54150D03*
X82250Y-53550D03*
X79730Y-55070D03*
X79730Y-55670D03*
X83000Y-54150D03*
X83000Y-53550D03*
X72050Y-51850D03*
X72050Y-52450D03*
X69800Y-51850D03*
X69800Y-52450D03*
X70100Y-57700D03*
X70100Y-57100D03*
X72800Y-52450D03*
X72800Y-51850D03*
X81400Y-52950D03*
X81400Y-53550D03*
G54D26*
X74375Y-53896D03*
X74375Y-54448D03*
X74375Y-54999D03*
X75202Y-53896D03*
X75202Y-54448D03*
X75202Y-54999D03*
G54D27*
X81585Y-49130D03*
G54D28*
X66393Y-49779D03*
X88677Y-59031D03*
M02*
